<?xml version="1.0" encoding="utf-8"?>
<!-- Generator: Adobe Illustrator 15.0.2, SVG Export Plug-In . SVG Version: 6.00 Build 0)  -->
<!DOCTYPE svg PUBLIC "-//W3C//DTD SVG 1.1//EN" "http://www.w3.org/Graphics/SVG/1.1/DTD/svg11.dtd">
<svg version="1.1" id="Layer_1" xmlns="http://www.w3.org/2000/svg" xmlns:xlink="http://www.w3.org/1999/xlink" x="0px" y="0px"
	 width="100px" height="100px" viewBox="0 0 100 100" enable-background="new 0 0 100 100" xml:space="preserve">
<g>
	<g>
		<path fill="#ADADAD" d="M26.956,40.934c-0.263,0-2.475,0-2.475,0c0-0.189-0.47-1.602-2.458-1.602
			c-1.457,0-1.766,0.764-1.766,1.272c0,1.183,1.974,1.422,3.15,1.722c1.329,0.334,3.933,1.023,3.933,3.648
			c0,1.458-0.783,2.406-1.474,2.95c-0.912,0.709-2.186,1.074-3.679,1.074c-3.693,0-5.308-2.107-5.481-4.133c0.488,0,2.816,0,2.816,0
			c0.054,0.455,0.623,1.952,2.755,1.952c1.821,0,2.04-0.968,2.04-1.368c0-1.148-1.603-1.417-3.015-1.781
			c-1.46-0.385-3.959-1.003-3.959-3.699c0-1.987,1.439-3.824,4.825-3.824C26.483,37.145,26.956,40.285,26.956,40.934z"/>
		<path fill="#ADADAD" d="M37.454,46.744c-0.13,0.679-1.013,3.254-4.445,3.254c-1.53,0-2.66-0.599-3.352-1.288
			c-0.637-0.639-1.328-1.767-1.328-3.519c0-2.037,0.91-3.185,1.638-3.804c1.076-0.908,2.239-1.038,3.059-1.038
			c1.767,0,2.877,0.798,3.497,1.547c0.565,0.674,1.074,1.787,1.074,3.35v0.474h-6.36c0,1.223,0.471,2.46,1.898,2.46
			c1.218,0,1.71-0.938,1.821-1.437L37.454,46.744L37.454,46.744z M34.811,44.173L34.811,44.173c0-0.454-0.204-2.001-1.75-2.001
			c-1.542,0-1.824,1.358-1.824,2.001H34.811z"/>
		<path fill="#ADADAD" d="M42.451,40.529h1.93v1.917h-1.93v4.167c0,0.329,0,0.729,0.292,1.038c0.236,0.234,0.546,0.27,0.836,0.27
			c0.274,0,0.71,0,1.001,0v1.917c-0.618,0.09-1.418,0.16-2.003,0.16c-0.672,0-1.583-0.145-2.185-0.784
			c-0.69-0.723-0.655-1.637-0.655-2.525v-4.242H38.28V40.53h1.457l0.254-2.84h2.459L42.451,40.529L42.451,40.529z"/>
		<rect x="46.183" y="36.252" fill="#ADADAD" width="2.714" height="13.566"/>
		<path fill="#ADADAD" d="M61.77,49.818h-1.53l-0.454-1.367c-0.311,0.419-0.73,0.783-1.129,1.023
			c-0.674,0.379-1.549,0.524-2.313,0.524c-1.129,0-2.549-0.235-3.731-1.547c-1.092-1.198-1.658-3.095-1.658-4.712
			c0-1.662,0.473-3.519,1.564-4.771c1.295-1.493,2.914-1.822,4.205-1.822c3.771,0,4.834,2.516,5.012,4.408H58.91
			c-0.055-0.455-0.236-1.003-0.51-1.368c-0.291-0.399-0.818-0.854-1.73-0.854c-0.71,0-1.549,0.29-2.095,1.348
			c-0.146,0.29-0.49,1.053-0.49,2.875c0,1.073,0.127,2.256,0.582,3.025c0.384,0.634,1.038,1.237,2.11,1.237
			c0.677,0,1.222-0.254,1.587-0.619c0.362-0.364,0.637-0.983,0.637-1.643v-0.309h-2.495v-2.132h5.264V49.818z"/>
		<path fill="#ADADAD" d="M63.783,49.818v-9.289h2.369v2.062h0.037c0.09-0.713,0.437-1.203,0.672-1.458
			c0.311-0.33,0.893-0.784,1.839-0.784c0.167,0,0.329,0.02,0.493,0.035v2.44c0,0-0.291,0-0.437,0c-0.457,0-0.894,0.09-1.239,0.31
			c-0.893,0.564-1.021,1.438-1.021,2.42v4.263L63.783,49.818L63.783,49.818z"/>
		<path fill="#ADADAD" d="M77.768,41.622c0.437,0.439,1.381,1.588,1.381,3.534c0,1.493-0.58,2.825-1.453,3.659
			c-0.637,0.604-1.676,1.183-3.149,1.183c-1.479,0-2.514-0.579-3.151-1.183c-0.873-0.833-1.457-2.166-1.457-3.659
			c0-1.946,0.947-3.095,1.386-3.534c1.075-1.053,2.311-1.272,3.224-1.272C75.455,40.35,76.691,40.569,77.768,41.622z M73.25,42.9
			L73.25,42.9c-0.438,0.674-0.473,1.563-0.473,2.256c0,1.258,0.199,1.856,0.418,2.241c0.347,0.599,0.856,0.783,1.35,0.783
			c0.489,0,1.002-0.184,1.348-0.783c0.219-0.385,0.418-0.983,0.418-2.241c0-0.694-0.035-1.583-0.473-2.256
			c-0.311-0.494-0.71-0.729-1.293-0.729C73.961,42.171,73.561,42.406,73.25,42.9z"/>
		<path fill="#ADADAD" d="M83.197,40.529v5.596c0,0.344,0,0.999,0.308,1.397c0.201,0.274,0.547,0.419,0.929,0.419
			c0.438,0,0.909-0.199,1.221-0.619c0.363-0.474,0.42-1.033,0.42-1.512v-5.281h2.712v9.289h-2.515v-1.657h-0.033
			c-0.475,1.093-1.424,1.837-2.785,1.837c-0.84,0-1.458-0.254-1.93-0.654c-0.912-0.763-1.041-1.822-1.041-2.785v-6.03H83.197z"/>
		<path fill="#ADADAD" d="M90.77,52.803V40.529h2.513v1.498c0.563-1.093,1.655-1.677,2.821-1.677c2.275,0,3.496,1.987,3.496,4.737
			c0,3.494-1.804,4.912-3.606,4.912c-1.109,0-1.945-0.455-2.511-1.363v4.169H90.77V52.803z M93.48,46.104L93.48,46.104
			c0,1.293,0.601,2.076,1.584,2.076c1.35,0,1.691-1.477,1.691-3.044c0-2.112-0.654-2.965-1.691-2.965
			c-0.965,0-1.584,0.819-1.584,1.927V46.104z"/>
	</g>
	<g>
		<polygon fill="#ADADAD" points="0,25.75 0,74.58 48.833,74.58 48.833,52.877 46.119,52.877 46.119,71.865 2.714,71.865 
			2.714,28.46 46.119,28.46 46.119,33.886 48.833,33.886 48.833,25.75 		"/>
	</g>
</g>
</svg>
