<?xml version="1.0" encoding="utf-8"?>
<!-- Generator: Adobe Illustrator 15.0.2, SVG Export Plug-In . SVG Version: 6.00 Build 0)  -->
<!DOCTYPE svg PUBLIC "-//W3C//DTD SVG 1.1//EN" "http://www.w3.org/Graphics/SVG/1.1/DTD/svg11.dtd">
<svg version="1.1" id="Layer_1" xmlns="http://www.w3.org/2000/svg" xmlns:xlink="http://www.w3.org/1999/xlink" x="0px" y="0px"
	 width="100px" height="100px" viewBox="0 0 100 100" enable-background="new 0 0 100 100" xml:space="preserve">
<g>
	<path fill="#7F7F7F" d="M86.971,50.701c0.183-0.08,0.365-0.162,0.543-0.248c3.015-1.464,5.344-3.881,5.527-6.893l0.01-0.138
		l-0.006-0.138l-0.013-0.429c-0.177-5.212-6.068-8.438-11.427-8.438c-0.452,0-0.905,0.024-1.335,0.072
		c-2.149,0.238-4.078,0.834-5.715,1.726c-0.109-0.529-0.237-0.867-0.239-0.875c-0.558-1.396-2.017-2.298-3.712-2.298l-6.854,0.001
		c-0.965,0-2.359,0.357-3.112,1.025c-0.821,0.745-1.58,2.036-1.535,3.614c-0.706-0.001-0.672-0.001-1.376-0.002
		c0.019-0.417-0.028-0.864-0.16-1.345c-0.284-1.028-1.448-2.817-4.013-3.251C53.318,33.045,53.057,33,51.133,33
		c-0.154,0-3.737,0-4.685,0.127c-0.664,0.089-1.21,0.272-1.659,0.519c-0.681,0.294-1.798,0.294-4.722,0.215
		c-4.151-0.111-7.622,0.847-10.259,2.37c-0.383-0.477-0.871-0.858-1.438-1.121l-0.046-0.022l-0.047-0.02
		c-0.513-0.218-5.111-2.134-8.219-2.318l-0.107-0.005c-0.472-0.022-0.953-0.043-1.45-0.043c-1.961,0.009-7.928,0.037-9.744,5.811
		c-0.398,1.26-0.35,2.593,0.123,3.843c-0.349,0.082-0.688,0.209-1.019,0.382c-1.743,0.912-2.619,2.098-2.61,3.531
		c-0.035,0.883,0.252,1.75,0.801,2.416l2.473,3.047c0.196,0.238,0.417,0.446,0.656,0.631c-0.443,0.135-0.87,0.297-1.264,0.513
		c-1.124,0.614-1.974,1.426-2.523,2.402c-0.544,0.957-0.82,1.997-0.82,3.09c0,1.403,0.396,2.627,1.175,3.633
		c0.722,0.938,1.667,1.642,2.802,2.095c1.03,0.41,2.342,0.612,3.169,0.626l0.125,0.002c0.935,0,1.952-0.267,2.319-0.371
		c0.489-0.115,0.935-0.363,1.289-0.707c0.196,0.115,0.397,0.223,0.608,0.325c1.087,0.506,2.266,0.762,3.501,0.762h0.026
		c1.212-0.015,2.357-0.273,3.407-0.77c0.171-0.083,0.337-0.17,0.5-0.26c0.49,0.475,1.113,0.781,1.783,0.884
		c0.235,0.046,0.814,0.142,1.381,0.142c0.596,0,1.976-0.149,2.969-0.726c0.164-0.102,0.318-0.21,0.466-0.33
		c0.593,0.547,1.378,0.855,2.182,0.855l17.195,0.002c1.436,0,2.631-0.232,3.644-0.711c0.571,0.454,1.28,0.709,2.014,0.709h18.773
		c0.659,0,1.3-0.206,1.834-0.581c0.105,0.072,0.21,0.138,0.32,0.199c0.468,0.251,0.993,0.383,1.521,0.383h1.485
		c0.73,0,1.424-0.25,1.977-0.677c0.083,0.043,0.165,0.084,0.252,0.123c1.085,0.506,2.264,0.764,3.501,0.764h0.026
		c1.212-0.016,2.356-0.274,3.406-0.771c1.127-0.539,2.033-1.287,2.692-2.214c0.728-1.018,1.099-2.153,1.099-3.377
		c0-0.905-0.216-1.785-0.643-2.61c-0.406-0.797-0.963-1.482-1.646-2.038c-0.667-0.545-1.433-0.97-2.229-1.245
		c-0.168-0.064-0.345-0.115-0.521-0.164c-0.355-0.162-0.59-0.363-0.62-0.78C86.343,51.164,86.659,50.886,86.971,50.701z"/>
	<path fill="#EFEFEF" d="M93.052,63.474c0,1.369,1.06,2.482,2.362,2.482c1.318,0,2.363-1.113,2.363-2.482
		c0-1.368-1.045-2.481-2.363-2.481C94.111,60.992,93.052,62.104,93.052,63.474z M93.618,63.474c0-1.114,0.798-1.972,1.796-1.972
		c0.993,0,1.795,0.864,1.795,1.972c0,1.109-0.804,1.973-1.795,1.973C94.416,65.444,93.618,64.585,93.618,63.474z M94.551,64.691
		h0.56v-0.979h0.116c0.835,0,0.302,0.589,0.608,0.979h0.581c-0.104-0.126-0.089-0.219-0.104-0.559
		c-0.006-0.209-0.022-0.547-0.337-0.627v-0.014c0.148-0.066,0.385-0.213,0.385-0.59c0-0.31-0.173-0.692-0.767-0.692h-1.043V64.691z
		 M95.11,62.643h0.244c0.269,0,0.44,0.064,0.44,0.303c0,0.294-0.257,0.334-0.387,0.334H95.11V62.643z"/>
	<g>
		<path fill="#EFEFEF" d="M33.702,54.463h-6.367c-0.245,0-0.489,0.099-0.676,0.294c-0.187,0.197-0.279,0.452-0.279,0.711v2.904
			c0,0.483-0.124,0.98-0.251,1.124c-0.127,0.146-0.663,0.18-0.663,0.18c-0.209,0.06-0.401,0.186-0.537,0.385
			c-0.136,0.196-0.193,0.429-0.181,0.653l0.046,0.635c0.015,0.227,0.102,0.5,0.266,0.677c0.163,0.176,0.373,0.277,0.588,0.302
			c0,0,0.548,0.112,1.013,0.112c0.463,0,1.34-0.138,1.771-0.389c0.432-0.264,0.739-0.674,0.92-1.241
			c0.171-0.566,0.26-1.344,0.26-2.332v-1.891h1.711v4.65c0,0.257,0.093,0.514,0.28,0.71c0.187,0.196,0.431,0.294,0.676,0.294h1.423
			c0.243,0,0.487-0.098,0.674-0.294s0.281-0.451,0.281-0.71v-5.771c0-0.256-0.095-0.514-0.281-0.71
			C34.191,54.562,33.945,54.463,33.702,54.463z M23.047,55.492c-0.45-0.367-0.972-0.663-1.572-0.87
			c-0.58-0.211-1.222-0.315-1.911-0.315h-0.041c-0.7,0-1.34,0.104-1.941,0.315c-0.601,0.2-1.12,0.494-1.582,0.87
			c-0.448,0.378-0.811,0.819-1.061,1.312c-0.259,0.505-0.39,1.02-0.39,1.568c0,0.735,0.22,1.417,0.671,2.046
			c0.442,0.625,1.053,1.114,1.811,1.483c0.771,0.356,1.601,0.546,2.532,0.546c0.869-0.011,1.691-0.189,2.443-0.546
			c0.768-0.369,1.378-0.858,1.82-1.483c0.451-0.627,0.669-1.311,0.669-2.046c0-0.549-0.128-1.063-0.39-1.568
			C23.849,56.3,23.497,55.859,23.047,55.492z M19.523,59.985c-0.44,0-0.798-0.719-0.798-1.609c0-0.888,0.357-1.607,0.798-1.607
			c0.441,0,0.796,0.72,0.796,1.607C20.319,59.266,19.964,59.985,19.523,59.985z M77.95,58.309l1.633-2.233
			c0.214-0.294,0.264-0.7,0.098-1.053c-0.165-0.353-0.502-0.56-0.857-0.56h-1.334c-0.154,0-0.31,0.04-0.453,0.12
			s-0.257,0.195-0.344,0.327l-1.827,2.873v-2.318c0-0.256-0.094-0.513-0.28-0.708c-0.188-0.195-0.431-0.296-0.675-0.296h-1.368
			c-0.247,0-0.49,0.101-0.677,0.296c-0.186,0.195-0.279,0.452-0.279,0.708v5.771c0,0.257,0.094,0.513,0.279,0.708
			c0.187,0.196,0.435,0.296,0.677,0.296h1.368c0.244,0,0.487-0.1,0.675-0.296c0.187-0.195,0.28-0.449,0.28-0.708v-2.242l1.947,2.828
			c0.085,0.125,0.201,0.231,0.34,0.305c0.14,0.074,0.288,0.111,0.435,0.111h1.487c0.358,0,0.707-0.215,0.865-0.58
			c0.163-0.365,0.095-0.781-0.139-1.07L77.95,58.309z M13.504,59.588c0,0-0.903,0.314-1.505,0.289
			c-0.491-0.024-1.02-0.161-1.299-0.466c-0.28-0.316-0.425-0.672-0.425-1.072c0-0.483,0.173-0.851,0.521-1.113
			c0.353-0.26,0.684-0.402,1.305-0.396c0.62,0.005,1.354,0.294,1.354,0.294c0.139,0.028,0.284-0.002,0.399-0.103
			c0.116-0.097,0.175-0.243,0.175-0.387v-1.53c0-0.115-0.037-0.231-0.114-0.325c-0.078-0.096-0.182-0.151-0.29-0.169
			c0,0-0.657-0.274-1.854-0.302c-0.865-0.019-1.863,0.09-2.754,0.578c-0.734,0.401-1.279,0.904-1.629,1.522
			c-0.353,0.623-0.523,1.281-0.523,1.966c0,0.885,0.232,1.629,0.703,2.237c0.469,0.609,1.08,1.063,1.839,1.367
			c0.761,0.306,1.792,0.452,2.372,0.463c0.769,0.019,1.825-0.301,1.825-0.301c0.105-0.021,0.206-0.072,0.282-0.163
			c0.076-0.091,0.116-0.2,0.12-0.311l0.061-1.56c0.007-0.148-0.049-0.297-0.164-0.398C13.789,59.6,13.641,59.561,13.504,59.588z
			 M69.607,54.463h-1.424c-0.247,0-0.49,0.099-0.676,0.294c-0.187,0.197-0.282,0.452-0.282,0.711v4.67h-1.079v-4.67
			c0-0.257-0.094-0.514-0.279-0.711c-0.187-0.195-0.429-0.294-0.676-0.294h-1.421c-0.241,0-0.487,0.099-0.673,0.294
			c-0.186,0.197-0.279,0.452-0.279,0.711v4.67h-1.082v-4.67c0-0.257-0.093-0.514-0.28-0.711c-0.187-0.195-0.431-0.294-0.677-0.294
			h-1.418c-0.246,0-0.487,0.099-0.675,0.294c-0.187,0.197-0.279,0.452-0.279,0.711v5.772c0,0.255,0.093,0.513,0.279,0.709
			c0.188,0.196,0.434,0.293,0.675,0.293h10.246c0.248,0,0.489-0.097,0.676-0.293c0.188-0.196,0.28-0.452,0.28-0.709v-5.772
			c0-0.257-0.093-0.514-0.28-0.711C70.097,54.562,69.852,54.463,69.607,54.463z M43.502,54.463h-1.435
			c-0.244,0-0.489,0.099-0.677,0.294c-0.186,0.197-0.28,0.452-0.28,0.711v1.602h-2.029v-1.602c0-0.257-0.094-0.514-0.28-0.711
			c-0.186-0.195-0.431-0.294-0.676-0.294h-1.433c-0.243,0-0.488,0.099-0.675,0.294c-0.187,0.197-0.28,0.452-0.28,0.711v5.772
			c0,0.255,0.092,0.513,0.28,0.709s0.432,0.293,0.675,0.293h1.433c0.245,0,0.49-0.097,0.676-0.293s0.28-0.452,0.28-0.709v-1.73
			h2.029v1.73c0,0.255,0.094,0.513,0.28,0.709c0.187,0.196,0.433,0.293,0.677,0.293h1.435c0.246,0,0.489-0.097,0.676-0.293
			c0.187-0.196,0.28-0.452,0.28-0.709v-5.772c0-0.257-0.092-0.514-0.28-0.711C43.991,54.562,43.748,54.463,43.502,54.463z
			 M52.406,57.892c-0.709-0.347-1.693-0.527-2.931-0.527h-0.78v-1.9c0-0.255-0.097-0.512-0.282-0.707
			c-0.187-0.195-0.431-0.296-0.676-0.296h-1.239c-0.245,0-0.489,0.101-0.676,0.296c-0.186,0.195-0.281,0.452-0.281,0.707v5.776
			c0,0.255,0.094,0.511,0.281,0.709c0.187,0.196,0.431,0.293,0.676,0.293h2.977c1.211,0,2.17-0.201,2.905-0.613
			c0.719-0.406,1.08-1.059,1.08-1.966C53.46,58.826,53.107,58.226,52.406,57.892z M49.475,60.327h-0.78v-1.23h0.78
			c0.519,0.011,0.781,0.21,0.781,0.599C50.256,60.117,49.994,60.327,49.475,60.327z M88.286,55.492
			c-0.452-0.367-0.973-0.663-1.574-0.87c-0.581-0.211-1.221-0.315-1.909-0.315h-0.041c-0.701,0-1.34,0.104-1.94,0.315
			c-0.6,0.2-1.119,0.494-1.581,0.87c-0.45,0.378-0.812,0.819-1.062,1.312c-0.258,0.505-0.391,1.02-0.391,1.568
			c0,0.735,0.22,1.417,0.671,2.046c0.442,0.625,1.053,1.114,1.812,1.483c0.77,0.356,1.602,0.546,2.532,0.546
			c0.869-0.011,1.691-0.189,2.441-0.546c0.768-0.369,1.38-0.858,1.822-1.483c0.449-0.627,0.669-1.311,0.669-2.046
			c0-0.549-0.128-1.063-0.39-1.568C89.087,56.3,88.735,55.859,88.286,55.492z M84.762,59.985c-0.442,0-0.798-0.719-0.798-1.609
			c0-0.888,0.355-1.607,0.798-1.607c0.44,0,0.797,0.72,0.797,1.607C85.559,59.266,85.2,59.985,84.762,59.985z M56.344,54.463h-1.212
			c-0.244,0-0.488,0.099-0.675,0.294c-0.186,0.197-0.278,0.452-0.278,0.711v5.772c0,0.255,0.093,0.513,0.278,0.709
			c0.187,0.196,0.433,0.293,0.675,0.293h1.212c0.245,0,0.487-0.097,0.674-0.293c0.188-0.196,0.281-0.452,0.281-0.709v-5.772
			c0-0.257-0.094-0.514-0.281-0.711C56.832,54.562,56.589,54.463,56.344,54.463z M80.882,48.938c0.305,0,0.608-0.011,0.898-0.024
			c3.642-0.297,8.036-2.524,8.218-5.537l-0.013-0.418c-0.12-3.541-5.363-5.88-9.373-5.437c-4.006,0.443-7.762,2.487-8.537,6.491
			c-0.171,0.901,0.025,1.449,0.058,1.545C73.027,48.564,77.447,49.013,80.882,48.938z M80.882,40.927
			c1.504-0.136,2.896,0.398,3.34,1.449c0.59,1.399-1.198,3.133-3.34,3.603c-1.273,0.271-2.945-0.101-3.464-1.175
			C76.342,42.584,78.889,41.1,80.882,40.927z M44.027,36.629c0,0-0.696-0.328-1.136-0.246c-0.161,0.03-1.747,0.525-2.783,0.532
			c-1.692,0.01-11.536,0.037-12.873,7.769c-0.751,4.392,4.281,7.794,9.205,7.553c2.896-0.145,4.952-0.938,4.952-0.938
			s1.226-0.368,1.416-0.867c0.174-0.451,0.083-0.655-0.059-0.927c0,0-0.448-0.994-0.858-1.34c-0.41-0.348-1.563-0.118-1.563-0.118
			s-9.018,1.58-7.703-4.028c0.81-2.226,3.111-2.616,5.508-2.616c0.528,0,0.888,1.164,1.019,1.459
			c0.128,0.298,0.369,0.499,0.638,0.571l1.084,0.286c0.193,0.051,0.403,0.037,0.6-0.055c0.197-0.093,0.351-0.252,0.45-0.441
			l2.654-5.054c0.141-0.271,0.174-0.604,0.061-0.917C44.527,36.939,44.298,36.718,44.027,36.629z M70.631,39.135
			c1.462-0.071,0.958-2.387,0.85-2.666c-0.079-0.198-0.461-0.375-0.869-0.375l-6.821,0.001c-0.223-0.009-0.448,0.068-0.635,0.235
			c-0.186,0.167-0.686,0.728-0.488,1.6c0.133,0.605,0.292,0.952,0.857,1.231c0.959,0.398,0.544,1.579,0.544,1.579
			s-11.094-0.02-11.111,0c-0.116-0.94,0.098-1.199,0.748-1.925c0.65-0.726,0.758-1.15,0.618-1.669
			c-0.226-0.812-0.818-0.977-1.275-1.053c-0.456-0.077-5.445-0.039-6.189,0.06c-0.636,0.084-0.852,0.222-0.974,0.904
			c-0.165,0.922,0.197,1.629,0.625,2.024c0.429,0.395,1.221,0.428,1.64,1.629c0.418,1.203,1.655,5.89,1.547,7.043
			c-0.112,1.156-2.055,2.914-2.235,3.109c-0.177,0.197-0.273,0.451-0.283,0.71c0,0-0.082,0.988,0.242,1.395
			c0.214,0.268,0.429,0.323,0.675,0.329l8.121-0.053c0.242,0.004,0.5-0.074,0.671-0.287c0.363-0.445,0.322-1.33,0.322-1.33
			c0.007-0.25-0.065-0.505-0.22-0.713c-0.156-0.209-1.777-1.451-2.115-2.417c-0.342-0.967-0.917-4.12-0.917-4.12
			s9.439,0.039,9.617,0c0.186,0.185,0.713,2.947-2.018,3.509c-0.853,0.179-0.981,0.71-0.999,0.975c0,0-0.093,0.971,0.2,1.361
			c0.165,0.223,0.424,0.339,0.673,0.354l8.391-0.039c0.254,0.013,0.858,0.002,1.064-0.29c0.108-0.153,0.275-0.345,0.299-0.762
			c0.045-0.967-0.309-1.373-0.932-1.715c-0.577-0.317-1.894-0.497-2.298-2.019c-0.253-0.95,0.309-3.441,0.774-5.383
			C68.944,39.354,69.956,39.243,70.631,39.135z M10.891,49.8c0.138,0.169,0.323,0.297,0.542,0.334
			c0.449,0.074,0.907-0.277,0.907-0.277c0.213-0.125,0.385-0.338,0.464-0.611c0.767-1.343,6.417-4.313,6.549-4.223
			c0.131,0.09-0.399,1.84-0.552,2.379c-0.303,1.114-1.755,1.059-1.755,1.059c-0.244,0-0.45,0.038-0.634,0.149
			c-0.307,0.185-0.546,1.035-0.546,1.035c-0.085,0.284-0.063,0.604,0.09,0.881c0.151,0.276,0.397,0.446,0.667,0.494l1.89,0.333
			l4.2,0.742c0.241,0.043,0.48-0.04,0.712-0.188c0.319-0.207,0.451-1.183,0.451-1.183c0.04-0.282-0.024-0.582-0.199-0.822
			c-0.173-0.242-0.654-1.518-0.553-2.891c0.101-1.374,0.766-2.601,1.368-4.479c0.293-0.912,1.876-1.376,2.382-1.812
			c0.507-0.434,0.656-1.129,0.718-1.453c0.061-0.322,0.106-0.541,0.007-0.812c-0.099-0.271-0.289-0.473-0.516-0.579
			c0,0-4.537-1.926-7.168-2.079c-0.461-0.021-0.928-0.046-1.398-0.046c-2.693,0.012-5.804,0.372-6.845,3.678
			c-0.607,1.917,1.069,3.864,2.901,4.242c0,0-2.365,2.524-4.464,1.656c-0.225-0.053-0.5-0.059-0.83,0.115
			c-0.33,0.171-1.004,0.536-0.965,0.877c-0.028,0.167,0.019,0.331,0.114,0.448L10.891,49.8z M18.517,38.755
			c0.43,0.056,0.898,0.166,1.398,0.364l1.312,0.52l-0.65,2.183c0,0-1.292,0.044-2.062,0c-0.771-0.044-2.794-0.285-2.713-1.66
			C15.869,39.07,16.981,38.578,18.517,38.755z"/>
	</g>
</g>
</svg>
