<?xml version="1.0" encoding="utf-8"?>
<!-- Generator: Adobe Illustrator 15.0.2, SVG Export Plug-In . SVG Version: 6.00 Build 0)  -->
<!DOCTYPE svg PUBLIC "-//W3C//DTD SVG 1.1//EN" "http://www.w3.org/Graphics/SVG/1.1/DTD/svg11.dtd">
<svg version="1.1" id="Layer_1" xmlns="http://www.w3.org/2000/svg" xmlns:xlink="http://www.w3.org/1999/xlink" x="0px" y="0px"
	 width="100px" height="100px" viewBox="0 0 100 100" enable-background="new 0 0 100 100" xml:space="preserve">
<g>
	<path fill="#ADADAD" d="M3.071,54.277c0,1.549-0.14,2.677-0.42,3.386h1.935v-3.386H3.071z M2.092,53.424h3.519v4.239h0.448v1.966
		H5.204v-1.111H1.998v1.111H1.143v-1.966h0.432c0.21-0.437,0.349-0.942,0.417-1.517c0.067-0.576,0.101-1.305,0.101-2.185
		L2.092,53.424L2.092,53.424z"/>
	<polygon fill="#ADADAD" points="7.177,53.424 8.14,53.424 8.14,56.814 10.204,53.424 11.229,53.424 11.229,58.518 10.266,58.518 
		10.266,55.191 8.206,58.518 7.177,58.518 	"/>
	<path fill="#ADADAD" d="M13.562,54.285v1.445h0.563c0.405,0,0.677-0.026,0.813-0.08c0.136-0.053,0.243-0.137,0.321-0.25
		c0.078-0.112,0.117-0.246,0.117-0.396c0-0.187-0.055-0.338-0.164-0.458c-0.108-0.12-0.246-0.195-0.413-0.227
		c-0.123-0.022-0.369-0.035-0.741-0.035H13.562z M12.533,58.518v-5.094h1.651c0.625,0,1.033,0.026,1.222,0.076
		c0.292,0.076,0.536,0.243,0.733,0.499c0.197,0.256,0.296,0.586,0.296,0.992c0,0.313-0.057,0.575-0.17,0.788
		c-0.113,0.215-0.257,0.381-0.433,0.503c-0.176,0.12-0.353,0.2-0.533,0.241c-0.246,0.047-0.601,0.072-1.067,0.072h-0.67v1.922
		H12.533L12.533,58.518z"/>
	<polygon fill="#ADADAD" points="17.225,58.518 17.225,53.424 21,53.424 21,54.285 18.252,54.285 18.252,55.415 20.81,55.415 
		20.81,56.273 18.252,56.273 18.252,57.659 21.097,57.659 21.097,58.518 	"/>
	<path fill="#ADADAD" d="M22.077,53.424h1.028v2.168c0.23-0.021,0.384-0.083,0.466-0.177c0.081-0.097,0.206-0.358,0.375-0.793
		c0.212-0.552,0.428-0.894,0.643-1.026c0.213-0.136,0.556-0.203,1.031-0.203c0.023,0,0.074,0,0.15-0.004v0.762l-0.146-0.002
		c-0.21,0-0.365,0.025-0.462,0.078c-0.097,0.051-0.176,0.131-0.236,0.236c-0.061,0.105-0.149,0.325-0.268,0.656
		c-0.063,0.177-0.13,0.322-0.203,0.441c-0.073,0.117-0.202,0.229-0.388,0.334c0.229,0.063,0.419,0.195,0.568,0.394
		c0.15,0.194,0.313,0.474,0.492,0.832l0.695,1.397h-1.209L24.006,57.2c-0.009-0.019-0.028-0.054-0.059-0.106
		c-0.012-0.019-0.055-0.1-0.128-0.24c-0.132-0.25-0.24-0.406-0.325-0.47c-0.085-0.062-0.213-0.094-0.388-0.096v2.229h-1.028
		L22.077,53.424L22.077,53.424z"/>
	<polygon fill="#ADADAD" points="26.6,53.424 27.628,53.424 27.628,57.663 29.623,57.663 29.623,53.424 30.65,53.424 30.65,57.663 
		31.075,57.663 31.075,59.629 30.22,59.629 30.22,58.518 26.6,58.518 	"/>
	<polygon fill="#ADADAD" points="32.132,53.424 33.094,53.424 33.094,56.814 35.158,53.424 36.184,53.424 36.184,58.518 
		35.221,58.518 35.221,55.191 33.161,58.518 32.132,58.518 	"/>
	<path fill="#ADADAD" d="M40.538,54.285h-0.803c-0.408,0-0.676,0.01-0.805,0.027c-0.129,0.019-0.239,0.082-0.332,0.188
		c-0.092,0.104-0.139,0.245-0.139,0.416c0,0.179,0.045,0.321,0.134,0.426c0.089,0.105,0.203,0.171,0.34,0.196
		c0.138,0.025,0.419,0.038,0.843,0.038h0.761L40.538,54.285L40.538,54.285z M40.538,58.518v-2.125h-0.209
		c-0.324,0-0.552,0.047-0.685,0.146c-0.133,0.098-0.362,0.388-0.684,0.872l-0.744,1.107h-1.229l0.621-0.994
		c0.246-0.393,0.442-0.668,0.587-0.828c0.146-0.157,0.329-0.301,0.549-0.424c-0.474-0.076-0.817-0.239-1.027-0.496
		c-0.211-0.256-0.316-0.563-0.316-0.92c0-0.311,0.078-0.586,0.235-0.824c0.156-0.24,0.362-0.399,0.618-0.483
		c0.256-0.082,0.639-0.123,1.148-0.123h2.165v5.095h-1.029V58.518z"/>
	<polygon fill="#ADADAD" points="45.305,53.424 49.356,53.424 49.356,58.518 48.328,58.518 48.328,54.277 46.333,54.277 
		46.333,58.518 45.305,58.518 	"/>
	<path fill="#ADADAD" d="M51.3,55.968c0,0.577,0.134,1.013,0.399,1.312s0.604,0.447,1.015,0.447c0.409,0,0.747-0.147,1.011-0.443
		c0.262-0.297,0.394-0.737,0.394-1.328c0-0.584-0.128-1.02-0.386-1.309c-0.254-0.287-0.596-0.43-1.019-0.43
		c-0.425,0-0.767,0.145-1.024,0.436C51.43,54.943,51.3,55.381,51.3,55.968 M50.24,56.003c0-0.521,0.077-0.956,0.232-1.308
		c0.115-0.26,0.273-0.491,0.475-0.697c0.199-0.207,0.419-0.359,0.658-0.46c0.315-0.134,0.683-0.2,1.097-0.2
		c0.752,0,1.353,0.232,1.803,0.698c0.449,0.466,0.677,1.11,0.677,1.942c0,0.821-0.226,1.465-0.672,1.93
		c-0.447,0.464-1.044,0.695-1.794,0.695c-0.757,0-1.358-0.23-1.805-0.692C50.463,57.449,50.24,56.813,50.24,56.003"/>
	<path fill="#ADADAD" d="M59.159,54.285v1.445h0.562c0.406,0,0.678-0.026,0.813-0.08c0.136-0.053,0.243-0.137,0.321-0.25
		c0.078-0.112,0.115-0.246,0.115-0.396c0-0.187-0.055-0.338-0.162-0.458c-0.109-0.12-0.246-0.195-0.414-0.227
		c-0.123-0.022-0.369-0.035-0.74-0.035H59.159z M58.13,58.518v-5.094h1.649c0.625,0,1.033,0.026,1.225,0.076
		c0.291,0.076,0.536,0.243,0.73,0.499c0.199,0.256,0.297,0.586,0.297,0.992c0,0.313-0.057,0.575-0.17,0.788
		c-0.114,0.215-0.258,0.381-0.434,0.503c-0.175,0.12-0.353,0.2-0.533,0.241c-0.244,0.047-0.602,0.072-1.064,0.072h-0.671v1.922
		H58.13L58.13,58.518z"/>
	<path fill="#ADADAD" d="M65.1,56.503l-0.703-1.892l-0.687,1.892H65.1z M66.993,58.518h-1.118l-0.445-1.156h-2.035l-0.42,1.156
		h-1.092l1.983-5.094h1.087L66.993,58.518z"/>
	<path fill="#ADADAD" d="M68.414,54.814l-1-0.234c0.215-0.828,0.827-1.242,1.837-1.242c0.599,0,1.05,0.13,1.354,0.395
		c0.306,0.263,0.457,0.572,0.457,0.926c0,0.244-0.069,0.463-0.209,0.658s-0.348,0.367-0.625,0.517
		c0.338,0.115,0.592,0.278,0.761,0.491c0.17,0.212,0.254,0.475,0.254,0.783c0,0.447-0.164,0.81-0.491,1.084
		c-0.327,0.275-0.818,0.412-1.473,0.412c-0.532,0-0.952-0.088-1.26-0.265c-0.31-0.178-0.541-0.509-0.695-0.995l0.941-0.31
		c0.096,0.307,0.227,0.503,0.387,0.596c0.162,0.088,0.359,0.134,0.596,0.134c0.325,0,0.563-0.068,0.71-0.211
		c0.147-0.139,0.224-0.3,0.224-0.479c0-0.208-0.086-0.376-0.252-0.503c-0.169-0.129-0.422-0.192-0.761-0.192h-0.231v-0.769h0.117
		c0.315,0,0.557-0.07,0.723-0.213c0.168-0.141,0.252-0.328,0.252-0.563c0-0.186-0.068-0.342-0.204-0.47
		c-0.138-0.128-0.329-0.189-0.582-0.189C68.813,54.176,68.535,54.389,68.414,54.814"/>
	<path fill="#ADADAD" d="M73.328,56.298v1.361h0.951c0.371,0,0.605-0.011,0.705-0.03c0.152-0.027,0.277-0.097,0.373-0.203
		c0.097-0.107,0.145-0.254,0.145-0.435c0-0.152-0.036-0.282-0.111-0.39c-0.072-0.105-0.181-0.184-0.32-0.231
		c-0.141-0.048-0.443-0.072-0.912-0.072H73.328z M73.328,54.271v1.179h0.673c0.401,0,0.649-0.007,0.747-0.019
		c0.177-0.021,0.314-0.082,0.416-0.183c0.1-0.103,0.15-0.231,0.15-0.397c0-0.156-0.045-0.285-0.131-0.384
		c-0.088-0.1-0.216-0.159-0.388-0.18c-0.103-0.011-0.396-0.017-0.879-0.017H73.328L73.328,54.271z M72.298,53.424h2.037
		c0.401,0,0.703,0.018,0.901,0.051c0.197,0.034,0.375,0.104,0.531,0.211c0.155,0.105,0.285,0.248,0.391,0.426
		s0.156,0.375,0.156,0.597c0,0.237-0.063,0.456-0.191,0.656c-0.129,0.198-0.305,0.349-0.523,0.448
		c0.311,0.09,0.549,0.244,0.715,0.461c0.168,0.219,0.252,0.475,0.252,0.769c0,0.231-0.055,0.456-0.162,0.676
		s-0.256,0.396-0.44,0.524c-0.187,0.131-0.417,0.212-0.69,0.242c-0.17,0.018-0.584,0.029-1.239,0.033H72.3v-5.094H72.298z"/>
	<polygon fill="#ADADAD" points="77.598,53.424 78.561,53.424 78.561,56.814 80.624,53.424 81.648,53.424 81.648,58.518 
		80.686,58.518 80.686,55.191 78.626,58.518 77.598,58.518 	"/>
	<polygon fill="#ADADAD" points="83.994,58.518 83.994,54.285 82.482,54.285 82.482,53.424 86.529,53.424 86.529,54.285 
		85.021,54.285 85.021,58.518 	"/>
	<polygon fill="#ADADAD" points="87.357,53.424 88.318,53.424 88.318,56.814 90.383,53.424 91.408,53.424 91.408,58.518 
		90.445,58.518 90.445,55.191 88.386,58.518 87.357,58.518 	"/>
	<path fill="#ADADAD" d="M95.495,55.979c0,0.565,0.112,1,0.337,1.308s0.54,0.461,0.947,0.461c0.421,0,0.734-0.151,0.943-0.456
		c0.209-0.307,0.313-0.762,0.313-1.371c0-0.584-0.121-1.012-0.362-1.281c-0.242-0.271-0.552-0.406-0.931-0.406
		c-0.367,0-0.667,0.137-0.9,0.412C95.611,54.917,95.495,55.361,95.495,55.979 M92.609,53.424h1.029v2.127h0.826
		c0.061-0.628,0.281-1.152,0.663-1.578c0.384-0.425,0.938-0.635,1.668-0.635c0.702,0,1.261,0.227,1.675,0.682
		c0.414,0.453,0.622,1.102,0.622,1.944c0,0.552-0.091,1.021-0.271,1.413c-0.18,0.391-0.436,0.691-0.766,0.905
		c-0.33,0.215-0.74,0.321-1.232,0.321c-0.5,0-0.896-0.078-1.192-0.235c-0.295-0.157-0.553-0.412-0.774-0.765
		s-0.352-0.752-0.392-1.199h-0.825v2.113h-1.031V53.424z"/>
	<polygon fill="#ADADAD" points="2.651,66.66 2.651,62.43 1.14,62.43 1.14,61.566 5.187,61.566 5.187,62.43 3.68,62.43 3.68,66.66 	
		"/>
	<path fill="#ADADAD" d="M6.88,62.43v1.444h0.562c0.406,0,0.677-0.026,0.813-0.079c0.137-0.054,0.244-0.138,0.321-0.251
		c0.077-0.112,0.117-0.245,0.117-0.396c0-0.187-0.055-0.34-0.164-0.459c-0.109-0.121-0.247-0.196-0.414-0.226
		c-0.123-0.022-0.369-0.036-0.74-0.036H6.88V62.43z M5.851,66.66v-5.094h1.65c0.626,0,1.034,0.026,1.224,0.078
		c0.292,0.074,0.536,0.242,0.733,0.498c0.197,0.256,0.294,0.586,0.294,0.991c0,0.313-0.057,0.576-0.17,0.789
		c-0.114,0.212-0.257,0.38-0.433,0.501c-0.175,0.122-0.353,0.203-0.532,0.241c-0.247,0.049-0.602,0.073-1.067,0.073H6.88v1.921
		L5.851,66.66L5.851,66.66z"/>
	<path fill="#ADADAD" d="M12.672,64.646l-0.702-1.893l-0.688,1.893H12.672z M14.565,66.66h-1.119l-0.445-1.156h-2.036l-0.421,1.156
		h-1.09l1.984-5.094h1.088L14.565,66.66z"/>
	<polygon fill="#ADADAD" points="15.114,66.66 15.114,61.566 16.143,61.566 16.143,63.572 18.158,63.572 18.158,61.566 
		19.187,61.566 19.187,66.66 18.158,66.66 18.158,64.434 16.143,64.434 16.143,66.66 	"/>
	<path fill="#ADADAD" d="M23.508,64.789l0.997,0.314c-0.153,0.557-0.407,0.971-0.763,1.239c-0.355,0.271-0.806,0.404-1.353,0.404
		c-0.676,0-1.232-0.231-1.668-0.692c-0.436-0.463-0.653-1.095-0.653-1.896c0-0.848,0.219-1.506,0.657-1.975
		c0.437-0.471,1.013-0.705,1.727-0.705c0.623,0,1.129,0.186,1.518,0.553c0.232,0.219,0.406,0.531,0.521,0.939l-1.018,0.242
		c-0.061-0.265-0.186-0.474-0.377-0.626c-0.19-0.151-0.422-0.229-0.696-0.229c-0.378,0-0.684,0.135-0.919,0.406
		s-0.353,0.711-0.353,1.316c0,0.645,0.116,1.104,0.348,1.376c0.231,0.272,0.532,0.41,0.902,0.41c0.274,0,0.509-0.087,0.706-0.261
		C23.281,65.432,23.423,65.162,23.508,64.789"/>
	<polygon fill="#ADADAD" points="25.402,61.566 29.453,61.566 29.453,66.66 28.425,66.66 28.425,62.422 26.43,62.422 26.43,66.66 
		25.402,66.66 	"/>
	<path fill="#ADADAD" d="M31.354,64.109c0,0.578,0.133,1.015,0.4,1.313c0.266,0.298,0.604,0.446,1.014,0.446
		s0.747-0.148,1.009-0.443c0.263-0.296,0.395-0.738,0.395-1.328c0-0.582-0.128-1.021-0.384-1.308
		c-0.256-0.286-0.596-0.431-1.021-0.431c-0.423,0-0.766,0.146-1.025,0.437C31.483,63.086,31.354,63.525,31.354,64.109
		 M30.294,64.145c0-0.519,0.077-0.951,0.232-1.307c0.116-0.259,0.274-0.49,0.476-0.695c0.2-0.207,0.419-0.36,0.658-0.459
		c0.317-0.136,0.684-0.203,1.098-0.203c0.751,0,1.351,0.233,1.802,0.699c0.45,0.467,0.676,1.112,0.676,1.942
		c0,0.821-0.224,1.465-0.67,1.929c-0.447,0.465-1.044,0.697-1.793,0.697c-0.757,0-1.359-0.232-1.807-0.693
		C30.517,65.593,30.294,64.956,30.294,64.145"/>
	<path fill="#ADADAD" d="M37.065,62.43v1.444h0.563c0.405,0,0.677-0.026,0.813-0.079c0.137-0.054,0.244-0.138,0.321-0.251
		c0.077-0.112,0.116-0.245,0.116-0.396c0-0.187-0.054-0.34-0.164-0.459c-0.109-0.121-0.247-0.196-0.413-0.226
		c-0.123-0.022-0.37-0.036-0.741-0.036h-0.495V62.43z M36.037,66.66v-5.094h1.65c0.626,0,1.033,0.026,1.223,0.078
		c0.292,0.074,0.536,0.242,0.733,0.498c0.197,0.256,0.295,0.586,0.295,0.991c0,0.313-0.056,0.576-0.169,0.789
		c-0.114,0.212-0.258,0.38-0.433,0.501c-0.175,0.122-0.353,0.203-0.533,0.241c-0.245,0.049-0.602,0.073-1.067,0.073h-0.671v1.921
		L36.037,66.66L36.037,66.66z"/>
	<polygon fill="#ADADAD" points="41.836,66.66 41.836,62.43 40.325,62.43 40.325,61.566 44.373,61.566 44.373,62.43 42.864,62.43 
		42.864,66.66 	"/>
	<polygon fill="#ADADAD" points="45.04,66.66 45.04,61.566 46.068,61.566 46.068,63.572 48.083,63.572 48.083,61.566 49.112,61.566 
		49.112,66.66 48.083,66.66 48.083,64.434 46.068,64.434 46.068,66.66 	"/>
	<path fill="#ADADAD" d="M51.025,64.109c0,0.578,0.134,1.015,0.399,1.313c0.267,0.298,0.604,0.446,1.015,0.446
		c0.412,0,0.748-0.148,1.011-0.443c0.263-0.296,0.396-0.738,0.396-1.328c0-0.582-0.129-1.021-0.385-1.308
		c-0.257-0.286-0.597-0.431-1.021-0.431c-0.424,0-0.767,0.146-1.024,0.437C51.154,63.086,51.025,63.525,51.025,64.109
		 M49.967,64.145c0-0.519,0.077-0.951,0.231-1.307c0.117-0.259,0.275-0.49,0.476-0.695c0.2-0.207,0.419-0.36,0.659-0.459
		c0.315-0.136,0.683-0.203,1.097-0.203c0.752,0,1.352,0.233,1.803,0.699c0.449,0.467,0.677,1.112,0.677,1.942
		c0,0.821-0.226,1.465-0.671,1.929c-0.448,0.465-1.045,0.697-1.793,0.697c-0.758,0-1.36-0.232-1.807-0.693
		C50.189,65.593,49.967,64.956,49.967,64.145"/>
	<path fill="#ADADAD" d="M58.364,60.3h0.476c-0.027,0.313-0.138,0.563-0.331,0.742c-0.194,0.179-0.444,0.269-0.753,0.269
		c-0.308,0-0.559-0.09-0.752-0.269c-0.193-0.181-0.305-0.429-0.332-0.742h0.477c0.018,0.164,0.074,0.289,0.174,0.373
		c0.101,0.085,0.244,0.127,0.435,0.127s0.335-0.042,0.435-0.127C58.29,60.589,58.348,60.464,58.364,60.3 M55.723,61.566h0.963v3.392
		l2.064-3.392h1.025v5.094h-0.963v-3.324l-2.062,3.324h-1.028V61.566L55.723,61.566z"/>
	<path fill="#ADADAD" d="M66.061,64.789l0.996,0.314c-0.15,0.557-0.406,0.971-0.762,1.239c-0.355,0.271-0.809,0.404-1.354,0.404
		c-0.678,0-1.232-0.231-1.668-0.692c-0.437-0.463-0.653-1.095-0.653-1.896c0-0.848,0.219-1.506,0.657-1.975
		c0.438-0.471,1.014-0.705,1.727-0.705c0.624,0,1.13,0.186,1.52,0.553c0.23,0.219,0.404,0.531,0.521,0.939l-1.019,0.242
		c-0.06-0.265-0.186-0.474-0.375-0.626c-0.192-0.151-0.426-0.229-0.697-0.229c-0.377,0-0.686,0.135-0.919,0.406
		c-0.235,0.271-0.354,0.711-0.354,1.316c0,0.645,0.117,1.104,0.348,1.376c0.231,0.272,0.533,0.41,0.902,0.41
		c0.274,0,0.512-0.087,0.707-0.261C65.833,65.432,65.975,65.162,66.061,64.789"/>
	<polygon fill="#ADADAD" points="67.954,61.566 68.916,61.566 68.916,64.958 70.979,61.566 72.006,61.566 72.006,66.66 
		71.042,66.66 71.042,63.336 68.98,66.66 67.954,66.66 	"/>
	<path fill="#ADADAD" d="M76.313,64.789l0.998,0.314c-0.153,0.557-0.408,0.971-0.764,1.239s-0.807,0.404-1.354,0.404
		c-0.678,0-1.232-0.231-1.668-0.692c-0.436-0.463-0.653-1.095-0.653-1.896c0-0.848,0.22-1.506,0.657-1.975
		c0.437-0.471,1.014-0.705,1.727-0.705c0.623,0,1.13,0.186,1.52,0.553c0.23,0.219,0.406,0.531,0.521,0.939l-1.02,0.242
		c-0.06-0.265-0.186-0.474-0.377-0.626c-0.189-0.151-0.424-0.229-0.694-0.229c-0.379,0-0.685,0.135-0.921,0.406
		c-0.234,0.271-0.354,0.711-0.354,1.316c0,0.645,0.116,1.104,0.35,1.376c0.23,0.272,0.531,0.41,0.902,0.41
		c0.273,0,0.51-0.087,0.705-0.261C76.086,65.436,76.229,65.162,76.313,64.789"/>
	<polygon fill="#ADADAD" points="79.163,66.66 79.163,62.43 77.65,62.43 77.65,61.566 81.699,61.566 81.699,62.43 80.189,62.43 
		80.189,66.66 	"/>
	<polygon fill="#ADADAD" points="82.363,66.66 82.363,61.566 86.139,61.566 86.139,62.43 83.393,62.43 83.393,63.559 85.948,63.559 
		85.948,64.416 83.393,64.416 83.393,65.803 86.236,65.803 86.236,66.66 	"/>
	<polygon fill="#ADADAD" points="87.134,66.66 87.134,61.566 88.672,61.566 89.596,65.042 90.512,61.566 92.053,61.566 
		92.053,66.66 91.098,66.66 91.098,62.652 90.086,66.66 89.096,66.66 88.088,62.652 88.088,66.66 	"/>
	<path fill="#ADADAD" d="M97.906,61.566h1.029v5.094h-1.029V61.566z M94.191,65.807h1.004c0.32,0,0.543-0.017,0.671-0.048
		c0.126-0.03,0.237-0.103,0.337-0.213c0.098-0.11,0.146-0.246,0.146-0.407c0-0.227-0.08-0.396-0.24-0.511
		c-0.162-0.112-0.451-0.17-0.871-0.17h-1.047V65.807z M93.164,61.566h1.027v2.035h1.377c0.361,0,0.673,0.051,0.933,0.148
		c0.261,0.1,0.479,0.275,0.651,0.527c0.174,0.255,0.261,0.546,0.261,0.875c0,0.345-0.09,0.642-0.271,0.891
		c-0.182,0.249-0.383,0.415-0.603,0.495c-0.222,0.082-0.545,0.121-0.972,0.121h-2.404V61.566z"/>
	<path fill="#ADADAD" d="M2.87,71.7l0.504,0.159c-0.077,0.281-0.206,0.488-0.385,0.625c-0.179,0.138-0.407,0.205-0.684,0.205
		c-0.341,0-0.623-0.116-0.842-0.351c-0.22-0.233-0.331-0.553-0.331-0.957c0-0.43,0.111-0.762,0.333-0.998
		c0.221-0.237,0.512-0.354,0.872-0.354c0.315,0,0.571,0.093,0.768,0.279c0.117,0.108,0.206,0.269,0.264,0.473l-0.515,0.123
		c-0.03-0.133-0.093-0.238-0.19-0.314c-0.097-0.078-0.214-0.115-0.352-0.115c-0.19,0-0.346,0.067-0.464,0.205
		c-0.119,0.137-0.178,0.356-0.178,0.664c0,0.326,0.059,0.559,0.176,0.694c0.117,0.14,0.269,0.208,0.456,0.208
		c0.138,0,0.256-0.044,0.356-0.132C2.758,72.025,2.827,71.889,2.87,71.7"/>
	<path fill="#ADADAD" d="M5.245,71.628l-0.354-0.954l-0.348,0.954H5.245z M6.202,72.646H5.636l-0.224-0.584H4.384l-0.213,0.584H3.62
		l1.002-2.572h0.549L6.202,72.646z"/>
	<polygon fill="#ADADAD" points="6.63,72.646 6.63,70.073 7.15,70.073 7.15,71.086 8.168,71.086 8.168,70.073 8.688,70.073 
		8.688,72.646 8.168,72.646 8.168,71.521 7.15,71.521 7.15,72.646 	"/>
	<path fill="#ADADAD" d="M9.385,70.073h0.52v1.095c0.115-0.012,0.194-0.041,0.235-0.089c0.041-0.05,0.104-0.183,0.189-0.399
		c0.108-0.279,0.215-0.453,0.325-0.521c0.107-0.066,0.282-0.101,0.521-0.101c0.012,0,0.037-0.002,0.076-0.002v0.383l-0.074-0.002
		c-0.106,0-0.184,0.015-0.234,0.041c-0.049,0.024-0.088,0.065-0.119,0.121c-0.03,0.053-0.075,0.162-0.135,0.33
		c-0.031,0.09-0.066,0.163-0.102,0.225c-0.038,0.06-0.103,0.115-0.196,0.166c0.115,0.033,0.211,0.1,0.287,0.199
		c0.075,0.101,0.159,0.239,0.249,0.422l0.351,0.705h-0.611l-0.308-0.664c-0.004-0.01-0.015-0.028-0.029-0.056
		c-0.006-0.009-0.028-0.05-0.065-0.12c-0.066-0.127-0.122-0.207-0.165-0.238c-0.042-0.03-0.108-0.047-0.195-0.049v1.127h-0.52
		V70.073z"/>
	<polygon fill="#ADADAD" points="12.39,72.646 12.39,70.508 11.626,70.508 11.626,70.073 13.671,70.073 13.671,70.508 12.91,70.508 
		12.91,72.646 	"/>
	<rect x="13.864" y="71.467" fill="#ADADAD" width="0.97" height="0.493"/>
	<polygon fill="#ADADAD" points="15.513,70.073 17.56,70.073 17.56,72.646 17.04,72.646 17.04,70.504 16.033,70.504 16.033,72.646 
		15.513,72.646 	"/>
	<polygon fill="#ADADAD" points="18.241,72.646 18.241,70.073 20.149,70.073 20.149,70.508 18.761,70.508 18.761,71.079 
		20.052,71.079 20.052,71.514 18.761,71.514 18.761,72.213 20.198,72.213 20.198,72.646 	"/>
	<polygon fill="#ADADAD" points="21.368,72.646 21.368,70.508 20.605,70.508 20.605,70.073 22.651,70.073 22.651,70.508 
		21.888,70.508 21.888,72.646 	"/>
	<polygon fill="#ADADAD" points="23.136,72.646 23.136,70.073 25.045,70.073 25.045,70.508 23.656,70.508 23.656,71.079 
		24.948,71.079 24.948,71.514 23.656,71.514 23.656,72.213 25.094,72.213 25.094,72.646 	"/>
	<path fill="#ADADAD" d="M26.205,70.508v0.73h0.284c0.205,0,0.342-0.014,0.412-0.04c0.069-0.026,0.123-0.068,0.161-0.128
		c0.04-0.057,0.06-0.122,0.06-0.198c0-0.095-0.028-0.172-0.083-0.231c-0.056-0.061-0.125-0.1-0.209-0.115
		c-0.062-0.012-0.187-0.018-0.375-0.018H26.205z M25.686,72.646v-2.572h0.834c0.316,0,0.521,0.013,0.618,0.037
		c0.147,0.039,0.271,0.123,0.371,0.254c0.099,0.128,0.148,0.295,0.148,0.501c0,0.155-0.028,0.29-0.085,0.397
		c-0.059,0.107-0.13,0.191-0.219,0.254c-0.089,0.062-0.178,0.103-0.27,0.121c-0.124,0.025-0.303,0.037-0.539,0.037h-0.339v0.971
		H25.686z"/>
	<path fill="#ADADAD" d="M28.765,72.215h0.505c0.163,0,0.275-0.008,0.341-0.021c0.066-0.018,0.123-0.055,0.171-0.11
		c0.049-0.056,0.073-0.124,0.073-0.207c0-0.119-0.042-0.205-0.127-0.26c-0.084-0.056-0.229-0.082-0.434-0.082h-0.528L28.765,72.215
		L28.765,72.215z M28.245,70.073h1.924v0.431h-1.404v0.598h0.695c0.191,0,0.352,0.023,0.477,0.07
		c0.127,0.047,0.234,0.133,0.324,0.26c0.09,0.127,0.134,0.274,0.134,0.443c0,0.175-0.044,0.325-0.135,0.448
		c-0.09,0.124-0.192,0.209-0.308,0.255c-0.116,0.045-0.279,0.066-0.493,0.066h-1.215L28.245,70.073L28.245,70.073z"/>
	<path fill="#ADADAD" d="M30.619,70.073h0.58l0.601,1.336l0.512-1.336h0.542l-0.869,1.954c-0.095,0.213-0.191,0.373-0.29,0.484
		c-0.098,0.109-0.226,0.166-0.381,0.166c-0.153,0-0.274-0.011-0.359-0.031v-0.385c0.073,0.004,0.14,0.008,0.2,0.008
		c0.121,0,0.206-0.022,0.259-0.065c0.051-0.045,0.102-0.14,0.15-0.284L30.619,70.073z"/>
	<path fill="#ADADAD" d="M33.787,70.508v0.73h0.285c0.204,0,0.341-0.014,0.411-0.04c0.069-0.026,0.123-0.068,0.162-0.128
		c0.04-0.057,0.06-0.122,0.06-0.198c0-0.095-0.028-0.172-0.083-0.231c-0.055-0.061-0.125-0.1-0.209-0.115
		c-0.063-0.012-0.187-0.018-0.374-0.018H33.787z M33.268,72.646v-2.572h0.833c0.316,0,0.521,0.013,0.619,0.037
		c0.147,0.039,0.271,0.123,0.37,0.254c0.099,0.128,0.149,0.295,0.149,0.501c0,0.155-0.029,0.29-0.086,0.397
		c-0.057,0.107-0.13,0.191-0.219,0.254c-0.089,0.062-0.179,0.103-0.269,0.121c-0.125,0.025-0.304,0.037-0.539,0.037h-0.339v0.971
		H33.268z"/>
	<polygon fill="#ADADAD" points="35.842,70.073 37.585,70.073 37.585,70.504 36.362,70.504 36.362,72.646 35.842,72.646 	"/>
	<path fill="#ADADAD" d="M39.143,71.628l-0.355-0.954l-0.347,0.954H39.143z M40.099,72.646h-0.565l-0.225-0.584H38.28l-0.212,0.584
		h-0.551l1.002-2.572h0.549L40.099,72.646z"/>
	<polygon fill="#ADADAD" points="41.683,70.073 42.169,70.073 42.169,71.786 43.211,70.073 43.729,70.073 43.729,72.646 
		43.243,72.646 43.243,70.966 42.202,72.646 41.683,72.646 	"/>
	<path fill="#ADADAD" d="M45.745,70.073h1.802v2.571h-0.519v-2.138h-0.773v1.101c0,0.314-0.011,0.533-0.033,0.658
		c-0.021,0.125-0.072,0.223-0.153,0.291c-0.081,0.069-0.208,0.104-0.382,0.104c-0.061,0-0.171-0.007-0.332-0.019v-0.4l0.116,0.001
		c0.109,0,0.182-0.015,0.219-0.043c0.038-0.029,0.057-0.103,0.057-0.218l-0.002-0.441V70.073z"/>
	<polygon fill="#ADADAD" points="48.234,72.646 48.234,70.073 50.142,70.073 50.142,70.508 48.753,70.508 48.753,71.079 
		50.045,71.079 50.045,71.514 48.753,71.514 48.753,72.213 50.19,72.213 50.19,72.646 	"/>
	<polygon fill="#ADADAD" points="50.785,72.646 50.785,70.073 51.305,70.073 51.305,71.086 52.322,71.086 52.322,70.073 
		52.842,70.073 52.842,72.646 52.322,72.646 52.322,71.521 51.305,71.521 51.305,72.646 	"/>
	<polygon fill="#ADADAD" points="53.536,70.073 54.023,70.073 54.023,71.786 55.064,70.073 55.584,70.073 55.584,72.646 
		55.098,72.646 55.098,70.966 54.057,72.646 53.536,72.646 	"/>
	<polygon fill="#ADADAD" points="56.266,72.646 56.266,70.073 56.785,70.073 56.785,71.086 57.805,71.086 57.805,70.073 
		58.323,70.073 58.323,72.646 57.805,72.646 57.805,71.521 56.785,71.521 56.785,72.646 	"/>
	<polygon fill="#ADADAD" points="59.038,70.073 60.781,70.073 60.781,70.504 59.559,70.504 59.559,72.646 59.038,72.646 	"/>
	<path fill="#ADADAD" d="M61.721,70.508v0.73h0.283c0.206,0,0.344-0.014,0.411-0.04c0.069-0.026,0.123-0.068,0.163-0.128
		c0.038-0.057,0.059-0.122,0.059-0.198c0-0.095-0.027-0.172-0.082-0.231c-0.056-0.061-0.125-0.1-0.209-0.115
		c-0.063-0.012-0.188-0.018-0.373-0.018H61.721z M61.2,72.646v-2.572h0.834c0.315,0,0.522,0.013,0.618,0.037
		c0.146,0.039,0.271,0.123,0.371,0.254c0.1,0.128,0.147,0.295,0.147,0.501c0,0.155-0.028,0.29-0.086,0.397s-0.129,0.191-0.218,0.254
		c-0.088,0.062-0.178,0.103-0.27,0.121c-0.123,0.025-0.305,0.037-0.539,0.037h-0.34v0.971H61.2z"/>
	<path fill="#ADADAD" d="M64.798,71.628l-0.354-0.954l-0.348,0.954H64.798z M65.755,72.646h-0.565l-0.225-0.584h-1.029l-0.211,0.584
		h-0.553l1.003-2.572h0.55L65.755,72.646z"/>
	<path fill="#ADADAD" d="M67.018,70.504c0,0.782-0.07,1.352-0.213,1.711h0.979v-1.711H67.018z M66.521,70.073H68.3v2.142h0.226
		v0.993h-0.433v-0.563h-1.618v0.563h-0.434v-0.993h0.218c0.106-0.22,0.179-0.476,0.212-0.767c0.032-0.291,0.051-0.659,0.051-1.103
		V70.073z"/>
	<path fill="#ADADAD" d="M70.674,71.7l0.504,0.159c-0.078,0.281-0.205,0.488-0.386,0.625c-0.181,0.138-0.407,0.205-0.685,0.205
		c-0.342,0-0.623-0.116-0.842-0.351c-0.221-0.233-0.332-0.553-0.332-0.957c0-0.43,0.111-0.762,0.332-0.998
		c0.224-0.237,0.512-0.354,0.875-0.354c0.313,0,0.568,0.093,0.766,0.279c0.117,0.108,0.205,0.269,0.265,0.473l-0.517,0.123
		c-0.029-0.133-0.094-0.238-0.188-0.314c-0.097-0.078-0.215-0.115-0.352-0.115c-0.191,0-0.347,0.067-0.466,0.205
		c-0.119,0.137-0.178,0.356-0.178,0.664c0,0.326,0.059,0.559,0.176,0.694c0.117,0.14,0.269,0.208,0.455,0.208
		c0.14,0,0.258-0.044,0.356-0.133C70.557,72.025,70.63,71.889,70.674,71.7"/>
	<path fill="#ADADAD" d="M71.782,70.073h0.52v1.095c0.117-0.012,0.195-0.041,0.236-0.089c0.041-0.05,0.104-0.183,0.188-0.399
		c0.107-0.279,0.217-0.453,0.325-0.521c0.106-0.066,0.281-0.101,0.521-0.101c0.012,0,0.038-0.002,0.075-0.002v0.383l-0.073-0.002
		c-0.106,0-0.185,0.015-0.233,0.041c-0.049,0.024-0.09,0.065-0.119,0.121c-0.031,0.053-0.076,0.162-0.136,0.33
		c-0.03,0.09-0.065,0.163-0.104,0.225c-0.034,0.06-0.102,0.115-0.193,0.166c0.115,0.033,0.211,0.1,0.287,0.199
		c0.074,0.101,0.156,0.239,0.249,0.422l0.35,0.705h-0.61l-0.308-0.664c-0.005-0.01-0.015-0.028-0.03-0.056
		c-0.006-0.009-0.026-0.05-0.063-0.12c-0.065-0.127-0.121-0.207-0.164-0.238c-0.043-0.03-0.106-0.047-0.196-0.049v1.127h-0.52
		L71.782,70.073L71.782,70.073z"/>
	<path fill="#ADADAD" d="M74.549,71.357c0,0.291,0.067,0.513,0.202,0.662c0.136,0.151,0.306,0.227,0.513,0.227
		c0.209,0,0.377-0.074,0.51-0.225c0.134-0.148,0.201-0.373,0.201-0.672c0-0.295-0.065-0.515-0.195-0.66
		c-0.129-0.146-0.301-0.217-0.516-0.217c-0.214,0-0.387,0.072-0.519,0.221C74.615,70.841,74.549,71.063,74.549,71.357
		 M74.014,71.375c0-0.262,0.039-0.48,0.118-0.66c0.06-0.13,0.138-0.248,0.239-0.354c0.102-0.104,0.212-0.182,0.333-0.23
		c0.16-0.066,0.345-0.102,0.554-0.102c0.381,0,0.684,0.117,0.91,0.353c0.229,0.236,0.343,0.563,0.343,0.982
		c0,0.413-0.112,0.737-0.34,0.974c-0.226,0.235-0.528,0.354-0.905,0.354c-0.383,0-0.688-0.117-0.912-0.352
		C74.128,72.105,74.014,71.785,74.014,71.375"/>
	<path fill="#ADADAD" d="M78.407,69.432h0.241c-0.015,0.16-0.07,0.284-0.168,0.377c-0.098,0.09-0.226,0.135-0.381,0.135
		c-0.156,0-0.281-0.045-0.379-0.135c-0.099-0.093-0.154-0.217-0.169-0.377h0.24c0.009,0.084,0.038,0.146,0.088,0.189
		c0.052,0.043,0.123,0.063,0.22,0.063c0.096,0,0.17-0.021,0.221-0.063S78.398,69.516,78.407,69.432 M77.073,70.073h0.485v1.713
		l1.043-1.713h0.519v2.571h-0.485v-1.68l-1.042,1.68h-0.52V70.073z"/>
	<path fill="#ADADAD" d="M81.381,71.357c0,0.291,0.067,0.513,0.202,0.662c0.135,0.151,0.306,0.227,0.515,0.227
		c0.205,0,0.375-0.074,0.51-0.225c0.132-0.148,0.197-0.373,0.197-0.672c0-0.295-0.063-0.515-0.191-0.66
		c-0.131-0.146-0.303-0.217-0.516-0.217c-0.216,0-0.39,0.072-0.52,0.221C81.445,70.841,81.381,71.063,81.381,71.357 M80.846,71.375
		c0-0.262,0.04-0.48,0.118-0.66c0.06-0.13,0.138-0.248,0.239-0.354c0.104-0.104,0.212-0.182,0.333-0.23
		c0.159-0.066,0.345-0.102,0.556-0.102c0.379,0,0.682,0.117,0.909,0.353c0.228,0.236,0.341,0.563,0.341,0.982
		c0,0.413-0.113,0.737-0.339,0.974s-0.526,0.354-0.903,0.354c-0.385,0-0.688-0.117-0.914-0.352
		C80.959,72.105,80.846,71.785,80.846,71.375"/>
	<path fill="#ADADAD" d="M84.43,72.215h0.506c0.16,0,0.273-0.008,0.34-0.021c0.064-0.018,0.123-0.055,0.17-0.11
		c0.051-0.056,0.074-0.124,0.074-0.207c0-0.119-0.043-0.205-0.127-0.26c-0.086-0.056-0.23-0.082-0.436-0.082H84.43V72.215z
		 M83.91,70.073h1.923v0.431H84.43v0.598h0.694c0.192,0,0.353,0.023,0.478,0.07c0.127,0.047,0.234,0.133,0.323,0.26
		c0.091,0.127,0.136,0.274,0.136,0.443c0,0.175-0.047,0.325-0.137,0.448c-0.09,0.124-0.191,0.209-0.309,0.255
		c-0.114,0.045-0.279,0.066-0.491,0.066H83.91V70.073z"/>
	<path fill="#ADADAD" d="M86.729,70.073h1.803v2.571h-0.52v-2.138h-0.773v1.101c0,0.314-0.012,0.533-0.032,0.658
		s-0.07,0.223-0.153,0.291c-0.08,0.069-0.207,0.104-0.382,0.104c-0.06,0-0.171-0.007-0.33-0.019v-0.4l0.115,0.001
		c0.108,0,0.183-0.015,0.219-0.043c0.037-0.029,0.058-0.103,0.058-0.218l-0.002-0.441v-1.468H86.729z"/>
	<path fill="#ADADAD" d="M90.582,71.628l-0.355-0.954l-0.348,0.954H90.582z M91.538,72.646h-0.563l-0.227-0.584h-1.027l-0.213,0.584
		h-0.552l1.002-2.572h0.55L91.538,72.646z"/>
	<path fill="#ADADAD" d="M93.521,71.7l0.504,0.159c-0.077,0.281-0.207,0.488-0.387,0.625c-0.179,0.138-0.406,0.205-0.683,0.205
		c-0.343,0-0.624-0.116-0.845-0.351c-0.219-0.233-0.329-0.553-0.329-0.957c0-0.43,0.112-0.762,0.331-0.998
		c0.223-0.237,0.514-0.354,0.873-0.354c0.314,0,0.57,0.093,0.769,0.279c0.116,0.108,0.204,0.269,0.265,0.473l-0.516,0.123
		c-0.029-0.133-0.095-0.238-0.191-0.314c-0.096-0.078-0.213-0.115-0.351-0.115c-0.192,0-0.347,0.067-0.466,0.205
		c-0.118,0.137-0.18,0.356-0.18,0.664c0,0.326,0.061,0.559,0.177,0.694c0.116,0.14,0.271,0.208,0.458,0.208
		c0.138,0,0.256-0.044,0.354-0.133C93.407,72.025,93.479,71.889,93.521,71.7"/>
	<polygon fill="#ADADAD" points="95.111,72.646 95.111,70.508 94.35,70.508 94.35,70.073 96.395,70.073 96.395,70.508 
		95.632,70.508 95.632,72.646 	"/>
	<polygon fill="#ADADAD" points="96.887,70.073 97.373,70.073 97.373,71.786 98.415,70.073 98.934,70.073 98.934,72.646 
		98.447,72.646 98.447,70.966 97.406,72.646 96.887,72.646 	"/>
	<g>
		<path fill="#ADADAD" d="M70.993,26.754c-0.021-0.003-0.031-0.004-0.031-0.004s26.808,7.345,1.604,16.271H27.196
			c0,0-3.807,3.14-5.177,3.944c-1.368,0.806-3.713-3.173-5.469-3.173c-1.975,0-4.11,2.851-5.48,3.012
			c-1.368,0.161-2.923-3.014-5.237-3.014c-2.277,0-5.469,3.336-5.469,3.336s2.013-0.484,3.301,0.241
			c1.287,0.723,2.08,3.073,4.012,3.073c2.496,0,3.626-3.392,5.077-3.429c1.833-0.05,3.356,3.429,5.676,3.429
			c1.259,0,3.491-2.106,4.216-2.751l54.368,0.001c22.235-13.33,5.295-18.7-2.589-20.341c8.757,1.733,29.984,7.479,13.612,20.324
			h8.745C108.982,30.361,72.089,26.854,70.993,26.754z"/>
		<polygon fill="#ADADAD" points="66.871,25.222 73.704,22.294 58.576,24.246 69.169,26.248 		"/>
	</g>
</g>
</svg>
