<?xml version="1.0" encoding="utf-8"?>
<!-- Generator: Adobe Illustrator 15.0.2, SVG Export Plug-In . SVG Version: 6.00 Build 0)  -->
<!DOCTYPE svg PUBLIC "-//W3C//DTD SVG 1.1//EN" "http://www.w3.org/Graphics/SVG/1.1/DTD/svg11.dtd">
<svg version="1.1" id="Layer_1" xmlns="http://www.w3.org/2000/svg" xmlns:xlink="http://www.w3.org/1999/xlink" x="0px" y="0px"
	 width="100px" height="100px" viewBox="0 0 100 100" enable-background="new 0 0 100 100" xml:space="preserve">
<g>
	<polygon fill="#ADADAD" points="35.603,48.355 24.464,48.355 21.327,66.136 13.572,66.136 16.705,48.355 5.559,48.355 
		6.534,43.023 36.591,43.023 	"/>
	<polygon fill="#ADADAD" points="53.164,53.738 62.755,66.137 53.486,66.137 46.982,56.127 44.126,56.127 42.39,66.137 
		34.625,66.137 38.691,43.023 46.466,43.023 44.974,51.299 47.814,51.299 57.141,43.023 65.886,43.023 	"/>
	<polygon fill="#ADADAD" points="95.947,48.355 84.8,48.355 81.657,66.136 73.886,66.136 77.033,48.355 65.886,48.355 
		66.867,43.023 96.925,43.023 	"/>
	<g>
		<path fill="#ADADAD" d="M94.163,17.178c-2.279-0.615-5.488-1.199-9.617-1.64c-7.233-0.779-17.078-1.218-27.694-1.218h-0.088
			h-0.236c-7.282,0-14.28,0.213-20.396,0.603c22.229,1.721,51.552,7.869,60.972,27.674l2.752-14.587
			c0.104-0.505,0.143-1.063,0.143-1.633C100.081,22.783,98.352,18.415,94.163,17.178"/>
		<path fill="#ADADAD" d="M6.04,83.563c2.269,0.636,5.498,1.215,9.602,1.652c7.26,0.773,17.094,1.211,27.709,1.211h0.091h0.233
			c7.884,0,15.438-0.25,21.89-0.699c-22.045-1.453-52.29-7.148-62.633-26.699L0.349,72.734c-0.102,0.52-0.138,1.063-0.138,1.645
			C0.146,77.971,1.847,82.35,6.04,83.563"/>
	</g>
</g>
</svg>
