<?xml version="1.0" encoding="utf-8"?>
<!-- Generator: Adobe Illustrator 19.1.0, SVG Export Plug-In . SVG Version: 6.00 Build 0)  -->
<svg version="1.1" id="Слой_1" xmlns:sketch="http://www.bohemiancoding.com/sketch/ns"
	 xmlns="http://www.w3.org/2000/svg" xmlns:xlink="http://www.w3.org/1999/xlink" x="0px" y="0px" viewBox="-241 237.3 113 122"
	 style="enable-background:new -241 237.3 113 122;" xml:space="preserve">
<style type="text/css">
	.st0{fill:none;stroke:#FFFFFF;}
	.st1{fill:#FFFFFF;}
</style>
<title>Rectangle 15 + C + Rectangle 16</title>
<desc>Created with Sketch.</desc>
<g id="Page-1" sketch:type="MSPage">
	<g id="Desktop-HD" transform="translate(-151.000000, -58.000000)" sketch:type="MSArtboardGroup">
		<g id="Rectangle-15-_x2B_-C-_x2B_-Rectangle-16" transform="translate(151.000000, 58.000000)" sketch:type="MSLayerGroup">
			<path id="Rectangle-15" sketch:type="MSShapeGroup" class="st0" d="M-241,239.3c0-1.1,0.9-2,2-2h56.3c0,0.1,12,11.5,12,11.5
				c0.8,0.8,2.1,2,2.9,2.7c0,0,11.9,11,11.9,11.2v90.6c0,1.1-0.9,2-2,2h-81c-1.1,0-2-0.9-2-2V239.3z"/>
			<path id="C" sketch:type="MSShapeGroup" class="st1" d="M-212.6,261.5h-5.2c-0.3,1.8-1.2,2.7-2.8,2.7c-2,0-3.3-1.8-3.3-4.6
				c0-2.1,0.8-4.6,3.3-4.6c1.5,0,2.5,0.9,2.8,2.4h5.1c-0.2-3.8-3.6-6.7-7.8-6.7c-5.2,0-8.7,3.9-8.7,8.9c0,5.1,3.3,9,8.6,9
				C-216.3,268.7-212.9,266.3-212.6,261.5z M-229.5,279.3h20h0.5v-1h-0.5h-20h-0.5v1H-229.5z M-229.5,285.3h11h0.5v-1h-0.5h-11h-0.5
				v1H-229.5z"/>
			<path id="Rectangle-16" sketch:type="MSShapeGroup" class="st1" d="M-190,325.3c0-1.1,0.9-2,2-2h58c1.1,0,2,0.9,2,2v32
				c0,1.1-0.9,2-2,2h-58c-1.1,0-2-0.9-2-2V325.3z M-173,336.4h-2.9c-0.2,1-0.7,1.6-1.6,1.6c-1.2,0-1.9-1-1.9-2.6
				c0-1.2,0.5-2.6,1.9-2.6c0.9,0,1.4,0.5,1.6,1.4h2.9c-0.1-2.2-2-3.9-4.4-3.9c-3,0-5,2.2-5,5.1c0,2.9,1.9,5.1,4.9,5.1
				C-175.2,340.5-173.2,339.1-173,336.4z M-182.7,346.6h11.4h0.3V346h-0.3h-11.4h-0.3v0.6H-182.7z M-182.7,350h6.3h0.3v-0.6h-0.3
				h-6.3h-0.3v0.6H-182.7z"/>
		</g>
	</g>
</g>
</svg>
