<svg xmlns="http://www.w3.org/2000/svg" width="100" height="100" viewBox="0 0 100 100"><g fill="#ADADAD"><path d="M3.07 54.277c0 1.55-.14 2.677-.42 3.386h1.936v-3.386H3.07zm-.978-.853h3.52v4.24h.447v1.965h-.856v-1.112H1.998v1.11h-.855v-1.965h.432c.21-.437.35-.942.417-1.517.067-.576.1-1.305.1-2.185v-.536zM7.177 53.424h.963v3.39l2.064-3.39h1.025v5.094h-.964V55.19l-2.06 3.328h-1.03zM13.562 54.285v1.445h.563c.405 0 .677-.026.813-.08a.68.68 0 0 0 .32-.25.68.68 0 0 0 .118-.396.653.653 0 0 0-.164-.458.72.72 0 0 0-.413-.227c-.124-.023-.37-.036-.742-.036h-.496zm-1.03 4.233v-5.094h1.652c.625 0 1.033.026 1.222.076.292.076.536.243.733.5.196.255.295.585.295.99 0 .314-.057.576-.17.79-.113.214-.257.38-.433.502-.176.12-.353.2-.533.24-.247.048-.602.073-1.068.073h-.67v1.922h-1.03zM17.225 58.518v-5.094H21v.86h-2.748v1.13h2.558v.86h-2.558v1.385h2.845v.858zM22.077 53.424h1.028v2.168c.23-.02.384-.083.466-.177.082-.097.207-.358.376-.793.212-.552.428-.894.643-1.026.212-.136.555-.203 1.03-.203.023 0 .074 0 .15-.004v.76h-.146c-.21 0-.365.024-.462.077a.59.59 0 0 0-.236.236c-.06.105-.15.325-.268.656a2.35 2.35 0 0 1-.203.44c-.073.117-.202.23-.388.334.23.063.42.195.568.394.15.194.313.474.492.832l.695 1.397h-1.21l-.606-1.317a6.807 6.807 0 0 1-.187-.346c-.132-.25-.24-.406-.325-.47-.085-.062-.213-.094-.388-.096v2.23h-1.028v-5.094zM26.6 53.424h1.028v4.24h1.995v-4.24h1.027v4.24h.425v1.965h-.855v-1.112H26.6zM32.132 53.424h.962v3.39l2.064-3.39h1.026v5.094h-.963V55.19l-2.06 3.328h-1.028zM40.538 54.285h-.803c-.408 0-.676.01-.805.027a.537.537 0 0 0-.332.188.61.61 0 0 0-.14.416c0 .18.046.32.135.426.09.105.203.17.34.196.138.025.42.038.843.038h.76l.002-1.29zm0 4.233v-2.125h-.21c-.323 0-.55.047-.684.146-.133.097-.362.387-.684.87l-.744 1.108h-1.23l.622-.994c.246-.393.442-.668.587-.828.146-.157.33-.3.55-.424-.475-.076-.818-.24-1.028-.496a1.4 1.4 0 0 1-.316-.92c0-.31.08-.586.236-.824.156-.24.362-.4.618-.483.256-.083.64-.124 1.148-.124h2.165v5.095h-1.03v-.002zM45.305 53.424h4.05v5.094H48.33v-4.24h-1.995v4.24h-1.028zM51.3 55.968c0 .577.134 1.013.4 1.312s.603.447 1.014.447c.41 0 .747-.147 1.01-.443.263-.297.395-.737.395-1.328 0-.584-.13-1.02-.387-1.31-.254-.286-.596-.43-1.02-.43-.424 0-.766.146-1.023.437-.26.29-.39.728-.39 1.315m-1.06.035c0-.52.077-.956.232-1.308.115-.26.273-.49.475-.697.2-.207.42-.36.658-.46.315-.134.683-.2 1.097-.2.752 0 1.353.232 1.803.698.45.466.677 1.11.677 1.942 0 .82-.226 1.465-.672 1.93-.447.464-1.044.695-1.794.695-.757 0-1.358-.23-1.805-.692-.447-.46-.67-1.097-.67-1.907M59.16 54.285v1.445h.56c.407 0 .68-.026.814-.08a.68.68 0 0 0 .32-.25.678.678 0 0 0 .116-.396.66.66 0 0 0-.162-.458.724.724 0 0 0-.414-.227 5.098 5.098 0 0 0-.74-.036h-.495zm-1.03 4.233v-5.094h1.65c.624 0 1.032.026 1.224.076.29.076.536.243.73.5.2.255.297.585.297.99 0 .314-.056.576-.17.79-.113.214-.257.38-.433.502-.175.12-.353.2-.533.24-.244.048-.602.073-1.064.073h-.67v1.922h-1.03zM65.1 56.503l-.703-1.892-.687 1.893h1.39zm1.893 2.015h-1.118l-.445-1.156h-2.035l-.42 1.156h-1.092l1.983-5.094h1.087l2.04 5.094zM68.414 54.814l-1-.234c.215-.828.827-1.242 1.837-1.242.6 0 1.05.13 1.355.395.306.263.457.572.457.926 0 .243-.07.462-.21.657s-.347.367-.624.517c.338.115.592.278.76.49.17.213.255.476.255.784 0 .447-.164.81-.49 1.084-.328.275-.82.412-1.474.412-.533 0-.953-.088-1.26-.265-.31-.18-.542-.51-.696-.996l.94-.31c.097.307.228.503.388.596.162.088.36.134.596.134.325 0 .563-.068.71-.21.147-.14.224-.3.224-.48a.606.606 0 0 0-.252-.503c-.17-.128-.422-.19-.76-.19h-.232v-.77h.117c.315 0 .557-.07.723-.213a.697.697 0 0 0 .252-.563.62.62 0 0 0-.204-.47c-.138-.128-.33-.19-.582-.19-.43.002-.71.215-.83.64M73.328 56.298v1.36h.95c.372 0 .606-.01.706-.03a.643.643 0 0 0 .373-.202.626.626 0 0 0 .145-.435.666.666 0 0 0-.11-.39.617.617 0 0 0-.32-.23c-.142-.048-.444-.072-.913-.072h-.832zm0-2.027v1.18H74c.402 0 .65-.007.748-.02a.683.683 0 0 0 .416-.182.54.54 0 0 0 .15-.397.567.567 0 0 0-.13-.383c-.09-.1-.217-.16-.39-.18-.102-.01-.395-.017-.878-.017h-.588zm-1.03-.846h2.037c.4 0 .703.018.9.05.198.035.376.105.532.212.155.105.285.248.39.426s.157.375.157.597c0 .236-.063.455-.19.655-.13.198-.306.35-.524.448.31.09.55.244.715.46.168.22.252.476.252.77 0 .23-.055.456-.162.676s-.256.395-.44.523a1.46 1.46 0 0 1-.69.242c-.17.018-.584.03-1.24.033H72.3v-5.094h-.002zM77.598 53.424h.963v3.39l2.064-3.39h1.024v5.094h-.962V55.19l-2.06 3.328h-1.028zM83.994 58.518v-4.233h-1.512v-.86h4.047v.86h-1.51v4.233zM87.357 53.424h.96v3.39l2.066-3.39h1.025v5.094h-.963V55.19l-2.06 3.328h-1.028zM95.495 55.98c0 .564.112 1 .337 1.307s.54.46.947.46c.42 0 .733-.15.942-.455.21-.307.313-.762.313-1.37 0-.585-.12-1.013-.362-1.282a1.19 1.19 0 0 0-.93-.406c-.368 0-.668.137-.9.412-.232.27-.348.715-.348 1.333m-2.886-2.556h1.028v2.127h.826c.06-.627.28-1.15.663-1.577.384-.425.938-.635 1.668-.635.702 0 1.26.227 1.675.682.414.453.622 1.102.622 1.944 0 .552-.09 1.02-.27 1.413-.18.39-.437.69-.767.905-.33.215-.74.32-1.232.32-.5 0-.896-.077-1.192-.234-.294-.157-.552-.412-.773-.765s-.352-.752-.392-1.2h-.825v2.114h-1.03v-5.093zM2.65 66.66v-4.23H1.14v-.864h4.047v.864H3.68v4.23zM6.88 62.43v1.444h.562c.406 0 .677-.026.813-.08a.68.68 0 0 0 .32-.25.685.685 0 0 0 .118-.396.653.653 0 0 0-.164-.46.71.71 0 0 0-.415-.225 5.05 5.05 0 0 0-.74-.036H6.88v.003zm-1.03 4.23v-5.094H7.5c.627 0 1.035.026 1.225.078.292.074.536.242.733.498.197.256.294.586.294.99 0 .314-.057.577-.17.79-.114.212-.257.38-.433.5a1.467 1.467 0 0 1-.533.242c-.247.05-.602.073-1.067.073h-.67v1.92l-1.03.003zM12.672 64.646l-.702-1.893-.688 1.893h1.39zm1.893 2.014h-1.12l-.444-1.156h-2.035l-.42 1.156h-1.09l1.983-5.094h1.088l2.04 5.094zM15.114 66.66v-5.094h1.03v2.006h2.014v-2.006h1.03v5.094h-1.03v-2.226h-2.015v2.226zM23.508 64.79l.997.313c-.153.557-.407.97-.763 1.24-.355.27-.806.403-1.353.403-.677 0-1.233-.23-1.67-.692-.435-.463-.652-1.095-.652-1.896 0-.848.22-1.506.657-1.975.437-.47 1.013-.705 1.727-.705.623 0 1.13.186 1.518.553.232.22.406.532.52.94l-1.017.242a1.08 1.08 0 0 0-.377-.626c-.19-.15-.422-.23-.696-.23-.378 0-.684.136-.92.407s-.352.71-.352 1.316c0 .644.116 1.103.348 1.375.23.272.532.41.902.41.274 0 .51-.087.706-.26.197-.173.34-.443.424-.816M25.402 61.566h4.05v5.094h-1.027v-4.238H26.43v4.238h-1.028zM31.354 64.11c0 .577.133 1.014.4 1.312.266.298.604.446 1.014.446s.747-.148 1.01-.443c.262-.296.394-.738.394-1.328 0-.582-.128-1.02-.384-1.308-.256-.287-.596-.432-1.02-.432-.424 0-.767.146-1.026.437-.26.29-.388.73-.388 1.314m-1.06.035c0-.52.077-.95.232-1.307.116-.26.274-.49.476-.695.2-.207.42-.36.658-.46a2.768 2.768 0 0 1 1.098-.202c.75 0 1.35.234 1.802.7.45.467.676 1.112.676 1.942 0 .82-.224 1.465-.67 1.93-.447.464-1.044.696-1.793.696-.757 0-1.36-.232-1.807-.693-.45-.462-.672-1.1-.672-1.91M37.065 62.43v1.444h.563c.405 0 .677-.026.813-.08a.68.68 0 0 0 .322-.25.684.684 0 0 0 .116-.396.65.65 0 0 0-.164-.46.71.71 0 0 0-.413-.225 5.066 5.066 0 0 0-.74-.036h-.495v.003zm-1.028 4.23v-5.094h1.65c.626 0 1.033.026 1.223.078.292.074.536.242.733.498.197.256.295.586.295.99 0 .314-.056.577-.17.79-.113.212-.257.38-.432.5a1.464 1.464 0 0 1-.533.242c-.245.05-.602.073-1.067.073h-.67v1.92l-1.03.003zM41.836 66.66v-4.23h-1.51v-.864h4.047v.864h-1.51v4.23zM45.04 66.66v-5.094h1.028v2.006h2.015v-2.006h1.03v5.094h-1.03v-2.226h-2.015v2.226zM51.025 64.11c0 .577.134 1.014.4 1.312a1.3 1.3 0 0 0 1.014.446c.41 0 .747-.148 1.01-.443.263-.296.396-.738.396-1.328 0-.582-.13-1.02-.385-1.308-.256-.287-.596-.432-1.02-.432-.424 0-.767.146-1.024.437-.262.29-.39.73-.39 1.314m-1.06.035c0-.52.078-.95.232-1.307.117-.26.275-.49.476-.695.2-.207.42-.36.66-.46a2.756 2.756 0 0 1 1.096-.202c.752 0 1.352.234 1.803.7.45.467.677 1.112.677 1.942 0 .82-.226 1.465-.67 1.93-.45.464-1.046.696-1.794.696-.758 0-1.36-.232-1.807-.693-.45-.462-.673-1.1-.673-1.91M58.364 60.3h.476c-.027.313-.138.563-.33.742-.195.18-.445.27-.754.27-.308 0-.56-.09-.752-.27-.193-.18-.305-.43-.332-.742h.477c.017.164.073.29.173.373.1.085.244.127.435.127s.335-.042.435-.127a.542.542 0 0 0 .17-.373m-2.64 1.266h.963v3.392l2.064-3.392h1.025v5.094h-.963v-3.324L56.75 66.66h-1.028v-5.094zM66.06 64.79l.997.313c-.15.557-.406.97-.762 1.24-.355.27-.81.403-1.354.403-.677 0-1.23-.23-1.667-.692-.437-.463-.653-1.095-.653-1.896 0-.848.22-1.506.657-1.975.438-.47 1.014-.705 1.727-.705.624 0 1.13.186 1.52.553.23.22.404.532.52.94l-1.018.242a1.083 1.083 0 0 0-.375-.626 1.098 1.098 0 0 0-.696-.23c-.377 0-.686.136-.92.407-.234.27-.353.71-.353 1.316 0 .644.118 1.103.35 1.375.23.272.532.41.9.41.275 0 .513-.087.708-.26.195-.173.337-.443.423-.816M67.954 61.566h.962v3.392l2.063-3.392h1.026v5.094h-.964v-3.324L68.98 66.66h-1.026zM76.313 64.79l.998.313c-.152.557-.407.97-.763 1.24s-.807.403-1.354.403c-.678 0-1.232-.23-1.668-.692-.436-.463-.653-1.095-.653-1.896 0-.848.22-1.506.657-1.975.436-.47 1.013-.705 1.726-.705.623 0 1.13.186 1.52.553.23.22.406.532.52.94l-1.02.242a1.075 1.075 0 0 0-.376-.626c-.19-.15-.424-.23-.694-.23-.38 0-.685.136-.92.407-.235.27-.355.71-.355 1.316 0 .644.117 1.103.35 1.375.23.272.532.41.903.41.273 0 .51-.087.705-.26.198-.17.34-.443.425-.816M79.163 66.66v-4.23H77.65v-.864h4.05v.864h-1.51v4.23zM82.363 66.66v-5.094h3.776v.864h-2.747v1.13h2.555v.856h-2.555v1.387h2.843v.857zM87.134 66.66v-5.094h1.538l.924 3.476.916-3.476h1.54v5.094H91.1v-4.008l-1.012 4.008h-.99l-1.008-4.008v4.008zM97.906 61.566h1.03v5.094h-1.03v-5.094zm-3.715 4.24h1.005c.32 0 .543-.016.67-.047a.664.664 0 0 0 .338-.214.59.59 0 0 0 .146-.407c0-.228-.08-.397-.24-.512-.163-.112-.452-.17-.872-.17H94.19v1.35zm-1.026-4.24h1.027V63.6h1.378c.36 0 .673.052.933.15.262.1.48.274.652.526.174.255.26.546.26.875 0 .346-.09.643-.27.892-.182.25-.383.415-.603.495-.223.082-.546.12-.973.12h-2.404v-5.09zM2.87 71.7l.504.16c-.077.28-.206.487-.385.624-.18.138-.408.205-.685.205a1.1 1.1 0 0 1-.842-.352c-.22-.233-.33-.553-.33-.957 0-.43.11-.76.332-.997.22-.237.512-.354.872-.354.315 0 .57.092.768.278.117.108.206.27.264.473l-.516.124a.533.533 0 0 0-.19-.314.542.542 0 0 0-.352-.115.58.58 0 0 0-.464.205c-.12.137-.178.356-.178.664 0 .326.06.56.176.694.117.14.27.208.456.208a.52.52 0 0 0 .356-.132c.1-.09.17-.225.212-.414M5.245 71.628l-.354-.954-.347.954h.702zm.957 1.018h-.566l-.224-.584H4.384l-.213.584h-.55l1.002-2.572h.55l1.03 2.572zM6.63 72.646v-2.573h.52v1.013h1.018v-1.013h.52v2.573h-.52V71.52H7.15v1.126zM9.385 70.073h.52v1.095c.115-.012.194-.04.235-.09.04-.05.104-.182.19-.398.107-.28.214-.453.324-.52.107-.067.282-.102.52-.102.013 0 .038-.002.077-.002v.383l-.073-.003a.527.527 0 0 0-.234.04.278.278 0 0 0-.12.122c-.03.052-.074.16-.134.33a1.26 1.26 0 0 1-.103.224.52.52 0 0 1-.196.166c.116.033.212.1.288.2.075.1.16.238.25.42l.35.706h-.61l-.31-.664c-.003-.01-.014-.028-.028-.056a2.97 2.97 0 0 1-.065-.12c-.066-.127-.122-.207-.165-.238a.354.354 0 0 0-.195-.05v1.128h-.52v-2.573zM12.39 72.646v-2.138h-.764v-.435h2.045v.435h-.76v2.138zM13.864 71.467h.97v.493h-.97zM15.513 70.073h2.047v2.573h-.52v-2.142h-1.007v2.142h-.52zM18.24 72.646v-2.573h1.91v.435h-1.39v.57h1.292v.436h-1.29v.7h1.436v.432zM21.368 72.646v-2.138h-.763v-.435h2.046v.435h-.762v2.138zM23.136 72.646v-2.573h1.91v.435h-1.39v.57h1.292v.436h-1.292v.7h1.438v.432zM26.205 70.508v.73h.284c.204 0 .34-.014.41-.04a.316.316 0 0 0 .162-.128.334.334 0 0 0 .06-.198.325.325 0 0 0-.083-.23.363.363 0 0 0-.21-.116 2.447 2.447 0 0 0-.375-.018h-.25zm-.52 2.138v-2.572h.835c.316 0 .52.013.618.037.147.04.27.124.37.255.1.128.15.295.15.5 0 .156-.03.29-.086.398a.738.738 0 0 1-.49.375 2.92 2.92 0 0 1-.538.037h-.34v.97h-.518zM28.765 72.215h.505c.163 0 .275-.008.34-.02a.345.345 0 0 0 .172-.11.3.3 0 0 0 .073-.208c0-.12-.042-.205-.127-.26-.084-.056-.23-.082-.434-.082h-.528v.68zm-.52-2.142h1.924v.43h-1.405v.6h.695c.19 0 .352.022.477.07a.744.744 0 0 1 .458.703.733.733 0 0 1-.134.447.708.708 0 0 1-.308.255c-.116.045-.28.066-.493.066h-1.216v-2.57zM30.62 70.073h.58l.6 1.336.512-1.337h.542l-.87 1.954c-.094.213-.19.373-.29.484a.492.492 0 0 1-.38.167c-.153 0-.274-.01-.36-.03v-.386c.074.005.14.01.2.01.122 0 .207-.023.26-.066.05-.045.102-.14.15-.284l-.945-1.847zM33.787 70.508v.73h.285c.204 0 .34-.014.41-.04a.322.322 0 0 0 .163-.128.334.334 0 0 0 .06-.198.325.325 0 0 0-.083-.23.36.36 0 0 0-.21-.116 2.45 2.45 0 0 0-.373-.018h-.253zm-.52 2.138v-2.572h.834c.317 0 .522.013.62.037a.67.67 0 0 1 .37.255c.1.128.15.295.15.5 0 .156-.03.29-.087.398a.717.717 0 0 1-.488.375 2.935 2.935 0 0 1-.54.037h-.338v.97h-.52zM35.842 70.073h1.743v.43h-1.223v2.143h-.52zM39.143 71.628l-.355-.954-.347.954h.703zm.956 1.018h-.566l-.225-.584h-1.03l-.212.584h-.55l1-2.572h.55l1.03 2.572zM41.683 70.073h.486v1.713l1.04-1.713h.52v2.573h-.487v-1.68l-1.04 1.68h-.52zM45.745 70.073h1.802v2.57h-.52v-2.137h-.772v1.1c0 .315-.01.534-.033.66a.466.466 0 0 1-.153.29c-.082.07-.21.104-.383.104-.06 0-.17-.007-.332-.02v-.4l.116.002c.11 0 .183-.015.22-.043.038-.03.057-.104.057-.22l-.002-.44v-1.467zM48.234 72.646v-2.573h1.908v.435h-1.39v.57h1.293v.436h-1.292v.7h1.437v.432zM50.785 72.646v-2.573h.52v1.013h1.017v-1.013h.52v2.573h-.52V71.52h-1.017v1.126zM53.536 70.073h.487v1.713l1.04-1.713h.52v2.573H55.1v-1.68l-1.04 1.68h-.522zM56.266 72.646v-2.573h.52v1.013h1.02v-1.013h.517v2.573h-.518V71.52h-1.02v1.126zM59.038 70.073h1.743v.43h-1.22v2.143h-.522zM61.72 70.508v.73h.284c.206 0 .344-.014.41-.04a.33.33 0 0 0 .164-.128.348.348 0 0 0 .06-.198.325.325 0 0 0-.083-.23.363.363 0 0 0-.21-.116 2.45 2.45 0 0 0-.372-.018h-.252zm-.52 2.138v-2.572h.834c.315 0 .522.013.618.037a.68.68 0 0 1 .37.255c.1.128.148.295.148.5 0 .156-.028.29-.086.398a.716.716 0 0 1-.488.375 2.928 2.928 0 0 1-.54.037h-.34v.97H61.2zM64.798 71.628l-.354-.954-.348.954h.702zm.957 1.018h-.565l-.225-.584h-1.03l-.21.584h-.553l1.003-2.572h.55l1.03 2.572zM67.018 70.504c0 .782-.07 1.352-.213 1.71h.98v-1.71h-.767zm-.497-.43h1.78v2.14h.226v.994h-.433v-.563h-1.618v.563h-.434v-.993h.22c.105-.22.178-.476.21-.767.033-.29.052-.66.052-1.103v-.272zM70.674 71.7l.504.16c-.078.28-.205.487-.386.624-.18.138-.407.205-.685.205a1.1 1.1 0 0 1-.842-.352c-.22-.233-.332-.553-.332-.957 0-.43.11-.76.332-.997.224-.237.512-.354.875-.354.313 0 .568.092.766.278.117.108.205.27.265.473l-.516.124a.54.54 0 0 0-.188-.314.544.544 0 0 0-.352-.115.585.585 0 0 0-.466.205c-.12.137-.178.356-.178.664 0 .326.06.56.176.694.117.14.27.208.455.208a.51.51 0 0 0 .357-.133c.1-.088.173-.224.217-.413M71.782 70.073h.52v1.095c.117-.012.195-.04.236-.09.04-.05.104-.182.188-.398.107-.28.217-.453.325-.52.107-.067.282-.102.522-.102l.075-.002v.383l-.073-.003a.516.516 0 0 0-.233.04.268.268 0 0 0-.118.122 2.35 2.35 0 0 0-.136.33c-.03.09-.065.162-.104.224a.494.494 0 0 1-.193.166c.114.033.21.1.286.2.074.1.156.238.25.42l.35.706h-.61l-.31-.664c-.004-.01-.014-.028-.03-.056l-.062-.12c-.065-.127-.12-.207-.164-.238a.353.353 0 0 0-.196-.05v1.128h-.52l-.002-2.573zM74.55 71.357c0 .29.066.513.2.662a.66.66 0 0 0 .514.226c.21 0 .377-.074.51-.225.134-.147.2-.372.2-.67 0-.296-.064-.516-.194-.66a.653.653 0 0 0-.516-.218.658.658 0 0 0-.52.22c-.13.15-.195.37-.195.665m-.536.018c0-.262.04-.48.118-.66.06-.13.138-.248.24-.354a.97.97 0 0 1 .332-.23c.16-.065.345-.1.554-.1.38 0 .684.116.91.352.23.236.343.563.343.982 0 .413-.11.737-.34.974-.225.235-.527.354-.904.354-.383 0-.688-.117-.912-.352-.226-.235-.34-.555-.34-.965M78.407 69.432h.24a.57.57 0 0 1-.167.377.543.543 0 0 1-.38.134.536.536 0 0 1-.38-.135.565.565 0 0 1-.17-.378h.24c.01.084.04.146.09.19.05.042.122.062.22.062.095 0 .17-.02.22-.063s.078-.104.087-.188m-1.334.64h.485v1.714l1.043-1.713h.52v2.57h-.485v-1.68l-1.042 1.68h-.52v-2.57zM81.38 71.357c0 .29.068.513.203.662a.66.66 0 0 0 .515.226.654.654 0 0 0 .51-.225c.132-.147.197-.372.197-.67 0-.296-.063-.516-.19-.66a.66.66 0 0 0-.517-.218.655.655 0 0 0-.52.22c-.133.15-.197.37-.197.665m-.534.018c0-.262.04-.48.118-.66.06-.13.138-.248.24-.354a.99.99 0 0 1 .332-.23c.16-.065.345-.1.556-.1.38 0 .682.116.91.352.227.236.34.563.34.982 0 .413-.113.737-.34.974s-.525.354-.902.354c-.385 0-.688-.117-.914-.352-.227-.235-.34-.555-.34-.965M84.43 72.215h.506c.16 0 .273-.008.34-.02a.347.347 0 0 0 .17-.11.293.293 0 0 0 .074-.208c0-.12-.043-.205-.127-.26-.086-.056-.23-.082-.436-.082h-.527v.68zm-.52-2.142h1.923v.43H84.43v.6h.694c.192 0 .353.022.478.07a.68.68 0 0 1 .323.26.74.74 0 0 1 .136.442.74.74 0 0 1-.136.448.7.7 0 0 1-.31.255c-.113.045-.278.066-.49.066H83.91v-2.57zM86.73 70.073h1.802v2.57h-.52v-2.137h-.773v1.1c0 .315-.013.534-.033.66s-.07.222-.153.29c-.08.07-.207.104-.382.104-.06 0-.17-.007-.33-.02v-.4l.115.002c.108 0 .183-.015.22-.043.036-.03.057-.104.057-.22l-.002-.44v-1.468h-.003zM90.582 71.628l-.355-.954-.348.954h.702zm.956 1.018h-.563l-.227-.584H89.72l-.212.584h-.552l1.002-2.572h.55l1.03 2.572zM93.52 71.7l.505.16c-.077.28-.207.487-.387.624-.18.138-.406.205-.683.205-.343 0-.624-.117-.845-.352-.22-.233-.33-.553-.33-.957 0-.43.113-.76.332-.997.223-.237.514-.354.873-.354.314 0 .57.092.77.278.115.108.203.27.264.473l-.517.124a.534.534 0 0 0-.542-.43.584.584 0 0 0-.465.206c-.118.137-.18.356-.18.664 0 .326.06.56.177.694.116.14.27.208.458.208a.508.508 0 0 0 .354-.133c.103-.088.175-.224.217-.413M95.11 72.646v-2.138h-.76v-.435h2.045v.435h-.763v2.138zM96.887 70.073h.486v1.713l1.042-1.713h.52v2.573h-.488v-1.68l-1.04 1.68h-.52zM70.993 26.754l-.03-.004s26.807 7.345 1.603 16.27h-45.37s-3.807 3.14-5.177 3.945c-1.37.806-3.714-3.173-5.47-3.173-1.975 0-4.11 2.85-5.48 3.012-1.368.16-2.923-3.014-5.237-3.014-2.277 0-5.47 3.336-5.47 3.336s2.014-.484 3.302.24c1.287.724 2.08 3.074 4.012 3.074 2.496 0 3.626-3.392 5.077-3.43 1.833-.05 3.356 3.43 5.676 3.43 1.26 0 3.49-2.106 4.216-2.75h54.368c22.235-13.33 5.295-18.7-2.59-20.34 8.758 1.732 29.985 7.478 13.613 20.323h8.745c12.2-17.312-24.693-20.82-25.79-20.92zM66.87 25.222l6.834-2.928-15.128 1.952 10.593 2.002z"/></g></svg>