<svg xmlns="http://www.w3.org/2000/svg" width="100" height="100" viewBox="0 0 100 100"><g fill="#ADADAD"><path d="M10.258 40.32l.31.088.527.72c.515.854.96 1.696 1.348 2.518.387.827.717 1.66.993 2.505.324 1.004.63 2.166.914 3.49.07.156.1.31.096.458a.547.547 0 0 1-.15.37c-.182.11-.327.19-.44.25-.37.196-.668.333-.896.412a2.04 2.04 0 0 1-.476.1.51.51 0 0 1-.324-.06l-.156-.128c.037-.336-.077-1.092-.34-2.26a82.4 82.4 0 0 0-.782-3.136c-.35-1.32-.55-2.087-.604-2.312-.12-.365-.197-.585-.237-.66a2.085 2.085 0 0 0-.23-.326 1.18 1.18 0 0 0-.626-.293c-.216-.035-.455 0-.723.087-.267.085-.574.23-.917.444a2.374 2.374 0 0 0-.62.536c-.194.223-.38.538-.562.95-.005.188.02.43.082.722.063.295.162.665.308 1.11.347 1.07.818 2.22 1.408 3.463.59 1.246 1.055 2.06 1.396 2.438l-.045.22a5.63 5.63 0 0 1-.335.198c-.276.15-.548.268-.816.354-.134.038-.275.083-.425.114a1.36 1.36 0 0 1-.478.02 5.14 5.14 0 0 1-.29-.054c-.028-.01-.05-.037-.076-.074a1.896 1.896 0 0 0-.063-.104 30.557 30.557 0 0 1-1.36-3.464 27.03 27.03 0 0 1-.77-2.865 32.734 32.734 0 0 1-.497-3.023c-.03-.15-.025-.31.006-.482.033-.17.09-.315.172-.43.167-.152.565-.364 1.192-.638.63-.274 1.292-.523 1.98-.75.662-.216 1.195-.363 1.6-.455.412-.09.713-.11.908-.05zm4.16-1.22c-.026.17-.043.276-.043.324.004.045.004.195.004.446.145 1.664.385 3.234.726 4.713a34.644 34.644 0 0 0 1.508 4.85l.274.254 1.845-.426.066-.332c-.01-1.176.117-2.42.392-3.734.222-1.078.56-2.278 1.007-3.612a3.9 3.9 0 0 1 .203-.305c.1-.116.204-.162.312-.146l.183.16c.316 1.368.56 2.624.74 3.772a23.47 23.47 0 0 1 .292 3.388l.167.037 1.75-.406.144-.183a32.392 32.392 0 0 0-.76-5.047 34.358 34.358 0 0 0-1.652-5.217l-.222-.208a.626.626 0 0 0-.303-.108 1.378 1.378 0 0 0-.388.038 2.513 2.513 0 0 0-.684.274 2.57 2.57 0 0 0-.315.186l-.382.507a47.206 47.206 0 0 0-1.944 5.8 3.674 3.674 0 0 1-.084.107c-.037.037-.08.08-.137.133a.75.75 0 0 1-.25-.158 23.183 23.183 0 0 1-.467-2.72 18.403 18.403 0 0 1-.098-2.65l-.12-.146a.36.36 0 0 0-.242-.08c-.1-.002-.233.017-.4.054-.22.047-.468.14-.755.264-.104.04-.226.097-.37.172zm15.138-3.24c.636.018 1.173.188 1.618.52.44.333.708.803.806 1.413.12.765-.023 1.51-.428 2.237-.303.54-.818 1.134-1.55 1.79-.132.117-.734.613-1.806 1.496a.898.898 0 0 0-.247.505 2.25 2.25 0 0 0 .02.664c.048.315.125.62.23.916.05.13.26.625.628 1.475l-.038.18-2.396.38c-.06-.057-.104-.107-.146-.148a.413.413 0 0 1-.083-.127 125.15 125.15 0 0 0-.353-2.146c-.382-2.183-.59-3.377-.624-3.577a32.02 32.02 0 0 1-.203-1.634c-.146-1.45-.24-2.343-.297-2.68a.598.598 0 0 1 .006-.27c.025-.068.07-.15.137-.245.105-.14.3-.266.59-.365.292-.106.614-.185.965-.237.6-.098 1.302-.15 2.104-.164.272 0 .627.005 1.066.02zM27.75 41.6c.815-.542 1.4-1.06 1.758-1.556.31-.426.467-.864.474-1.302-.03-.36-.212-.638-.557-.814a1.7 1.7 0 0 0-1.08-.187c-.063.016-.16.034-.29.05-.454.07-.79.306-1.01.703-.06.417-.08.864-.067 1.333.013.476.054.94.13 1.394a.67.67 0 0 0 .132.31.56.56 0 0 0 .51.07zm12.667-6.083c.73.848 1.317 1.697 1.757 2.55.49.952.773 1.905.856 2.867.09 1.022-.046 2.066-.416 3.132-.208.6-.517 1.024-.928 1.28-.303.184-.748.302-1.335.354l-2.624.227c-1.122-.042-2.036-.527-2.746-1.46a6.16 6.16 0 0 1-.51-1.234 6.477 6.477 0 0 1-.246-1.307 8.528 8.528 0 0 1 .114-2.235c.11-.657.31-1.39.596-2.19.357-.792.756-1.43 1.2-1.91.583-.622 1.23-.967 1.937-1.023.13-.017.296-.02.49-.01.2.006.503.114.904.322.242.13.562.342.953.637zm-.013 7.562c.23-.238.386-.512.46-.828.076-.307.1-.642.07-.997a5.023 5.023 0 0 0-.053-.43c-.018-.104-.05-.255-.095-.457-.152-.762-.366-1.425-.64-1.97-.35-.713-.806-1.24-1.36-1.584a.737.737 0 0 0-.46-.09 1.084 1.084 0 0 0-.277.038c-.117.03-.19.046-.22.05-.64.44-1.076 1.186-1.313 2.237-.19.84-.24 1.748-.156 2.716.04.43.18.802.42 1.125.246.323.57.53.973.63.228.033.473.064.74.094.265.03.49.035.676.02.24-.022.464-.076.667-.163.205-.088.392-.22.567-.39zm6.914-1.52c0 .62.046 1.218.137 1.8.066.43.19.957.368 1.594l-.042.295h-2.37l-.14-.31c-.13-1.24-.194-2.55-.194-3.95a41.2 41.2 0 0 1 .505-6.427l.24-.253c.26-.204.63-.355 1.105-.46.48-.1 1.007-.146 1.584-.146.656 0 1.293.058 1.918.172.62.112 1.097.255 1.42.432l.27.185-.985 1.934c-.204.04-.48-.035-.825-.212a5.32 5.32 0 0 0-.492-.236c-.264-.068-.5-.1-.717-.1-.28 0-.535.043-.77.136-.234.1-.448.25-.647.467-.147.168-.253.463-.312.887-.06.426-.092.938-.092 1.54a184.762 184.762 0 0 0 .04 2.652zm13.16-5.88c.607.942 1.072 1.86 1.39 2.77.348 1.01.5 1.994.45 2.956-.055 1.028-.34 2.043-.853 3.047-.29.563-.656.943-1.097 1.134-.326.144-.783.195-1.373.17l-2.632-.137c-1.1-.195-1.94-.806-2.517-1.83a6.703 6.703 0 0 1-.333-1.292 6.216 6.216 0 0 1-.06-1.33c.037-.7.183-1.428.422-2.2.2-.635.5-1.326.896-2.082.458-.733.948-1.308 1.45-1.717.665-.537 1.353-.79 2.06-.75.133.007.297.026.494.063.193.03.478.176.848.442.223.156.51.41.857.754zm-1.065 7.487c.262-.202.452-.453.573-.752.116-.297.185-.625.205-.98.008-.186.012-.33.008-.435a6.906 6.906 0 0 0-.035-.463c-.04-.78-.162-1.462-.352-2.04-.257-.756-.628-1.34-1.13-1.76a.73.73 0 0 0-.44-.15.99.99 0 0 0-.28 0c-.124.012-.198.017-.228.012-.69.35-1.226 1.03-1.607 2.04-.308.807-.484 1.694-.534 2.666-.023.432.065.823.265 1.174.195.35.484.606.873.754.218.068.46.135.716.2.262.065.482.103.667.11.244.016.48-.01.69-.07.214-.054.416-.16.613-.307zm10.528-2.38c.5.522.908 1.123 1.205 1.795.34.756.466 1.458.372 2.104-.048.34-.144.642-.29.897-.144.266-.368.5-.674.723-.51.412-1.073.57-1.685.488l-4.54-.644a1.395 1.395 0 0 1-.272-.587c0-1.456.104-2.93.316-4.43.114-.813.247-1.577.404-2.292.158-.715.354-1.5.588-2.352a2.06 2.06 0 0 1 .372-.933c.048-.01.108-.027.175-.048a.392.392 0 0 1 .163-.03c.3.015.554.034.756.05.62.046 1.187.11 1.717.186l.776.114c.287.046.654.142 1.105.287a1.69 1.69 0 0 1 1.018.827c.23.415.29.96.19 1.66-.058.406-.26.768-.608 1.09-.105.1-.45.342-1.036.728l-.05.37zm-3-.423a3.854 3.854 0 0 0 1.657-.617c.555-.368.93-.818 1.128-1.356a.89.89 0 0 0-.3-.705 3.7 3.7 0 0 0-.363-.174 1.46 1.46 0 0 0-.378-.103c-.21-.033-.43-.03-.656.013-.23.04-.463.114-.704.22-.39.69-.64 1.4-.74 2.137l-.034.234c.004.115 0 .192-.002.242.157.065.292.1.392.112zm.214 4.55c.14.057.3.1.478.122.455.064.872-.02 1.252-.243.383-.224.6-.544.656-.96.04-.24.005-.49-.078-.747a3.215 3.215 0 0 0-.916-1.46l-.293-.126c-.497.12-.83.206-1 .257-.415.14-.714.31-.893.51-.087.273-.147.53-.183.782-.063.452-.033.836.094 1.15.16.364.45.607.884.715zm9.716-5.503c-.105.215-.227.477-.365.765a7.07 7.07 0 0 0-.418 1.2c-.02.08-.035.16-.05.23-.03.11-.043.192-.056.25.022.005.267-.005.746-.03.478-.025.85-.004 1.113.056.508.117.867.223 1.057.316.187.09.38.227.567.405.552.51.95 1.114 1.198 1.808.253.702.3 1.363.153 2.002a2.86 2.86 0 0 1-.463 1.03c-.216.3-.51.57-.88.8-.547.363-1.116.48-1.717.338l-4.472-1.03a1.396 1.396 0 0 1-.216-.608c.122-1.45.353-2.914.695-4.39.188-.8.39-1.55.604-2.245.223-.7.484-1.464.792-2.297.078-.343.226-.636.45-.89.046-.007.108-.02.183-.036a.35.35 0 0 1 .163-.01.805.805 0 0 1 .23-.06 1.53 1.53 0 0 1 .652.032c.197.048.387.114.56.195.174.082.37.213.583.398.07.066.024.214-.146.44-.625.86-.945 1.308-.962 1.333zm9.08-.165l.103.125c-.415.792-.772 1.59-1.067 2.405a20.886 20.886 0 0 0-.76 2.57 25.83 25.83 0 0 0-.466 2.61c-.108.852-.18 1.79-.216 2.82l-.057.127-2.172-.5-.1-.194c.052-.802.135-1.617.244-2.434.113-.814.26-1.616.44-2.4a25.01 25.01 0 0 1 2-5.6l2.05.47zm-9.75 7.31a.973.973 0 0 0 .233.11c.09.034.19.057.3.084.46.107.89.053 1.272-.16.387-.217.634-.558.742-1.03.02-.094.04-.184.063-.273a3.478 3.478 0 0 1-.01-.202c0-.46-.065-.8-.19-1.026-.122-.228-.326-.415-.58-.562a9.965 9.965 0 0 0-.423-.208c-.16-.066-.27-.114-.332-.123a.577.577 0 0 0-.173-.025c-.573-.048-1.062.19-1.466.71-.19.257-.32.53-.39.83-.093.402-.062.778.095 1.13.157.345.446.595.86.742zm12.73-6.36c-.11.132-.18.22-.2.263-.02.04-.09.174-.218.386a33.983 33.983 0 0 0-1.728 4.443 34.737 34.737 0 0 0-1.116 4.956l.114.354 1.81.557.227-.262c.574-1.02 1.312-2.033 2.205-3.034.727-.823 1.622-1.7 2.68-2.624.187-.102.298-.15.327-.162.142-.048.258-.04.343.027l.08.23a55.423 55.423 0 0 1-1.245 3.64c-.42 1.082-.9 2.108-1.443 3.076l.13.112 1.712.527.216-.083a33.337 33.337 0 0 0 1.86-4.752 33.915 33.915 0 0 0 1.18-5.345l-.085-.287a.548.548 0 0 0-.215-.25 1.343 1.343 0 0 0-.352-.16 2.91 2.91 0 0 0-.73-.107 2.587 2.587 0 0 0-.364.007l-.59.245a47.086 47.086 0 0 0-4.58 4.05.766.766 0 0 1-.126.052 1.562 1.562 0 0 1-.183.046.807.807 0 0 1-.14-.266c.27-.893.596-1.757.96-2.59a17.88 17.88 0 0 1 1.235-2.34l-.03-.186a.362.362 0 0 0-.172-.19 1.68 1.68 0 0 0-.372-.148 4.48 4.48 0 0 0-.788-.152c-.11-.01-.24-.02-.402-.032zm1.655-2.308a.34.34 0 0 1 .19-.015 4.55 4.55 0 0 1 .782.253c.147.063.28.123.402.183a.674.674 0 0 0 .07.46 1.334 1.334 0 0 0 .75.583c.135.04.31.07.53.094.53.05.855-.114.974-.497.017-.042.066-.06.164-.05.093.01.207.036.343.075.215.063.44.147.672.25.04.01.1.04.164.08-.147.492-.437.85-.856 1.072-.278.15-.633.243-1.053.28-.32.03-.702-.027-1.138-.156-.423-.13-.75-.29-.988-.482a3.268 3.268 0 0 1-.903-1.16c-.182-.383-.235-.676-.176-.87.014-.05.04-.08.07-.1z"/><path d="M92.624 53.366l-2.06-.63-.626-.55.254-.454a22.98 22.98 0 0 0 1.4-3 48.14 48.14 0 0 0 .86-2.41c-.75.69-1.4 1.347-1.953 1.968a16.973 16.973 0 0 0-2.122 2.92l-.078.115-.498.566-2.536-.773-.256-.824.02-.146a35.02 35.02 0 0 1 1.14-5.047 34.467 34.467 0 0 1 1.756-4.526l.027-.05.212-.368c.04-.07.1-.162.268-.366l.208-.26.338.026c.172.012.317.023.43.037.35.038.646.1.9.175.086.027.16.05.228.08a3.908 3.908 0 0 1-.43-.715c-.252-.55-.318-.974-.206-1.333.064-.21.2-.38.39-.478l.064-.033a.99.99 0 0 1 .535-.05c.097.013.224.044.388.1.19.055.37.122.542.196.156.068.295.13.418.19l.432.203-.066.475c-.01.038-.002.063-.002.063.008.008.05.072.19.183.05.036.117.07.188.086.058.023.18.046.393.064.232.027.297-.017.297-.017a.743.743 0 0 1 .737-.534h.114c.14.018.292.05.473.107.227.066.467.156.715.262.085.03.172.074.264.132l.436.262-.15.484c-.196.657-.595 1.15-1.173 1.456-.09.048-.187.09-.284.133.22.02.42.058.616.114.205.065.38.145.525.246.19.127.342.3.437.513l.03.082.128.422-.02.14a35.077 35.077 0 0 1-1.2 5.45 33.652 33.652 0 0 1-1.9 4.843l-.116.234-.676.236zm-.955-1.646l.74.23a31.728 31.728 0 0 0 1.647-4.29 33.567 33.567 0 0 0 1.14-5.106l-.024-.068c-.017-.006-.066-.03-.158-.06-.15-.038-.338-.07-.557-.078-.114-.006-.14-.002-.205 0l-.405.17a46.89 46.89 0 0 0-4.455 3.944l-.066.07-.09.044a.93.93 0 0 1-.247.098c-.054.025-.133.04-.222.06l-.376.086-.256-.29c-.116-.13-.2-.298-.264-.487l-.064-.193.06-.195c.275-.914.61-1.81.98-2.66.313-.703.655-1.374 1.026-2.005a3.755 3.755 0 0 0-.638-.114s-.004 0-.006-.002a4.82 4.82 0 0 0-.155.272 33.138 33.138 0 0 0-1.685 4.334 32.81 32.81 0 0 0-1.058 4.62l1.008.303c.58-1 1.31-2 2.18-2.968.744-.845 1.662-1.743 2.738-2.686l.12-.086c.31-.167.378-.19.442-.212a1.03 1.03 0 0 1 .923.133l.16.12.205.616-.063.198a57.685 57.685 0 0 1-1.252 3.68c-.326.874-.71 1.722-1.124 2.522zm-.38-11.12l.075.446-.128.21a17.242 17.242 0 0 0-1.192 2.26c-.123.28-.247.57-.36.865a49.26 49.26 0 0 1 3.442-2.936l.07-.056.21-.085a4.794 4.794 0 0 1-1.02-.19c-.45-.142-.805-.308-1.096-.514zm3.363-.994a1.1 1.1 0 0 1-.216.204c.013-.004.02-.01.03-.01.097-.053.178-.113.246-.182-.022-.003-.04-.01-.06-.012zM7.658 53.362c-.098 0-.2-.008-.3-.02-.267-.042-.348-.06-.415-.083a.81.81 0 0 1-.41-.355l-.093-.157a30.386 30.386 0 0 1-2.177-6.466 33.7 33.7 0 0 1-.502-3.063 1.943 1.943 0 0 1 .01-.697 1.78 1.78 0 0 1 .275-.688l.093-.108c.152-.14.45-.35 1.37-.752a22.92 22.92 0 0 1 2.044-.772c.686-.22 1.23-.378 1.662-.47.532-.114.91-.128 1.22-.042l.524.157.69.94c.523.87.986 1.74 1.38 2.577.394.847.738 1.71 1.02 2.582.325 1.005.634 2.177.917 3.494.09.224.13.448.123.68-.013.305-.125.578-.328.795l-.063.064-.075.036a9.553 9.553 0 0 1-.474.264 6.114 6.114 0 0 1-.993.45c-.24.077-.447.12-.634.134-.288.014-.495-.038-.695-.158l-.068-.044-.442-.345.042-.36c.008-.092.017-.514-.328-2.05a82.926 82.926 0 0 0-.776-3.104 233.625 233.625 0 0 1-.604-2.308c-.137-.424-.183-.525-.19-.544 0 0-.02-.038-.113-.155a.55.55 0 0 0-.25-.116 1.117 1.117 0 0 0-.44.063c-.217.07-.478.197-.78.382-.167.1-.322.234-.467.405-.133.15-.268.38-.403.667.006.106.023.25.07.46.053.27.15.624.29 1.04.333 1.03.798 2.175 1.373 3.392.7 1.472 1.09 2.047 1.294 2.277l.22.247-.17.81-.234.146c-.146.09-.268.164-.372.216a4.89 4.89 0 0 1-.918.398 6.225 6.225 0 0 1-.486.136 1.744 1.744 0 0 1-.416.042zm-.108-1.3a.75.75 0 0 0 .237-.006c.128-.033.253-.064.37-.1.174-.056.355-.135.54-.224-.316-.48-.69-1.172-1.13-2.092a29.43 29.43 0 0 1-1.436-3.545c-.15-.463-.258-.86-.327-1.172a3.75 3.75 0 0 1-.093-.887l.004-.118.048-.117c.21-.472.426-.838.663-1.11.237-.283.503-.505.785-.673.382-.232.727-.403 1.047-.502.357-.114.7-.15 1.007-.114.34.05.663.194.958.445l.087.09c.144.176.24.315.302.427.042.085.106.234.278.76l.012.048c.054.225.258 1 .603 2.306.35 1.32.615 2.384.787 3.153.212.954.308 1.536.343 1.914.035-.01.075-.025.118-.037.193-.06.46-.19.793-.36.073-.04.152-.08.243-.134a.4.4 0 0 0-.04-.106l-.04-.13a34.695 34.695 0 0 0-.896-3.432 21.394 21.394 0 0 0-.96-2.426 27.176 27.176 0 0 0-1.3-2.434l-.38-.517-.1-.03s-.15-.036-.584.06c-.384.085-.904.235-1.537.44-.67.212-1.32.457-1.925.723-.594.255-.85.407-.952.474-.01.03-.025.066-.033.116a.63.63 0 0 0-.006.243l.006.043a34.05 34.05 0 0 0 .488 2.965c.2.943.452 1.88.753 2.798a29.62 29.62 0 0 0 1.267 3.26zm76.31-1.406l-2.987-.69-.314-.622.01-.175c.025-.36.05-.722.09-1.083-.237.262-.52.496-.85.702-.665.445-1.434.6-2.208.416l-4.73-1.095-.143-.225a2.108 2.108 0 0 1-.316-.89l-.002-.057.002-.06a31.39 31.39 0 0 1 .717-4.48 32.51 32.51 0 0 1 .617-2.298c.22-.696.486-1.468.787-2.29.106-.42.304-.797.578-1.127l.162-.18.23-.037a.967.967 0 0 0 .128-.03c.075-.016.15-.028.215-.032.095-.033.187-.048.268-.056.063-.013.17-.02.278-.02.187 0 .378.024.577.068.245.056.478.14.696.243.222.11.46.267.72.49.215.192.48.607-.04 1.32-.528.73-.834 1.16-.92 1.28-.1.198-.21.43-.335.703a6.64 6.64 0 0 0-.28.725c.49-.02.866.01 1.168.08.573.13.95.25 1.192.36.247.114.494.29.73.518a5.124 5.124 0 0 1 1.363 2.06c.003.004.005.015.007.023a25.75 25.75 0 0 1 2.046-5.725l.224-.46 2.77.647.51.627-.196.375c-.4.76-.746 1.543-1.032 2.33a21.135 21.135 0 0 0-.735 2.49 26.596 26.596 0 0 0-.455 2.545c-.104.83-.173 1.757-.203 2.76l-.01.13-.33.736zm-1.974-1.786l1.043.238c.036-.797.1-1.55.187-2.232a25.36 25.36 0 0 1 .48-2.675c.207-.93.477-1.816.782-2.653a19.74 19.74 0 0 1 .775-1.83l-.897-.197a24.75 24.75 0 0 0-1.72 4.993c-.18.765-.323 1.55-.432 2.347a34.082 34.082 0 0 0-.22 2.01zm-8.158-1.882l4.17.96c.425.1.81.02 1.212-.248.312-.19.55-.41.717-.642.176-.24.288-.5.353-.8.125-.52.083-1.054-.124-1.634a3.94 3.94 0 0 0-1.028-1.552 1.62 1.62 0 0 0-.41-.295c-.067-.03-.292-.125-.92-.27a3.022 3.022 0 0 0-.592-.045c-.11 0-.224.004-.345.012-.423.02-.672.03-.75.03l-.17-.018-.637-.146.258-1.107c.097-.405.252-.848.468-1.32.136-.306.262-.57.372-.794l.025-.043c.02-.03.035-.054.87-1.217-.033-.017-.06-.036-.08-.038a2.093 2.093 0 0 0-.425-.15 1.2 1.2 0 0 0-.41-.028.82.82 0 0 0-.1.033l-.19.066-.036-.006a1.36 1.36 0 0 0-.168.415l-.03.08a45.448 45.448 0 0 0-.773 2.263 26.188 26.188 0 0 0-.59 2.2 30.087 30.087 0 0 0-.68 4.23c.002.02.01.04.015.063zm-57.027 3.4l-.635-.585-.054-.136a34.978 34.978 0 0 1-1.536-4.94 34.948 34.948 0 0 1-.742-4.805l-.002-.056c0-.237 0-.38-.004-.422 0-.08.006-.19.05-.45l.054-.33.3-.15c.157-.078.286-.136.39-.184.327-.14.61-.237.872-.3.212-.05.386-.07.536-.07.334.004.55.133.677.24l.07.076.28.337-.01.245c-.03.83.005 1.693.096 2.555.034.31.076.62.122.933a49.322 49.322 0 0 1 1.512-4.27l.03-.08.508-.658.09-.058c.157-.108.286-.185.394-.237.27-.146.557-.26.818-.32.208-.046.403-.064.577-.054.233.018.445.097.637.228l.066.056.324.305.054.124a35.78 35.78 0 0 1 1.684 5.32c.395 1.708.656 3.443.776 5.15l.02.262-.452.546-2.102.486-.812-.166-.006-.52a23.606 23.606 0 0 0-.287-3.293 44.382 44.382 0 0 0-.464-2.52c-.303.97-.538 1.865-.706 2.68-.262 1.26-.39 2.466-.378 3.594v.066l-.162.806-2.58.592zM15.024 39.84c.145 1.615.382 3.162.714 4.593.353 1.533.82 3.053 1.39 4.525l1.024-.234c.003-1.163.138-2.39.406-3.668.227-1.1.57-2.34 1.028-3.69l.066-.132c.187-.297.23-.355.278-.407a.997.997 0 0 1 .75-.35l.114.01.2.02.485.43.046.202c.315 1.376.57 2.66.752 3.82.143.92.24 1.848.28 2.747l.758-.173a32.2 32.2 0 0 0-.717-4.54 33.604 33.604 0 0 0-1.566-4.99l-.056-.05c-.03.007-.083.01-.166.028-.15.04-.33.11-.523.218-.06.027-.114.058-.175.1l-.268.347a46.252 46.252 0 0 0-1.884 5.64l-.022.096-.052.085c-.043.068-.1.14-.162.206-.042.043-.095.1-.166.164l-.284.262-.367-.123a1.336 1.336 0 0 1-.474-.29l-.15-.13-.044-.2a24.317 24.317 0 0 1-.478-2.8 19.21 19.21 0 0 1-.112-2.244c-.17.046-.374.112-.606.216 0 0-.004 0-.008.003-.01.065-.01.17-.01.308zm11.14 8.293l-.377-.39a1.006 1.006 0 0 1-.228-.354l-.033-.126c-.142-.88-.258-1.593-.354-2.135-.394-2.242-.593-3.38-.622-3.59a27.46 27.46 0 0 1-.208-1.668c-.14-1.435-.24-2.322-.29-2.642a1.155 1.155 0 0 1 .028-.57c.042-.134.12-.277.23-.43.182-.25.477-.444.896-.595.326-.114.69-.2 1.078-.264.63-.1 1.37-.157 2.193-.17.274-.005.648-.003 1.103.018.76.014 1.433.232 1.98.648.578.432.934 1.05 1.056 1.826.146.912-.025 1.803-.5 2.66-.34.605-.888 1.245-1.682 1.957-.145.128-.73.61-1.79 1.48a.225.225 0 0 0-.052.12c-.02.127-.014.293.015.477.046.276.114.548.204.804.024.072.157.39.61 1.432l.087.197-.195.807-3.15.506zm-.834-11.104c.06.404.157 1.28.3 2.716.063.627.13 1.167.193 1.593l.623 3.567c.083.474.187 1.084.303 1.82l1.22-.19c-.276-.64-.35-.824-.378-.907a5.774 5.774 0 0 1-.262-1.035 2.985 2.985 0 0 1-.025-.852 1.56 1.56 0 0 1 .42-.87l.058-.054a190.73 190.73 0 0 0 1.794-1.48c.665-.596 1.142-1.145 1.406-1.625.336-.598.45-1.192.35-1.82-.07-.44-.248-.768-.556-.998-.332-.25-.735-.38-1.235-.386-.437-.016-.78-.02-1.043-.016-.772.012-1.45.066-2.018.154a4.702 4.702 0 0 0-.848.206c-.224.083-.29.143-.29.145-.003.014-.01.02-.015.03zm43.856 10.434a3.26 3.26 0 0 1-.405-.025l-4.804-.68-.164-.21a2.102 2.102 0 0 1-.393-.868l-.01-.114a32.582 32.582 0 0 1 .732-6.864c.155-.716.35-1.5.577-2.347.067-.426.233-.825.485-1.176l.14-.188.222-.054c.04-.01.083-.022.133-.04a.988.988 0 0 1 .343-.062l.068.006c.304.01.564.03.773.045.613.05 1.205.112 1.743.187.234.036.494.073.79.12.318.046.716.15 1.2.304a2.315 2.315 0 0 1 1.387 1.134c.295.534.39 1.228.268 2.06-.076.562-.348 1.054-.805 1.476-.085.08-.237.197-.73.536a7.08 7.08 0 0 1 1.003 1.618c.386.864.527 1.695.415 2.46a3.29 3.29 0 0 1-.36 1.125c-.188.34-.483.65-.863.93a2.735 2.735 0 0 1-1.744.627zm-4.458-1.905l4.233.593c.425.06.814-.048 1.19-.347.252-.185.414-.357.512-.532.105-.19.175-.41.212-.673.074-.52-.033-1.114-.32-1.754a5.654 5.654 0 0 0-1.084-1.612l-.218-.227.133-.958.247-.165c.772-.517.933-.642.957-.67.234-.217.365-.447.408-.705.073-.546.033-.97-.122-1.25a1.076 1.076 0 0 0-.644-.527 8.337 8.337 0 0 0-1.014-.266c-.283-.04-.54-.08-.767-.112a26.33 26.33 0 0 0-1.678-.18c-.185-.02-.39-.037-.638-.047a1.41 1.41 0 0 0-.137.444l-.017.08c-.23.84-.422 1.62-.573 2.32a31.026 31.026 0 0 0-.706 6.52c.008.026.017.05.027.067zm12.458 1.89c-.195 0-.396-.026-.598-.072a4.02 4.02 0 0 1-.36-.1 1.816 1.816 0 0 1-.307-.14c-.552-.207-.95-.574-1.168-1.073-.21-.484-.254-1-.133-1.537.094-.388.265-.752.512-1.076.614-.804 1.338-.974 1.836-.974.056 0 .116 0 .177.006.094.004.18.02.28.037.102.028.236.072.446.17.19.08.342.155.473.23.376.207.654.48.837.81.185.327.27.765.27 1.343 0 .02.005.08.01.164l.003.093-.08.343c-.152.67-.518 1.174-1.06 1.475-.354.202-.736.3-1.137.3zm-.218-3.673c-.193 0-.49.048-.806.465a1.5 1.5 0 0 0-.274.582c-.063.262-.04.5.05.727.05.115.15.277.48.394l.078.027.068.045c.01.006.036.02.083.042l.235.06c.303.068.57.038.814-.096.222-.124.354-.32.42-.61l.043-.184-.01-.13c.002-.493-.072-.678-.104-.732a.836.836 0 0 0-.337-.308c-.1-.058-.227-.114-.368-.183-.102-.04-.175-.077-.227-.09-.01 0-.026-.007-.037-.007-.055.003-.083 0-.11 0zm-39.227 2.8h-.04c-1.317-.05-2.405-.627-3.236-1.717l-.052-.085a7.126 7.126 0 0 1-.833-2.79 9.324 9.324 0 0 1 .12-2.4c.115-.686.327-1.462.624-2.3l.022-.04c.378-.856.82-1.555 1.313-2.084.693-.74 1.486-1.158 2.354-1.235.152-.013.34-.02.57-.008.302.008.678.13 1.18.395.282.147.622.374 1.046.69l.1.1c.762.878 1.383 1.777 1.845 2.674.523 1.024.835 2.073.926 3.11.096 1.106-.053 2.254-.45 3.4-.26.74-.665 1.287-1.203 1.615-.395.248-.922.394-1.616.452l-2.67.225zm-2.215-2.46c.576.738 1.294 1.118 2.187 1.164l2.584-.226c.603-.05.906-.172 1.05-.262.28-.17.502-.488.66-.945.334-.964.463-1.932.38-2.858-.075-.874-.34-1.762-.785-2.633-.406-.787-.954-1.58-1.627-2.37a6.988 6.988 0 0 0-.813-.538c-.46-.236-.615-.248-.62-.25a3.89 3.89 0 0 0-.414.004c-.55.048-1.047.322-1.522.83-.388.416-.75.992-1.067 1.705a13.022 13.022 0 0 0-.56 2.06 7.925 7.925 0 0 0-.11 2.072 5.934 5.934 0 0 0 .658 2.244zM59.3 46.408c-.11 0-.22-.003-.342-.007l-2.71-.147c-1.303-.235-2.298-.956-2.97-2.152l-.038-.095a7.165 7.165 0 0 1-.438-2.878c.04-.75.193-1.55.457-2.36.207-.668.526-1.4.934-2.19l.03-.043c.495-.794 1.026-1.424 1.592-1.88.793-.64 1.63-.944 2.507-.892.156.008.34.033.563.07.3.05.653.23 1.113.556.258.183.563.457.943.83l.085.11c.63.978 1.12 1.954 1.454 2.905.376 1.092.538 2.166.484 3.212-.06 1.107-.368 2.227-.918 3.302-.36.704-.84 1.18-1.415 1.433-.364.15-.794.222-1.334.222zm-2.862-1.436l2.592.137c.09.003.184.005.27.005.437 0 .683-.064.807-.116.302-.132.565-.417.783-.844.47-.914.73-1.85.78-2.78.042-.874-.097-1.783-.42-2.716a12.31 12.31 0 0 0-1.278-2.57 6.864 6.864 0 0 0-.728-.64c-.42-.302-.57-.34-.577-.34a5.2 5.2 0 0 0-.413-.047c-.56-.033-1.09.17-1.626.606-.445.36-.883.874-1.3 1.54-.368.712-.648 1.373-.838 1.96a8.275 8.275 0 0 0-.395 2.034 5.818 5.818 0 0 0 .337 2.314c.477.81 1.133 1.29 2.007 1.456zm-8.096.923h-3.348l-.357-.783-.008-.106c-.134-1.257-.2-2.61-.2-4.02 0-2.17.172-4.365.51-6.527l.035-.198.44-.457c.35-.27.8-.46 1.383-.585 1.097-.223 2.5-.206 3.745.02.698.126 1.226.292 1.62.5l.054.04.737.5-1.388 2.732-.315.056c-.342.06-.753-.03-1.24-.274a5.87 5.87 0 0 0-.392-.195c-.447-.107-.773-.086-1.05.024-.142.06-.28.158-.408.3 0 0-.094.113-.154.545a10.53 10.53 0 0 0-.083 1.444c0 .426.004.866.012 1.31l.03 1.33c0 .59.044 1.164.132 1.702.063.41.18.916.35 1.526l.036.133-.14.982zm-2.455-1.293h1.17c-.11-.436-.19-.814-.238-1.15a11.87 11.87 0 0 1-.148-1.892l-.03-1.32c-.008-.45-.016-.892-.016-1.328 0-.627.036-1.173.1-1.628.08-.56.232-.96.474-1.23.266-.292.563-.504.885-.63.536-.218 1.152-.253 1.886-.07l.047.014c.068.023.166.063.586.274.06.036.116.06.164.08l.492-.965a5.96 5.96 0 0 0-.946-.246 10.29 10.29 0 0 0-1.803-.156c-.53 0-1.02.044-1.45.133-.354.074-.626.18-.803.306l-.064.068a40.827 40.827 0 0 0-.467 6.127c-.005 1.264.05 2.48.16 3.614zm22.036 1.1c-.125 0-.256-.007-.383-.03a2.604 2.604 0 0 1-.592-.143c-.6-.167-1.043-.54-1.27-1.087-.173-.42-.22-.92-.136-1.487a5.03 5.03 0 0 1 .204-.883l.04-.13.09-.107c.26-.29.64-.52 1.172-.696.2-.06.542-.146 1.056-.272l.21-.048.592.255.085.075c.528.493.892 1.084 1.093 1.753.11.33.15.68.1 1.02-.085.612-.42 1.108-.965 1.434-.403.23-.836.348-1.295.348zm-.99-3.086c-.05.18-.088.355-.115.52-.048.335-.027.61.056.81.05.12.138.265.43.338l.084.027c.098.04.205.064.328.085.303.04.573-.01.833-.162a.616.616 0 0 0 .346-.492.957.957 0 0 0-.05-.453 2.506 2.506 0 0 0-.658-1.108c-.445.11-.646.167-.74.195a1.815 1.815 0 0 0-.514.24zM38.95 44.29c-.158 0-.334-.008-.528-.03a15.82 15.82 0 0 1-.772-.104l-.05-.013a2.24 2.24 0 0 1-1.333-.864 2.758 2.758 0 0 1-.553-1.46c-.09-1.027-.033-2.01.17-2.91.272-1.212.802-2.1 1.574-2.635l.137-.096.167-.018c.004-.002.056-.017.133-.035a1.73 1.73 0 0 1 .407-.056h.004c.316-.018.586.044.814.19.66.41 1.197 1.024 1.604 1.842.297.6.53 1.32.692 2.14.043.194.08.356.1.464.02.117.042.283.06.49.038.424.006.83-.083 1.21-.104.423-.315.8-.63 1.123-.23.234-.49.415-.765.53a2.96 2.96 0 0 1-1.148.23zm-1.068-1.402c.21.033.438.058.68.085.213.027.4.033.55.02.172-.016.33-.053.47-.113.128-.056.244-.142.36-.255.15-.154.245-.326.295-.52a2.46 2.46 0 0 0 .05-.79 3.67 3.67 0 0 0-.043-.377c-.015-.095-.048-.24-.09-.426-.143-.72-.34-1.33-.585-1.828-.298-.596-.678-1.042-1.123-1.32l-.11.01h-.033c-.027 0-.06.01-.102.018-.037.013-.075.02-.104.025-.445.357-.765.952-.947 1.778a8.244 8.244 0 0 0-.145 2.52c.025.307.125.566.295.79.15.192.335.314.582.383zm20.36 1.31c-.05 0-.108-.005-.165-.01a3.925 3.925 0 0 1-.793-.128c-.267-.066-.52-.137-.752-.206l-.044-.017a2.322 2.322 0 0 1-1.202-1.043 2.767 2.767 0 0 1-.34-1.518 9.596 9.596 0 0 1 .572-2.87c.438-1.158 1.088-1.964 1.928-2.38l.147-.076.153.006c.025 0 .075-.006.15-.012.176-.02.31-.015.415 0 .314.022.578.122.788.292.594.497 1.04 1.186 1.327 2.054.207.634.34 1.375.386 2.208.022.204.034.368.04.48.003.116 0 .28-.014.494a3.77 3.77 0 0 1-.254 1.18c-.162.41-.42.756-.778 1.024a2.405 2.405 0 0 1-.835.416 2.35 2.35 0 0 1-.727.105zm-1.3-1.573c.198.06.42.122.66.183.215.054.4.085.545.09.18.018.33-.003.48-.042a1.19 1.19 0 0 0 .393-.197c.168-.132.288-.288.363-.48.092-.23.147-.493.162-.773.006-.162.01-.29.006-.378 0-.1-.012-.244-.03-.435-.04-.73-.15-1.367-.32-1.888-.215-.63-.526-1.124-.93-1.462-.002 0-.022-.004-.066-.006l-.096-.018a.804.804 0 0 1-.087.01c-.04.005-.076.01-.11.013-.49.29-.89.835-1.187 1.626a8.465 8.465 0 0 0-.492 2.475c-.016.308.043.573.185.822.12.214.29.36.528.458zm-29.382-.348c-.25 0-.486-.077-.698-.222l-.075-.058-.058-.077a1.324 1.324 0 0 1-.26-.594 11.32 11.32 0 0 1-.136-1.477c-.017-.51.008-.998.07-1.445l.02-.12.058-.11c.318-.57.827-.92 1.477-1.023l.29-.045a2.31 2.31 0 0 1 1.483.25c.538.284.85.747.897 1.334v.063c-.006.573-.208 1.14-.598 1.674-.4.565-1.03 1.124-1.92 1.714l-.078.055-.09.03c-.13.034-.256.052-.384.052zm.112-3.564a7.51 7.51 0 0 0-.042 1.1c.008.348.037.695.08 1.03.584-.417 1.012-.813 1.272-1.177.227-.31.343-.606.355-.9-.017-.107-.058-.188-.21-.265-.22-.113-.44-.153-.676-.113l-.292.043c-.218.036-.37.12-.486.283zm39.264 2.302l-.087-.01a2.2 2.2 0 0 1-.53-.146l-.488-.184.07-.515c.002-.022 0-.068-.004-.13v-.056l.04-.285a6.64 6.64 0 0 1 .817-2.365l.104-.187.193-.09c.29-.126.576-.215.854-.265.3-.046.59-.054.866-.017.168.027.34.075.52.14.16.062.307.13.44.21l.124.086c.35.322.523.74.507 1.213v.102l-.038.096c-.25.667-.71 1.233-1.372 1.676-.597.386-1.25.628-1.937.718l-.08.007zm.847-2.858a5.29 5.29 0 0 0-.52 1.49c.34-.09.67-.236.98-.44.395-.263.67-.564.83-.925a.264.264 0 0 0-.037-.07c-.067-.04-.138-.065-.208-.096a.832.832 0 0 0-.23-.064 1.278 1.278 0 0 0-.46.01 2.11 2.11 0 0 0-.355.095z"/><g><path d="M31.232 60.057a7.604 7.604 0 0 1 .486 1.64c.07.448.087.867.052 1.25a2.306 2.306 0 0 1-.085.465l-2.2.347c.077-.17.135-.307.172-.412.125-.326.183-.548.18-.656a3.615 3.615 0 0 0-.026-.3c-.028-.157-.05-.273-.078-.363a.7.7 0 0 0-.075-.19l-5.776.913a.274.274 0 0 0-.022.11 1.1 1.1 0 0 0 .023.234c.024.13.055.255.094.37.042.124.09.25.154.382.06.127.154.3.283.506.038.066.088.147.16.255l-2.012.277a7.287 7.287 0 0 1-.332-.498c-.24-.42-.387-.79-.437-1.105a7.44 7.44 0 0 1-.067-1.663c.114-.114.384-.29.814-.525.3-.162.496-.412.594-.738.136-.482.254-.92.348-1.314.14-.6.247-1.16.313-1.67.092-.69.136-1.618.13-2.774-.008-.385-.025-.896-.046-1.537.033-.066.063-.114.08-.146.074-.11.136-.176.192-.2.355-.15.72-.285 1.095-.393.375-.108.745-.19 1.114-.25.5-.08.98-.122 1.44-.137.16-.004.358 0 .595.017.072.274.144.553.225.83.197.76.393 1.555.582 2.39.19.833.343 1.618.46 2.355l.207 2.746 1.368-.22zm-6.456 1.02l2.66-.425c.028-.45.043-.81.057-1.077.038-.746.08-1.402.12-1.963.026-.293.026-.62.005-.99a9.734 9.734 0 0 0-.37-2.16c-.04-.123-.087-.285-.154-.477l-1.44.23c-.016.845-.028 1.5-.034 1.968-.03 1.395-.095 2.344-.18 2.848-.113.68-.254 1.223-.43 1.63a3.2 3.2 0 0 1-.234.416zm12.6-5.932c.568.367 1.054.827 1.47 1.375.46.61.723 1.224.772 1.83.03.32.004.612-.073.874-.077.266-.23.527-.46.792-.377.48-.85.74-1.42.795l-4.245.366c-.168-.137-.29-.3-.368-.476a29.177 29.177 0 0 1-.642-4.072c-.07-.763-.104-1.48-.112-2.158a42.58 42.58 0 0 1 .038-2.252c-.03-.32.02-.627.14-.918.044-.02.097-.046.153-.085a.317.317 0 0 1 .138-.054c.274-.05.506-.087.696-.11.57-.086 1.1-.15 1.59-.194l.728-.054c.268-.02.62-.01 1.06.03a1.55 1.55 0 0 1 1.094.54c.29.322.465.8.52 1.457.032.38-.076.746-.32 1.107-.076.114-.34.407-.786.877l.025.33zm-2.8.24c.523-.192.98-.49 1.37-.9.422-.447.67-.935.736-1.47a.786.786 0 0 0-.416-.57 2.267 2.267 0 0 0-.368-.083c-.13-.02-.25-.025-.36-.013a1.99 1.99 0 0 0-.597.148 2.7 2.7 0 0 0-.59.343 5.678 5.678 0 0 0-.224 2.085l.02.22c.026.104.042.177.047.216.16.03.287.034.383.026zm1.142 4.076c.14.023.293.03.457.01a1.728 1.728 0 0 0 1.084-.48c.296-.28.427-.62.394-1.01a1.51 1.51 0 0 0-.23-.658 2.92 2.92 0 0 0-1.133-1.13l-.29-.054a16.06 16.06 0 0 0-.852.442c-.345.212-.58.428-.7.647-.02.264-.02.51 0 .746.04.424.143.765.326 1.02.217.304.53.457.944.468zm11.484-8.324c.62.83 1.11 1.662 1.464 2.474.386.916.59 1.822.602 2.715.02.95-.174 1.913-.585 2.875-.233.544-.548.918-.943 1.123-.292.154-.714.235-1.26.245l-2.45.042c-1.032-.114-1.85-.623-2.45-1.533a6.202 6.202 0 0 1-.533-2.403c-.013-.65.07-1.34.25-2.064.145-.6.377-1.263.695-1.99.38-.716.788-1.276 1.232-1.694.583-.54 1.203-.812 1.86-.824.124-.002.275.006.46.024.18.02.455.138.812.357.217.14.5.352.846.653zm-.505 7.004c.23-.2.39-.446.482-.73.088-.283.13-.586.128-.92a6.592 6.592 0 0 0-.02-.406c-.01-.095-.032-.234-.06-.426-.095-.72-.244-1.344-.464-1.867-.28-.685-.665-1.2-1.163-1.555-.103-.076-.24-.112-.415-.112a.995.995 0 0 0-.262.02c-.112.02-.183.027-.208.03-.62.367-1.072 1.032-1.358 1.993a8.346 8.346 0 0 0-.324 2.507c.01.403.116.757.32 1.068.206.314.494.532.86.645.208.046.434.094.68.135.242.04.45.064.624.06.23 0 .436-.036.63-.107.197-.074.38-.184.55-.333zm9.616-7.467c.573.135 1.033.393 1.367.778.34.392.49.874.46 1.442-.036.72-.312 1.37-.82 1.953-.377.428-.957.874-1.75 1.33-.146.076-.79.412-1.93 1.01a.84.84 0 0 0-.326.412c-.058.172-.1.376-.11.606a4.92 4.92 0 0 0 .03.876c.026.128.118.616.292 1.464l-.072.153-2.248-.12a1.554 1.554 0 0 1-.104-.16.313.313 0 0 1-.054-.13c.044-.836.074-1.505.094-2.016l.122-3.372c.027-.415.064-.924.135-1.52.145-1.347.23-2.18.246-2.49a.54.54 0 0 1 .06-.246.896.896 0 0 1 .17-.2c.118-.107.323-.178.605-.21a5.35 5.35 0 0 1 .926-.034c.564.033 1.21.114 1.94.258.252.04.57.115.967.217zm-2.747 4.862c.845-.34 1.477-.696 1.9-1.078.36-.328.59-.69.68-1.097.04-.337-.07-.617-.346-.848s-.588-.353-.945-.37c-.062-.01-.153-.012-.27-.016a1.24 1.24 0 0 0-1.055.44 8.05 8.05 0 0 0-.32 1.2 11.44 11.44 0 0 0-.152 1.292c-.005.102.02.2.063.3.113.135.26.192.446.177zm7.35-4.48a4.775 4.775 0 0 1 1.117-.022c.156.022.28.043.364.08.09.032.15.077.187.146l.06.165c-.302.74-.556 1.52-.753 2.343-.202.816-.354 1.66-.46 2.52.05.1.105.17.168.216.066-.025.118-.046.16-.068.044-.025.077-.042.11-.066a43.247 43.247 0 0 1 3.537-4.445l.496-.32c.145-.037.257-.056.342-.064.258-.037.483-.045.68-.022.14.015.26.046.353.09a.53.53 0 0 1 .23.188l.127.258c.064 1.69-.007 3.38-.22 5.078a30.342 30.342 0 0 1-.938 4.65l-.183.11-1.658-.2-.13-.084c.34-.975.61-1.99.814-3.052.212-1.06.4-2.232.555-3.526l-.108-.195c-.088-.044-.195-.035-.316.03-.03.014-.12.082-.27.2-.817 1.02-1.495 1.965-2.03 2.833-.65 1.058-1.163 2.103-1.524 3.135l-.167.27-1.744-.214-.16-.31c-.043-1.58.036-3.15.228-4.712.168-1.4.457-2.84.862-4.345.078-.216.12-.343.14-.39a1.42 1.42 0 0 1 .137-.278zM75.24 62.39c-.01.09-.018.203-.03.35-.014.15-.024.26-.034.327a1.36 1.36 0 0 1-.104.3l-.133.16-1.955-.383-.06-.265a7.736 7.736 0 0 0 .15-1.855 10.375 10.375 0 0 0-.284-1.948.836.836 0 0 0-.412-.684.54.54 0 0 0-.186-.074c-.15-.03-.315.018-.485.14-.17.12-.376.372-.62.76-.065.093-.11.182-.137.26-.03.08-.05.142-.072.19-.05.266-.06.558-.037.884.064.813.08 1.305.044 1.465a2.022 2.022 0 0 1-.153.46l-.157.195-2.006-.39a.995.995 0 0 1-.114-.394c.063-1.326.227-2.664.486-4.004.35-1.8.87-3.55 1.55-5.242l.22-.295 1.8.35.054.186a11.63 11.63 0 0 0-.74 1.854 21.92 21.92 0 0 0-.517 2.086c-.013.054.01.112.046.172.017.015.04.023.077.037.037.015.078.025.118.036.125-.095.22-.16.295-.21.26-.18.432-.31.525-.39a9.008 9.008 0 0 0 1.504-1.564c.297-.41.658-.986 1.093-1.726l1.67.33.022.24c-.227.522-.658 1.104-1.298 1.752-.795.802-1.27 1.313-1.426 1.528-.042.052-.05.146-.013.276.005.02.02.05.036.1.496.842.848 1.604 1.04 2.29.258.857.34 1.754.243 2.694z"/><path d="M22.255 65.577l-.224-.317a7.593 7.593 0 0 1-.37-.56c-.277-.487-.448-.92-.51-1.324a8.083 8.083 0 0 1-.075-1.818l.02-.24.167-.167c.112-.11.32-.28.96-.637a.537.537 0 0 0 .286-.35 45.9 45.9 0 0 0 .34-1.28c.138-.572.238-1.114.304-1.608.087-.652.128-1.556.12-2.684-.008-.375-.02-.88-.045-1.517l-.004-.164.075-.15c.054-.112.1-.188.137-.237.123-.188.27-.326.44-.407.395-.17.79-.313 1.188-.422a9.84 9.84 0 0 1 1.192-.268c.527-.085 1.04-.133 1.526-.147.14-.01.385-.005.65.014l.475.03.116.458c.067.27.142.542.22.813.205.777.404 1.59.59 2.427.192.84.35 1.646.468 2.395l.006.05.158 2.048 1.167-.185.196.463c.118.28.23.59.322.912.096.32.162.62.206.883.08.496.098.972.06 1.405a2.936 2.936 0 0 1-.108.578l-.11.403-3.807.603.503-1.1c.07-.145.12-.265.152-.35.13-.343.14-.45.143-.453-.006-.03-.008-.075-.014-.116l-4.582.723c.033.094.073.187.116.284.033.073.104.208.247.435.044.078.09.148.147.233l.576.86-3.423.484zm.096-3.626a1.455 1.455 0 0 0 0 .188c.003.39.028.728.08 1.036.038.243.158.534.355.883.02.036.045.075.077.13l.67-.094a3.814 3.814 0 0 1-.17-.42c-.05-.15-.092-.315-.117-.48s-.038-.27-.033-.365a.878.878 0 0 1 .083-.35l.144-.316 6.548-1.035.224.376c.054.086.098.193.14.34.04.11.067.265.1.447.016.108.026.233.037.374 0 .088-.007.18-.028.287l.673-.107a4.63 4.63 0 0 0-.054-1.04 4.775 4.775 0 0 0-.17-.724 5.923 5.923 0 0 0-.09-.302l-1.537.243-.262-3.416c-.115-.72-.265-1.48-.447-2.293a74.43 74.43 0 0 0-.578-2.366l-.1-.366-.064.002c-.443.017-.898.055-1.37.133-.342.053-.69.13-1.036.23a7.264 7.264 0 0 0-.893.313c.022.537.034.982.038 1.325.008 1.214-.035 2.15-.13 2.875-.07.532-.182 1.115-.33 1.732-.1.41-.213.852-.35 1.338a1.86 1.86 0 0 1-.914 1.136c-.24.127-.394.223-.493.29zm52.832 2.28l-2.744-.535-.174-.812.028-.13c.112-.576.16-1.154.134-1.698a9.703 9.703 0 0 0-.265-1.832l-.013-.104c-.01-.067-.023-.11-.06-.14-.024.018-.17.13-.45.58a.64.64 0 0 0-.074.13l-.052.146a2.51 2.51 0 0 0-.02.658c.09 1.152.07 1.47.04 1.64-.04.198-.112.406-.206.613l-.083.13-.406.5-2.706-.527-.142-.297a1.704 1.704 0 0 1-.174-.645v-.026l.002-.03c.066-1.355.232-2.732.498-4.095a29.237 29.237 0 0 1 1.583-5.367l.033-.08.507-.683 2.584.5.25.803-.114.234c-.268.536-.51 1.128-.702 1.76-.08.266-.155.544-.232.818a8.6 8.6 0 0 0 1.14-1.236c.28-.387.64-.947 1.052-1.664l.23-.398 2.61.505.07.89-.065.15c-.265.6-.726 1.24-1.43 1.947a41.92 41.92 0 0 0-1.22 1.273c.484.822.822 1.596 1.02 2.283.267.938.352 1.927.256 2.94-.006.08-.02.19-.03.337a4.455 4.455 0 0 1-.047.402c-.027.152-.08.304-.145.45l-.035.082-.448.525zm-1.55-1.623l.927.183c0-.03.003-.06.005-.098.015-.153.023-.274.033-.363a6.58 6.58 0 0 0-.205-2.458c-.18-.632-.505-1.344-.98-2.14l-.05-.105a3.6 3.6 0 0 1-.048-.15c-.114-.41-.002-.683.127-.84.114-.167.413-.514 1.475-1.59.37-.378.664-.73.876-1.05l-.49-.093c-.343.578-.638 1.03-.897 1.386a9.548 9.548 0 0 1-1.61 1.685c-.105.09-.292.224-.565.417-.074.05-.166.114-.28.2l-.16.116c.18-.048.36-.06.532-.025.14.03.27.083.4.16.412.253.663.65.715 1.128.17.722.266 1.402.29 2.03a9.27 9.27 0 0 1-.095 1.607zm-4.513-.875l1.122.22c.007-.022.01-.04.015-.06.002-.024.027-.25-.054-1.29a3.96 3.96 0 0 1 .046-1.057l.032-.104.068-.188a1.85 1.85 0 0 1 .203-.398c.283-.45.536-.752.783-.93.108-.076.218-.14.33-.182l-.224-.048a1.475 1.475 0 0 1-.19-.044.964.964 0 0 1-.28-.14l-.084-.063-.06-.08a.9.9 0 0 1-.146-.655 22.02 22.02 0 0 1 .536-2.158c.146-.468.312-.92.496-1.348l-.69-.136a28.405 28.405 0 0 0-1.438 4.94 27.927 27.927 0 0 0-.467 3.722zm-2.686.822l-2.016-.25-.695-.426.17-.49c.328-.94.595-1.938.798-2.964.13-.67.26-1.396.37-2.162-.524.698-.98 1.353-1.355 1.967a15.704 15.704 0 0 0-1.473 3.01l-.052.117-.385.628-2.5-.308-.385-.743-.002-.146a32.813 32.813 0 0 1 .23-4.807c.173-1.422.47-2.91.874-4.432l.02-.052.133-.374a2.39 2.39 0 0 1 .188-.384l.16-.287.337-.038c.164-.02.297-.03.4-.04.34-.02.625-.012.87.02.2.03.374.06.507.114a.97.97 0 0 1 .527.446l.042.092.14.396-.094.23c-.287.712-.53 1.47-.72 2.25-.056.213-.105.432-.15.647a46.68 46.68 0 0 1 2.552-3.08l.06-.063.66-.424.105-.03c.182-.038.314-.067.427-.08.26-.035.57-.048.826-.017.195.027.376.068.532.14.205.094.372.232.5.415l.044.08.188.37.008.142c.06 1.716-.013 3.46-.22 5.183-.2 1.626-.52 3.217-.96 4.748l-.07.25-.592.354zm-1.09-1.438l.622.074c.36-1.337.632-2.73.804-4.142.193-1.61.27-3.233.22-4.837l-.02-.028a.88.88 0 0 0-.124-.027c-.15-.02-.32-.008-.516.023-.06.004-.114.015-.177.03l-.332.208a44.068 44.068 0 0 0-3.43 4.32l-.053.086-.078.06c-.06.04-.13.088-.213.123-.05.028-.12.06-.2.096l-.356.148-.297-.245a1.434 1.434 0 0 1-.338-.416l-.096-.18.023-.2c.112-.88.27-1.76.477-2.6a18.69 18.69 0 0 1 .596-1.942 4.02 4.02 0 0 0-.516 0 2.656 2.656 0 0 1-.085.244 30.81 30.81 0 0 0-.837 4.227 30.897 30.897 0 0 0-.222 4.347l.893.11c.367-1 .876-2.02 1.505-3.045.546-.888 1.25-1.86 2.075-2.897l.107-.11c.252-.187.318-.236.383-.268a.995.995 0 0 1 .903-.03l.183.097.304.555-.033.205a46.647 46.647 0 0 1-.56 3.575c-.16.832-.367 1.65-.612 2.44zm-41.938.835l.833-1.235a2.04 2.04 0 0 0 .18-.32c.15-.35.278-.845.382-1.47.083-.478.14-1.4.175-2.76.004-.464.012-1.12.03-1.97l.007-.54 2.515-.4.176.513c.066.2.123.37.162.5.125.422.22.858.29 1.3.047.285.08.624.107 1.006a7.25 7.25 0 0 1-.004 1.087c-.04.558-.08 1.2-.122 1.942-.01.264-.025.625-.054 1.082l-.03.52-4.648.747zm2.886-7.185c-.01.59-.017 1.063-.025 1.427-.035 1.445-.098 2.41-.19 2.95-.067.42-.148.786-.242 1.11l.982-.153c.012-.218.02-.402.03-.55.04-.765.08-1.42.124-1.987.02-.267.02-.57 0-.9a11.432 11.432 0 0 0-.088-.886 8.96 8.96 0 0 0-.236-1.063l-.354.05zm6.92 7.078l-.207-.172a1.925 1.925 0 0 1-.544-.718l-.037-.11a29.88 29.88 0 0 1-.656-4.17 28.134 28.134 0 0 1-.114-2.21c-.006-.676.006-1.432.04-2.242-.03-.413.038-.806.193-1.182l.093-.214.21-.11c.028-.014.06-.04.105-.056a.908.908 0 0 1 .378-.15c.276-.045.51-.086.706-.11.566-.084 1.112-.15 1.62-.194.22-.02.468-.037.738-.06.297-.02.686-.013 1.16.033a2.203 2.203 0 0 1 1.523.747c.38.43.614 1.043.682 1.836.044.532-.102 1.045-.432 1.535-.06.087-.17.223-.52.604.45.35.86.766 1.21 1.232.537.71.84 1.438.905 2.16.037.4.002.773-.098 1.113-.102.35-.303.702-.592 1.032-.47.6-1.1.947-1.853 1.014l-4.51.393zm.454-1.363c.004.008.01.015.013.02l3.93-.34c.394-.04.7-.21.967-.55.19-.214.3-.4.35-.57.053-.186.07-.402.05-.64-.043-.483-.263-.983-.65-1.492a5.306 5.306 0 0 0-1.3-1.226l-.265-.175-.08-.893c-.08.11-.167.207-.263.313-.293.305-.622.563-.98.767a9.87 9.87 0 0 1 .275-.138l.19-.093.61.11.1.056c.587.335 1.05.8 1.372 1.372.17.275.278.596.31.922.052.586-.156 1.113-.596 1.535a2.376 2.376 0 0 1-1.47.653c-.2.02-.393.017-.573-.01-.594-.023-1.08-.277-1.412-.734-.247-.355-.395-.805-.442-1.34a4.845 4.845 0 0 1 0-.853l.01-.14.066-.12c.178-.325.48-.612.93-.89.075-.038.164-.09.28-.152a4.073 4.073 0 0 1-.293.118l-.083.03-.087.01c-.133.016-.3.012-.523-.023l-.513-.066-.043-.518c-.002-.017-.014-.058-.027-.114l-.023-.178-.017-.146a6.366 6.366 0 0 1 .248-2.33l.062-.198.172-.13c.237-.18.482-.322.73-.423a2.38 2.38 0 0 1 1.3-.177c.155.022.307.054.45.1l.14.056c.396.22.65.575.736 1.024l.017.095-.01.103a3.1 3.1 0 0 1-.494 1.31l.048-.047c.6-.64.708-.784.725-.805.158-.23.227-.453.206-.684-.046-.493-.167-.87-.354-1.083a.975.975 0 0 0-.667-.328 7.3 7.3 0 0 0-.965-.026l-.717.056c-.48.04-1.003.108-1.55.19-.16.022-.342.05-.556.086a1.348 1.348 0 0 0-.02.39v.076c-.032.808-.046 1.554-.038 2.225.006.658.042 1.373.108 2.112a28.58 28.58 0 0 0 .614 3.9zm1.417-3.034c-.004.166 0 .323.013.47.025.307.098.548.208.703.07.095.17.19.424.19l.09.008c.094.015.194.015.302.01.28-.026.5-.124.69-.307.157-.146.217-.292.198-.482a.842.842 0 0 0-.13-.376 2.318 2.318 0 0 0-.794-.84 9.13 9.13 0 0 0-.607.316 1.973 1.973 0 0 0-.394.308zm-.166-4.202a5 5 0 0 0-.154 1.35c.266-.147.5-.33.72-.557.29-.312.468-.63.54-.972-.007-.01-.014-.02-.022-.024a1.12 1.12 0 0 0-.194-.037.674.674 0 0 0-.212-.013 1.31 1.31 0 0 0-.4.104c-.09.04-.186.09-.277.15zM53.85 61.36l-3.015-.16-.282-.445a1.01 1.01 0 0 1-.144-.38l-.012-.067.004-.06c.043-.83.075-1.498.093-2.007.048-1.4.114-3.127.123-3.382.024-.422.068-.945.135-1.552.15-1.33.227-2.158.247-2.462.01-.2.054-.376.14-.527.07-.118.17-.24.305-.357.218-.195.53-.323.953-.376a6.22 6.22 0 0 1 1.037-.037c.59.033 1.277.123 2.03.27.265.046.59.12 1.006.227.694.162 1.272.495 1.698.985.448.516.656 1.157.62 1.897-.045.865-.375 1.653-.98 2.345-.43.49-1.058.97-1.92 1.468-.155.09-.78.412-1.908.997a.172.172 0 0 0-.056.08c-.04.11-.067.255-.075.425a3.92 3.92 0 0 0 .03.763c.008.05.056.32.278 1.408l.046.214-.353.734zm-2.134-1.407l1.042.054c-.116-.59-.15-.76-.16-.837a5.84 5.84 0 0 1-.04-1.003c.023-.295.07-.563.15-.794.11-.3.297-.55.565-.725l.07-.042c1.408-.73 1.82-.947 1.915-1 .717-.416 1.25-.81 1.578-1.19.414-.474.634-.983.663-1.56.018-.4-.082-.72-.305-.98-.25-.28-.58-.472-1.025-.572-.395-.1-.706-.174-.943-.216a15.415 15.415 0 0 0-1.853-.253 4.48 4.48 0 0 0-.802.033c-.203.024-.27.064-.27.064s-.005.004-.005.006c-.024.376-.107 1.192-.25 2.51a29.184 29.184 0 0 0-.134 1.48c-.002.112-.025.697-.118 3.36-.024.438-.046.992-.08 1.665zM44 61.257l-.04-.002c-1.23-.135-2.215-.747-2.92-1.825l-.047-.085a6.653 6.653 0 0 1-.594-2.657 8.593 8.593 0 0 1 .27-2.23c.15-.637.395-1.343.726-2.097l.02-.045c.412-.77.874-1.396 1.364-1.856.702-.65 1.475-.985 2.295-1l.052-.004c.13 0 .295.01.478.028.29.033.635.175 1.09.45.255.158.56.392.933.715l.093.103c.65.868 1.168 1.744 1.54 2.606.422.99.642 1.982.66 2.957.02 1.038-.196 2.1-.64 3.143-.294.68-.71 1.167-1.24 1.443-.383.197-.894.305-1.546.315l-2.493.04zm-1.852-2.492c.48.71 1.105 1.1 1.913 1.198l2.406-.045c.55-.007.833-.098.97-.167.262-.138.478-.405.648-.807.372-.87.552-1.75.536-2.608-.012-.81-.202-1.637-.557-2.468a11.506 11.506 0 0 0-1.342-2.287 5.83 5.83 0 0 0-.71-.542c-.392-.24-.535-.266-.54-.266a3.764 3.764 0 0 0-.348-.022c-.528.01-.995.23-1.46.654-.384.363-.754.868-1.092 1.5a11.782 11.782 0 0 0-.65 1.86 7.492 7.492 0 0 0-.23 1.898c.005.37.05.74.13 1.1.077.34.187.678.328 1.003zm3.34.46a4.22 4.22 0 0 1-.708-.07c-.255-.04-.492-.095-.712-.145l-.05-.01a2.217 2.217 0 0 1-1.205-.908 2.633 2.633 0 0 1-.424-1.41 8.902 8.902 0 0 1 .348-2.704c.333-1.113.89-1.91 1.65-2.357l.148-.093.172-.002c-.006 0 .04-.01.106-.02.167-.032.3-.037.41-.03.31.008.558.087.757.232.59.426 1.056 1.043 1.384 1.834.237.576.407 1.26.502 2.034.033.188.054.34.063.44.01.112.02.264.024.463.008.4-.046.777-.158 1.13-.125.393-.35.735-.673 1.02a2.388 2.388 0 0 1-.758.453 2.6 2.6 0 0 1-.835.146h-.042zm-1.102-1.47c.19.042.396.086.62.123.192.035.354.048.482.048.175-.002.318-.027.445-.068.116-.04.23-.112.336-.206a.996.996 0 0 0 .294-.44c.066-.214.1-.455.096-.712a4.577 4.577 0 0 0-.017-.345c-.01-.092-.03-.22-.054-.4-.088-.678-.23-1.25-.425-1.717-.23-.56-.538-.986-.922-1.27-.002.003-.017 0-.037 0h-.075a.69.69 0 0 0-.097.01l-.087.016c-.42.295-.746.816-.968 1.554-.21.7-.305 1.48-.293 2.308.004.276.075.514.212.726.117.184.277.3.49.373zm9.12-1.57c-.34 0-.642-.133-.868-.386l-.06-.07-.04-.082a1.2 1.2 0 0 1-.127-.617c.028-.45.086-.91.167-1.372.085-.467.197-.907.34-1.31l.04-.113.084-.09c.41-.462.947-.7 1.575-.657l.268.014c.498.025.945.202 1.327.52.438.374.644.88.57 1.43l-.012.06c-.116.532-.415 1.01-.883 1.425-.47.437-1.156.83-2.083 1.198l-.09.038-.093.008c-.035.006-.075.006-.114.006zm.586-3.265c-.1.297-.186.625-.245.97a8.992 8.992 0 0 0-.118.87c.567-.255 1.004-.517 1.297-.787.26-.23.417-.465.48-.718.008-.075-.007-.146-.12-.24a.87.87 0 0 0-.568-.222l-.323-.02a.59.59 0 0 0-.405.147z"/></g></g></svg>