<?xml version="1.0" encoding="utf-8"?>
<!-- Generator: Adobe Illustrator 15.0.2, SVG Export Plug-In . SVG Version: 6.00 Build 0)  -->
<!DOCTYPE svg PUBLIC "-//W3C//DTD SVG 1.1//EN" "http://www.w3.org/Graphics/SVG/1.1/DTD/svg11.dtd">
<svg version="1.1" id="Layer_1" xmlns="http://www.w3.org/2000/svg" xmlns:xlink="http://www.w3.org/1999/xlink" x="0px" y="0px"
	 width="100px" height="100px" viewBox="0 0 100 100" enable-background="new 0 0 100 100" xml:space="preserve">
<path fill="#ADADAD" d="M44.529,67.909h7.923v1.31c0.062-0.07,0.123-0.139,0.187-0.205c0.834-0.857,1.924-1.287,3.272-1.287
	c1.308,0,2.333,0.426,3.08,1.277c0.745,0.852,1.145,1.99,1.12,4.037h-6.627c0,1.629,1.33,2.508,3.197,2.498l3.245-0.002l2.489-3.029
	l-3.564-4.599h2.275l2.412,3.125l2.386-3.125h2.263l0,0h1.906v3.521h4.309v-3.521h1.914v6.516l4.683-6.515
	C81,67.909,81,67.909,81,67.909h0.119h1.898c0,0,0,0,0,0.001h0.02v9.152h-1.918v-6.512l-4.678,6.512c-0.002,0-0.002,0-0.002,0
	h-0.123l0,0h-1.914v-4.037h-4.309v4.037h-1.916l0,0H66.05l-2.483-3.102l-2.506,3.102h-0.949h-1.438h-0.978h-1.28
	c-1.435,0-2.772-0.177-3.798-1.279c-0.854-0.916-1.229-2.059-1.229-3.395c0-1.123,0.271-2.072,0.813-2.849h-2.853v7.522h-1.916
	V69.54l-3.248-0.001L44.529,67.909L44.529,67.909z M96.033,77.064h-1.912l-0.16-0.486c-0.02-0.055-0.314,0.285-1.232,0.477
	c-0.365,0.074-0.637,0.111-0.855,0.127c-0.213,0.017-0.368,0.008-0.458,0.008c-0.091,0-0.161-0.006-0.212-0.006
	c-0.924,0-1.59-0.328-2.128-0.799c-0.537-0.469-0.986-1.302-1.005-2.111c-0.018-0.768,0.052-1.397,1.041-2.238
	c0.99-0.842,2.734-1.004,4.072-1.063l0.707-0.031c0-0.444-0.018-0.85-0.146-1.045c-0.734-1.117-3.613-0.813-4.69-0.377v-1.543
	c0.873-0.186,1.682-0.244,2.426-0.244c1.388,0,2.412,0.231,3.179,0.728c0.647,0.418,1.12,1.203,1.12,1.92v4.619
	C95.779,75.789,95.841,76.471,96.033,77.064L96.033,77.064z M93.891,75.313c0-1.016,0-2.029,0-3.045
	c-0.584,0.041-1.17,0.072-1.875,0.205c-0.697,0.133-1.363,0.377-1.689,0.768c-0.328,0.39-0.376,0.671-0.342,1.091
	c0.041,0.469,0.256,0.746,0.584,1.055c0.339,0.318,0.777,0.46,1.291,0.466c0.301,0.002,0.64,0.004,1.113-0.117
	C93.337,75.609,93.596,75.549,93.891,75.313L93.891,75.313z M88.919,67.91h-2.231l-3.564,4.484l3.908,4.67h2.406l-4.14-4.672
	L88.919,67.91L88.919,67.91z M68.18,67.92l-3.496,4.58l3.496,4.418V67.92L68.18,67.92z M53.484,71.568l4.73,0.002
	c0-0.682-0.204-1.23-0.613-1.646c-0.41-0.416-0.959-0.623-1.646-0.623C54.491,69.301,53.484,70.041,53.484,71.568z"/>
<path fill="#ADADAD" d="M40.62,62.061h5.132l-1.223,5.91h-1.964l1.493,2.229l-1.455,6.992h-5.131l1.278-6.147h-1.095l-1.279,6.147
	h-5.13l1.279-6.147h-1.096l-1.279,6.147h-5.131l1.563-7.514l2.354-0.002l-1.797-2.673l1.028-4.942h5.132l-1.242,5.967h1.096
	l1.241-5.967h5.132l-1.242,5.967h1.096L40.62,62.061L40.62,62.061z M3.472,62.063c2.716,0,5.432,0,8.148,0l2.449,3.656
	l-2.387,11.473h-5.13l2.52-12.11H7.976l-2.52,12.11H0.324L3.472,62.063L3.472,62.063z M23.95,62.063l-3.083-0.002l0,0l-5.065,0.002
	l-2.369,11.467l2.348,3.662l8.208-0.006l2.391-11.465L23.95,62.063L23.95,62.063z M18.401,74.186l1.883-9.108h1.1l-1.893,9.108
	H18.401z"/>
<path fill="#ADADAD" d="M13.416,56.707c-0.408-0.559-0.889-0.984-1.355-2.143c0,0,0.179-1.975,0.319-3.513l-0.008-0.021l0.008,0.021
	l-1.391,0.001c0.001-0.099,0.395-4.771,0.731-8.716c-0.005,0.062,1.132,1.262,1.475,1.54c1.533,1.313,3.223,2.033,4.766,1.821
	l0.005-0.002l-2.298,1.3c-0.446,0.241-0.96,0.634-1.239,0.879c-0.556,0.659-0.767,1.426-1.114,2.521
	c-0.174,0.854-0.095,1.104,0.666,2.461l1.95,3.496L13.416,56.707L13.416,56.707z M8.961,47.304c0.401,0.037,0.917,0.023,1.717-0.062
	l0.47-5.608l0,0c-0.937,0.329-2.24,0.498-3.577,0.573l-0.587,2.085c0.402,0.116,0.966,0.11,1.113,0.126
	C8.281,46.104,8.848,47.293,8.961,47.304L8.961,47.304z M17.625,45.211c0.683,0.023,1.508-0.126,1.926-0.544
	c-0.171-0.157-0.076-0.076-0.198-0.199c-0.796,0.268-1.324-0.578-1.465-1.297c-0.305-1.31,0.601-4.188-0.404-6.745
	c-0.511-1.104-0.908-1.473-1.621-2.039c-1.37-0.916-2.892-1.169-3.225-1.19c-1.598-0.101-1.919-0.059-2.681-0.003
	c0.042,0.837,0.086,1.674,0.128,2.511c-0.798,0.65-1.601,1.347-1.939,2.335c-0.169,0.923-0.432,2.631-1.827,3.222
	C6.235,41.305,5.989,41.387,6,41.524c0.05,0.622,5.179-0.196,5.402-0.543c0.048,0.068,1.827,2.267,2.515,2.691
	C15.034,44.487,16.226,45.181,17.625,45.211L17.625,45.211z M4.533,60.314h17.799c-0.452-2.099-1.023-4.191-1.503-6.273h0.625
	l1.504,6.273h2.587c0.915-1.213,1.942-2.437,2.862-3.646c0.137-0.182,0.485-0.313,0.73-0.27c0.457,0.059,1.048,0.135,1.762,0.213
	c-0.474-0.389-1.172-0.844-1.371-1.477c-0.14-0.677,0.104-1.32,0.175-1.593c0.215-0.829,1.066-1.187,2.749-1.705l3.107-1.037
	l0.19,0.497l-4.325,1.454c-0.22,0.08-0.484,0.203-0.64,0.29c-0.497,0.275-0.808,1.602-0.668,1.968
	c0.11,0.484,1.475,1.627,2.121,1.767l6.205,0.761v0.554l-8.937-1.096c-0.29-0.043-0.564-0.044-0.75,0.178
	c-0.657,0.871-1.801,2.264-2.459,3.143h16.105c1.052-0.637,2.203-1.514,2.203-2.094c0-0.687,0-0.445,0-1.156
	c0.05-0.941-4.458-6.899-6.703-7.398c-0.579-0.128-0.773-0.323-3.063-0.308c-1.825,0.102-3.908,0.461-5.905,0.648l-5.525-1.314
	l0.438-0.439c0.407,0.121,1.026,0.243,1.398,0.35c1.749,0.347,3.529-0.051,3.575-0.75l-3.921-0.934l0.181-0.436
	c0.376,0.089,2.248,0.486,2.452,0.521c1.651,0.364,3.768-0.24,3.882-0.941l-5.651-1.227l0.182-0.436l3.156,0.528
	c1.063,0.227,2.061,0.234,2.977-0.186c0.928-0.384,1.653-1.041,1.8-1.652l-7.839-0.617v-0.437L29.63,42.2
	c3.192,0.151,4.831-0.89,5.06-2.208l-8.818,0.488l-0.051-0.438c0.519-0.102,6.572-0.342,8.089-0.902
	c2.028-0.631,2.992-1.963,3.097-2.967l-11.454,2.585l-0.136-0.417l7.021-1.807c2.015-0.424,6.967-1.793,6.929-4.629
	c-4.893,1.58-9.594,3.186-14.51,4.761l-0.207-0.419l9.179-3.173c5.333-1.571,7.03-5.146,6.565-5.972
	c-5.546,2.674-10.873,5.124-16.419,7.797l-0.21-0.358c0.609-0.305,6.622-3.28,10.069-5.033c2.142-1.07,5.699-2.883,6.379-5.312
	c0.129-0.438,0.343-1.205,0.201-1.645l-17.346,10.63l-0.234-0.336l10.718-6.897c1.528-0.97,2.429-1.58,3.283-2.481
	c1.673-1.635,2.215-4.743,1.609-5.468l-17.88,14.456c-0.832,0.696-1.082,1.641-0.749,2.836l1.867,6.757
	c0.243,1.15-0.48,2.436-0.75,2.604c-2.273,1.417-5.684,3.022-6.143,3.746c-0.453,0.712-1.165,2.5-0.837,3.165
	c0.93,1.651,1.997,3.59,2.95,5.277l-5.963,0.838l-3.796-0.76L4.533,60.314z"/>
<path fill="#ADADAD" d="M96.234,68.477c-0.002-0.496,0.175-0.924,0.529-1.278c0.354-0.356,0.784-0.534,1.285-0.534
	c0.499,0,0.928,0.177,1.28,0.531c0.354,0.354,0.53,0.781,0.53,1.281c0,0.504-0.176,0.933-0.53,1.285s-0.781,0.527-1.28,0.527
	c-0.501,0-0.93-0.178-1.283-0.531C96.413,69.404,96.234,68.977,96.234,68.477L96.234,68.477z M96.577,68.477
	c0,0.424,0.144,0.787,0.431,1.09c0.287,0.304,0.635,0.453,1.042,0.449c0.406,0.004,0.753-0.146,1.041-0.447
	c0.286-0.299,0.429-0.664,0.429-1.092c0-0.426-0.143-0.787-0.429-1.088c-0.288-0.301-0.635-0.451-1.041-0.451
	c-0.407,0-0.755,0.15-1.042,0.451S96.577,68.051,96.577,68.477L96.577,68.477z M97.387,69.367h0.336v-0.752h0.274
	c0.138,0,0.237,0.023,0.299,0.07c0.06,0.047,0.095,0.137,0.101,0.268c0.006,0.197,0.014,0.309,0.021,0.336
	c0.008,0.027,0.022,0.055,0.047,0.078h0.347c-0.021-0.021-0.033-0.043-0.043-0.067s-0.019-0.146-0.027-0.362
	c-0.012-0.146-0.037-0.248-0.076-0.311s-0.102-0.104-0.184-0.125v-0.01c0.097-0.038,0.172-0.092,0.226-0.158
	c0.053-0.066,0.08-0.152,0.08-0.256c0-0.17-0.052-0.299-0.155-0.389c-0.104-0.092-0.251-0.135-0.439-0.135h-0.803v1.813H97.387z
	 M97.723,67.803v0.564h0.389c0.113,0,0.197-0.024,0.248-0.075c0.053-0.05,0.08-0.121,0.084-0.214c0-0.09-0.03-0.158-0.09-0.205
	c-0.057-0.047-0.15-0.07-0.277-0.07H97.723z"/>
<path fill="#ADADAD" d="M37.49,43.253c-0.002-0.498,0.173-0.924,0.528-1.279c0.356-0.356,0.784-0.534,1.285-0.534
	c0.5,0,0.928,0.177,1.281,0.531c0.354,0.354,0.531,0.781,0.531,1.282c0,0.504-0.177,0.933-0.531,1.285
	c-0.353,0.353-0.781,0.528-1.281,0.528c-0.501,0-0.928-0.177-1.282-0.531S37.49,43.754,37.49,43.253L37.49,43.253z M37.832,43.253
	c0,0.425,0.144,0.789,0.43,1.09c0.287,0.302,0.634,0.452,1.042,0.448c0.408,0.003,0.754-0.145,1.041-0.446
	c0.287-0.3,0.43-0.665,0.43-1.093c0-0.425-0.143-0.787-0.43-1.087c-0.287-0.301-0.633-0.451-1.041-0.451
	c-0.407,0-0.754,0.15-1.042,0.451C37.976,42.466,37.832,42.829,37.832,43.253L37.832,43.253z M38.64,44.145h0.336v-0.751h0.274
	c0.139,0,0.238,0.023,0.298,0.07c0.061,0.047,0.094,0.136,0.101,0.267c0.007,0.197,0.014,0.31,0.021,0.337
	c0.007,0.027,0.022,0.053,0.046,0.078h0.347c-0.021-0.021-0.035-0.043-0.044-0.067c-0.008-0.024-0.018-0.145-0.029-0.362
	c-0.009-0.145-0.035-0.249-0.075-0.311c-0.04-0.063-0.101-0.104-0.184-0.125v-0.01c0.097-0.038,0.172-0.091,0.225-0.158
	c0.054-0.067,0.08-0.153,0.08-0.257c0-0.169-0.051-0.299-0.155-0.388c-0.104-0.09-0.25-0.134-0.44-0.134H38.64V44.145L38.64,44.145z
	 M38.977,42.58v0.565h0.389c0.114,0,0.197-0.025,0.248-0.075c0.053-0.05,0.079-0.122,0.083-0.215c0-0.089-0.03-0.157-0.088-0.204
	c-0.059-0.046-0.152-0.07-0.28-0.07L38.977,42.58L38.977,42.58z"/>
</svg>
