<svg xmlns="http://www.w3.org/2000/svg" width="100" height="100" viewBox="0 0 100 100"><path fill="#ADADAD" d="M44.53 67.91h7.922v1.31c.062-.07.123-.14.187-.206.833-.857 1.923-1.287 3.27-1.287 1.31 0 2.334.426 3.08 1.277.746.852 1.146 1.99 1.12 4.037h-6.626c0 1.63 1.33 2.51 3.197 2.5l3.246-.003 2.49-3.03-3.565-4.598h2.276l2.412 3.124 2.386-3.125h4.169v3.52h4.31v-3.52h1.913v6.515L81 67.91h2.037v9.152H81.12V70.55l-4.68 6.512H74.4v-4.037h-4.31v4.037H66.05l-2.483-3.102-2.506 3.102h-4.644c-1.435 0-2.772-.177-3.798-1.28-.854-.915-1.23-2.058-1.23-3.394 0-1.123.272-2.072.814-2.85H49.35v7.523h-1.917v-7.52h-3.248l.344-1.63zm51.503 9.154H94.12l-.16-.486c-.02-.055-.313.285-1.23.477-.366.074-.638.11-.856.127-.213.017-.368.008-.458.008-.09 0-.16-.006-.212-.006-.924 0-1.59-.328-2.128-.8-.537-.468-.986-1.3-1.005-2.11-.017-.768.053-1.397 1.042-2.238.99-.842 2.734-1.004 4.072-1.063l.707-.03c0-.445-.017-.85-.145-1.046-.734-1.117-3.613-.813-4.69-.377v-1.543a11.52 11.52 0 0 1 2.426-.244c1.39 0 2.413.23 3.18.728.647.42 1.12 1.204 1.12 1.92V75c0 .79.06 1.47.253 2.064zm-2.142-1.75v-3.046c-.583.04-1.17.072-1.874.205-.697.133-1.363.377-1.69.768-.327.39-.375.672-.34 1.092.04.47.255.746.583 1.055.338.318.776.46 1.29.466.3.002.64.004 1.113-.117.364-.127.623-.187.918-.423zm-4.97-7.404h-2.232l-3.564 4.484 3.908 4.67h2.406l-4.14-4.672 3.62-4.482zm-20.74.01l-3.496 4.58 3.496 4.418V67.92zm-14.696 3.648l4.73.002c0-.682-.204-1.23-.613-1.646-.41-.416-.958-.623-1.645-.623-1.464 0-2.47.74-2.47 2.268z"/><path fill="#ADADAD" d="M40.62 62.06h5.132l-1.223 5.91h-1.965l1.493 2.23-1.455 6.992h-5.13l1.277-6.147h-1.095l-1.28 6.147h-5.13l1.28-6.147H31.43l-1.28 6.147h-5.13l1.562-7.514 2.354-.002-1.797-2.673 1.027-4.942H33.3l-1.243 5.968h1.096l1.24-5.967h5.133l-1.242 5.968h1.096l1.24-5.967zm-37.148.003h8.148l2.45 3.656L11.68 77.19h-5.13l2.52-12.11H7.976l-2.52 12.11H.324l3.148-15.13zm20.478 0l-3.083-.002-5.065.003-2.37 11.467 2.35 3.662 8.207-.006 2.39-11.465-2.43-3.657zM18.4 74.186l1.884-9.108h1.1l-1.893 9.108H18.4zM13.416 56.707c-.408-.56-.89-.984-1.355-2.143l.32-3.513-.008-.02.008.02-1.39.002c0-.1.394-4.77.73-8.716-.005.062 1.132 1.262 1.475 1.54 1.533 1.313 3.223 2.033 4.766 1.82h.006l-2.298 1.3c-.446.24-.96.633-1.24.878-.555.66-.766 1.426-1.113 2.52-.174.855-.095 1.105.666 2.462l1.95 3.496-2.514.355zM8.96 47.304c.402.037.918.023 1.718-.062l.47-5.608c-.937.33-2.24.498-3.577.573l-.586 2.085c.402.116.966.11 1.113.126.184 1.686.75 2.875.864 2.886zm8.665-2.093c.683.024 1.508-.125 1.926-.543-.17-.157-.075-.076-.197-.2-.796.27-1.324-.577-1.465-1.296-.305-1.31.6-4.187-.404-6.744-.51-1.104-.908-1.473-1.62-2.04-1.37-.915-2.893-1.168-3.226-1.19-1.598-.1-1.92-.058-2.68-.002.04.837.085 1.674.127 2.51-.798.65-1.6 1.348-1.94 2.336-.168.923-.43 2.63-1.826 3.222-.085.043-.33.125-.32.262.05.622 5.18-.196 5.402-.543.048.07 1.827 2.268 2.515 2.692 1.117.815 2.31 1.51 3.708 1.54zM4.533 60.315h17.8c-.453-2.1-1.024-4.19-1.504-6.273h.624l1.504 6.274h2.587c.915-1.213 1.942-2.437 2.862-3.646.137-.182.485-.313.73-.27.457.06 1.048.135 1.762.213-.475-.388-1.173-.843-1.372-1.476-.14-.677.104-1.32.175-1.593.215-.828 1.066-1.186 2.75-1.704l3.106-1.037.19.496-4.326 1.454c-.22.08-.484.203-.64.29-.497.275-.808 1.602-.668 1.968.11.484 1.475 1.627 2.12 1.767l6.206.76v.555l-8.937-1.096c-.29-.043-.564-.044-.75.178-.657.87-1.8 2.264-2.46 3.143h16.106c1.053-.637 2.204-1.514 2.204-2.094v-1.155c.05-.94-4.458-6.9-6.703-7.398-.578-.128-.772-.323-3.062-.308-1.825.1-3.908.46-5.905.647l-5.525-1.314.438-.44c.407.122 1.026.244 1.398.35 1.75.348 3.53-.05 3.575-.75l-3.922-.933.18-.436c.377.09 2.25.486 2.453.52 1.652.365 3.77-.24 3.883-.94l-5.65-1.227.18-.436 3.157.53c1.063.226 2.06.233 2.977-.187.928-.384 1.653-1.04 1.8-1.652l-7.84-.616v-.437l3.593.163c3.192.15 4.83-.89 5.06-2.208l-8.818.488-.05-.438c.518-.102 6.57-.342 8.088-.902 2.028-.63 2.992-1.963 3.097-2.967l-11.454 2.585-.136-.417 7.02-1.806c2.016-.424 6.968-1.793 6.93-4.63-4.893 1.58-9.594 3.187-14.51 4.762l-.207-.42 9.18-3.172c5.332-1.57 7.03-5.146 6.564-5.972-5.546 2.674-10.873 5.124-16.42 7.797l-.21-.36c.61-.304 6.623-3.28 10.07-5.032 2.142-1.07 5.7-2.883 6.38-5.312.128-.438.342-1.205.2-1.645L23.068 33.18l-.234-.335 10.718-6.897c1.528-.97 2.43-1.58 3.283-2.48 1.673-1.636 2.215-4.744 1.61-5.47l-17.88 14.457c-.833.696-1.083 1.64-.75 2.836l1.867 6.758c.243 1.15-.48 2.436-.75 2.604-2.273 1.417-5.684 3.022-6.143 3.746-.454.712-1.166 2.5-.838 3.165.93 1.65 1.997 3.59 2.95 5.277l-5.963.838-3.797-.76-2.61 3.396zM96.234 68.477a1.736 1.736 0 0 1 .53-1.278 1.748 1.748 0 0 1 1.284-.535c.5 0 .928.177 1.28.53.354.355.53.782.53 1.282 0 .504-.176.933-.53 1.285s-.78.527-1.28.527-.93-.18-1.283-.532a1.753 1.753 0 0 1-.53-1.28zm.343 0c0 .424.144.787.43 1.09a1.36 1.36 0 0 0 1.043.45 1.37 1.37 0 0 0 1.04-.448c.287-.3.43-.665.43-1.093a1.52 1.52 0 0 0-.43-1.088c-.287-.302-.634-.452-1.04-.452-.407 0-.755.15-1.042.45s-.43.663-.43 1.09zm.81.89h.336v-.752h.274c.138 0 .237.023.3.07.06.047.094.137.1.268.006.197.014.31.02.336a.17.17 0 0 0 .048.077h.347c-.02-.02-.033-.043-.043-.067s-.02-.146-.028-.362c-.012-.146-.037-.248-.076-.31s-.102-.105-.184-.126v-.01a.54.54 0 0 0 .226-.158.398.398 0 0 0 .08-.256c0-.17-.052-.3-.155-.39-.104-.09-.25-.134-.44-.134h-.802v1.813h-.003zm.336-1.564v.564h.39c.112 0 .196-.024.247-.075.053-.05.08-.12.084-.214 0-.09-.03-.158-.09-.205-.057-.047-.15-.07-.277-.07h-.354z"/><path fill="#ADADAD" d="M37.49 43.253a1.732 1.732 0 0 1 .528-1.28 1.75 1.75 0 0 1 1.285-.533c.5 0 .928.177 1.28.53.355.355.532.782.532 1.283 0 .504-.177.933-.53 1.285-.354.353-.782.528-1.282.528s-.928-.177-1.282-.53-.53-.782-.53-1.283zm.342 0c0 .425.144.79.43 1.09.287.302.634.452 1.042.448.408.004.754-.144 1.04-.445.288-.3.43-.665.43-1.093 0-.425-.142-.787-.43-1.087-.286-.3-.632-.45-1.04-.45-.407 0-.754.15-1.042.45-.286.3-.43.664-.43 1.088zm.808.892h.336v-.75h.274c.14 0 .238.022.298.07.06.046.094.135.1.266.008.198.015.31.022.338a.177.177 0 0 0 .046.078h.347a.185.185 0 0 1-.044-.067 2.982 2.982 0 0 1-.03-.363.677.677 0 0 0-.075-.31.29.29 0 0 0-.184-.126v-.01a.522.522 0 0 0 .226-.157.397.397 0 0 0 .08-.257c0-.17-.05-.3-.155-.388-.103-.09-.25-.134-.44-.134h-.8v1.81zm.337-1.565v.565h.39c.113 0 .196-.025.247-.075.053-.05.08-.122.083-.215 0-.09-.03-.157-.088-.204-.06-.045-.153-.07-.28-.07h-.353z"/></svg>