<svg xmlns="http://www.w3.org/2000/svg" width="100" height="100" viewBox="0 0 100 100"><path fill="#7F7F7F" d="M86.97 50.7c.184-.08.366-.16.544-.247 3.015-1.464 5.344-3.88 5.527-6.893l.01-.138-.005-.138-.013-.43c-.177-5.21-6.068-8.437-11.427-8.437-.452 0-.905.024-1.335.072-2.15.237-4.078.833-5.715 1.725-.11-.53-.237-.867-.24-.875-.557-1.396-2.016-2.298-3.71-2.298H63.75c-.965 0-2.36.358-3.112 1.026a4.76 4.76 0 0 0-1.535 3.614c-.706 0-.672 0-1.376-.002a4.313 4.313 0 0 0-.16-1.345c-.284-1.028-1.448-2.817-4.013-3.25-.236-.04-.497-.085-2.42-.085-.155 0-3.738 0-4.686.127-.664.09-1.21.272-1.66.52-.68.293-1.797.293-4.72.214-4.152-.11-7.623.848-10.26 2.37a3.984 3.984 0 0 0-1.438-1.12l-.046-.022-.047-.02c-.513-.218-5.11-2.134-8.22-2.318l-.106-.005a30.858 30.858 0 0 0-1.45-.043c-1.96.01-7.927.037-9.743 5.81a5.822 5.822 0 0 0 .123 3.844 4.33 4.33 0 0 0-1.02.382c-1.742.912-2.618 2.098-2.61 3.53-.034.884.253 1.75.802 2.417l2.473 3.047c.196.238.417.446.656.63-.442.136-.87.298-1.263.514-1.124.614-1.974 1.426-2.523 2.402a6.18 6.18 0 0 0-.82 3.09c0 1.403.396 2.627 1.175 3.633a6.537 6.537 0 0 0 2.8 2.096c1.03.41 2.343.612 3.17.626l.125.002c.935 0 1.952-.267 2.32-.37a2.76 2.76 0 0 0 1.288-.708c.196.115.397.223.608.325a8.235 8.235 0 0 0 3.502.763h.026a8.133 8.133 0 0 0 3.407-.77c.17-.083.337-.17.5-.26.49.475 1.113.78 1.783.884.235.046.814.142 1.38.142.597 0 1.977-.15 2.97-.727.164-.102.318-.21.466-.33a3.233 3.233 0 0 0 2.182.855l17.195.002c1.437 0 2.632-.232 3.645-.71.57.453 1.28.708 2.014.708H73.9c.66 0 1.3-.206 1.834-.58a3.226 3.226 0 0 0 1.84.582h1.486c.73 0 1.424-.25 1.977-.678a8.224 8.224 0 0 0 3.753.887h.025a8.145 8.145 0 0 0 3.406-.772c1.127-.54 2.033-1.287 2.692-2.214.728-1.018 1.1-2.153 1.1-3.377 0-.905-.217-1.785-.644-2.61a6.303 6.303 0 0 0-1.646-2.038 7.332 7.332 0 0 0-2.23-1.246 5.954 5.954 0 0 0-.52-.164c-.355-.162-.59-.363-.62-.78-.013-.376.303-.654.615-.84z"/><path fill="#EFEFEF" d="M93.052 63.474c0 1.37 1.06 2.482 2.362 2.482 1.318 0 2.363-1.113 2.363-2.482 0-1.368-1.045-2.48-2.363-2.48-1.303-.002-2.362 1.11-2.362 2.48zm.566 0c0-1.114.798-1.972 1.796-1.972.993 0 1.795.864 1.795 1.972 0 1.11-.805 1.973-1.796 1.973-.998-.003-1.796-.862-1.796-1.973zm.933 1.217h.56v-.978h.117c.835 0 .302.59.608.98h.58c-.103-.127-.088-.22-.103-.56-.006-.21-.022-.547-.337-.627v-.014a.6.6 0 0 0 .385-.59c0-.31-.173-.69-.767-.69H94.55v2.48zm.56-2.047h.244c.27 0 .44.064.44.303 0 .294-.257.334-.387.334h-.297v-.637zM33.702 54.463h-6.367c-.245 0-.49.1-.676.294-.188.197-.28.452-.28.71v2.905c0 .483-.124.98-.25 1.124-.128.146-.664.18-.664.18-.21.06-.4.186-.537.385-.137.197-.194.43-.182.654l.046.635c.015.226.102.5.266.676a.95.95 0 0 0 .588.302s.548.112 1.013.112c.464 0 1.34-.138 1.772-.39.432-.263.74-.673.92-1.24.17-.566.26-1.344.26-2.332v-1.89h1.71v4.65c0 .256.094.513.28.71a.93.93 0 0 0 .677.293H33.7c.243 0 .487-.097.674-.293s.28-.45.28-.71v-5.77c0-.257-.094-.515-.28-.71a.933.933 0 0 0-.674-.294zm-10.655 1.03a5.098 5.098 0 0 0-1.572-.87 5.573 5.573 0 0 0-1.91-.316h-.042c-.7 0-1.34.104-1.94.315-.602.2-1.12.494-1.583.87-.448.378-.81.82-1.06 1.312-.26.505-.39 1.02-.39 1.568 0 .735.22 1.417.67 2.046.442.625 1.053 1.114 1.81 1.483.772.357 1.602.547 2.533.547a5.82 5.82 0 0 0 2.443-.546c.768-.368 1.378-.857 1.82-1.482.45-.627.67-1.31.67-2.046 0-.55-.13-1.063-.39-1.568a4.04 4.04 0 0 0-1.06-1.312zm-3.524 4.492c-.44 0-.798-.72-.798-1.61 0-.887.357-1.606.798-1.606.44 0 .796.72.796 1.606 0 .89-.356 1.61-.797 1.61zM77.95 58.31l1.633-2.234c.214-.294.264-.7.098-1.053a.95.95 0 0 0-.856-.56H77.49c-.154 0-.31.04-.453.12s-.257.195-.344.327l-1.827 2.873v-2.318c0-.256-.094-.513-.28-.708a.938.938 0 0 0-.675-.296h-1.367c-.247 0-.49.102-.677.297-.186.195-.28.452-.28.708v5.77c0 .258.095.514.28.71a.94.94 0 0 0 .677.295h1.368c.245 0 .488-.1.676-.296.187-.195.28-.45.28-.708v-2.242l1.947 2.828a.953.953 0 0 0 .775.416h1.487a.95.95 0 0 0 .865-.58c.163-.365.095-.78-.14-1.07l-1.85-2.28zm-64.446 1.278s-.903.314-1.505.29c-.492-.025-1.02-.162-1.3-.467-.28-.315-.425-.67-.425-1.07 0-.484.173-.852.52-1.114.354-.26.685-.402 1.306-.396.62.005 1.355.294 1.355.294a.457.457 0 0 0 .4-.103.504.504 0 0 0 .174-.386v-1.53a.512.512 0 0 0-.115-.325.47.47 0 0 0-.29-.17s-.657-.274-1.854-.302c-.864-.02-1.862.09-2.753.578-.734.4-1.28.904-1.63 1.522a3.93 3.93 0 0 0-.522 1.966c0 .885.232 1.63.703 2.237.47.61 1.08 1.064 1.84 1.368.76.306 1.79.452 2.37.463.77.02 1.826-.3 1.826-.3a.485.485 0 0 0 .282-.163c.076-.09.116-.2.12-.31l.06-1.56a.497.497 0 0 0-.163-.4.45.45 0 0 0-.4-.12zm56.103-5.125h-1.424a.93.93 0 0 0-.676.294 1.028 1.028 0 0 0-.282.71v4.67h-1.08v-4.67c0-.256-.093-.513-.278-.71a.93.93 0 0 0-.676-.294h-1.42c-.24 0-.487.1-.673.294a1.03 1.03 0 0 0-.28.71v4.67h-1.08v-4.67a1.03 1.03 0 0 0-.28-.71.935.935 0 0 0-.678-.294h-1.42c-.245 0-.486.1-.674.294-.187.197-.28.452-.28.71v5.773c0 .255.094.513.28.71a.935.935 0 0 0 .675.292h10.247c.248 0 .49-.097.676-.293a1.02 1.02 0 0 0 .28-.71v-5.772a1.03 1.03 0 0 0-.28-.71.933.933 0 0 0-.676-.295zm-26.105 0h-1.435a.94.94 0 0 0-.677.294 1.03 1.03 0 0 0-.28.71v1.603h-2.03v-1.602c0-.257-.093-.514-.28-.71a.933.933 0 0 0-.675-.295h-1.433c-.243 0-.488.1-.675.294-.187.197-.28.452-.28.71v5.773c0 .255.092.513.28.71s.432.292.675.292h1.433c.245 0 .49-.097.676-.293s.28-.453.28-.71v-1.73h2.03v1.73c0 .255.094.513.28.71a.933.933 0 0 0 .677.292h1.435c.246 0 .49-.097.676-.293.187-.197.28-.453.28-.71v-5.772c0-.257-.092-.514-.28-.71a.933.933 0 0 0-.676-.295zm8.904 3.43c-.71-.348-1.693-.528-2.93-.528h-.78v-1.9a1.03 1.03 0 0 0-.283-.707.936.936 0 0 0-.676-.296h-1.24c-.244 0-.488.1-.675.296-.186.195-.28.452-.28.707v5.776c0 .256.093.512.28.71a.93.93 0 0 0 .676.293h2.977c1.21 0 2.17-.2 2.905-.613.72-.406 1.08-1.06 1.08-1.966 0-.838-.353-1.438-1.054-1.772zm-2.93 2.434h-.78v-1.23h.78c.518.01.78.21.78.6 0 .42-.262.63-.78.63zm38.81-4.835a5.12 5.12 0 0 0-1.574-.87 5.57 5.57 0 0 0-1.91-.315h-.04c-.7 0-1.34.104-1.94.315-.6.2-1.12.494-1.58.87a4.21 4.21 0 0 0-1.063 1.312 3.387 3.387 0 0 0-.392 1.568c0 .735.22 1.417.67 2.046.443.625 1.054 1.114 1.813 1.483.77.357 1.603.547 2.533.547.87-.01 1.69-.19 2.44-.546.77-.368 1.38-.857 1.823-1.482.45-.627.67-1.31.67-2.046 0-.55-.13-1.063-.39-1.568a4.082 4.082 0 0 0-1.06-1.312zm-3.524 4.493c-.442 0-.798-.72-.798-1.61 0-.887.355-1.606.798-1.606.44 0 .797.72.797 1.606 0 .89-.36 1.61-.798 1.61zm-28.418-5.522h-1.212c-.244 0-.488.1-.675.294a1.03 1.03 0 0 0-.278.71v5.773c0 .255.092.513.277.71a.932.932 0 0 0 .675.292h1.212a.925.925 0 0 0 .674-.293 1.02 1.02 0 0 0 .28-.71v-5.772a1.03 1.03 0 0 0-.28-.71.928.928 0 0 0-.674-.295zm24.538-5.525c.305 0 .608-.01.898-.024 3.642-.297 8.036-2.524 8.218-5.537l-.013-.418c-.12-3.542-5.363-5.88-9.373-5.438-4.006.443-7.762 2.487-8.537 6.49-.17.902.025 1.45.058 1.546.894 3.006 5.314 3.455 8.75 3.38zm0-8.01c1.504-.137 2.896.397 3.34 1.448.59 1.4-1.198 3.133-3.34 3.603-1.273.27-2.945-.102-3.464-1.176-1.076-2.22 1.47-3.704 3.464-3.877zm-36.855-4.3s-.696-.327-1.136-.245c-.16.03-1.746.525-2.782.532-1.692.01-11.536.037-12.873 7.77-.75 4.39 4.28 7.793 9.205 7.552 2.896-.145 4.952-.938 4.952-.938s1.226-.37 1.416-.868c.174-.45.083-.655-.06-.927 0 0-.447-.994-.857-1.34-.41-.348-1.562-.118-1.562-.118s-9.018 1.58-7.703-4.028c.81-2.227 3.11-2.617 5.508-2.617.528 0 .888 1.164 1.02 1.46.127.297.368.498.637.57l1.084.286c.193.05.403.036.6-.056a.99.99 0 0 0 .45-.44l2.654-5.055c.14-.272.174-.605.06-.918a.99.99 0 0 0-.61-.623zm26.604 2.507c1.463-.07.96-2.387.85-2.666-.078-.2-.46-.376-.868-.376h-6.82a.893.893 0 0 0-.636.236 1.645 1.645 0 0 0-.488 1.6c.133.605.292.952.857 1.23.96.4.544 1.58.544 1.58s-11.095-.02-11.112 0c-.116-.94.098-1.2.748-1.925.65-.726.758-1.15.618-1.67-.226-.81-.818-.976-1.275-1.052-.457-.077-5.446-.04-6.19.06-.636.084-.852.222-.974.904-.165.922.197 1.63.625 2.024.43.396 1.222.43 1.64 1.63.42 1.203 1.656 5.89 1.548 7.043-.112 1.156-2.055 2.914-2.235 3.11-.177.196-.273.45-.283.71 0 0-.082.987.242 1.394.214.268.43.323.675.33l8.12-.054c.243.004.5-.074.672-.287.362-.445.32-1.33.32-1.33a1.14 1.14 0 0 0-.22-.713c-.155-.21-1.776-1.45-2.114-2.417-.342-.967-.917-4.12-.917-4.12s9.438.04 9.616 0c.186.185.713 2.947-2.018 3.51-.853.178-.98.71-1 .974 0 0-.092.97.2 1.36.166.224.425.34.674.355l8.39-.04c.255.014.86.003 1.065-.29.108-.152.275-.344.3-.76.044-.968-.31-1.374-.933-1.716-.577-.318-1.894-.498-2.298-2.02-.253-.95.31-3.44.774-5.383.214-1.013 1.226-1.124 1.9-1.232zM10.89 49.8a.9.9 0 0 0 .543.334c.45.074.907-.277.907-.277.213-.125.385-.338.464-.61.767-1.344 6.417-4.314 6.55-4.224.13.09-.4 1.84-.553 2.38-.302 1.113-1.754 1.058-1.754 1.058-.244 0-.45.04-.634.15-.307.185-.546 1.035-.546 1.035-.085.284-.063.604.09.88a.95.95 0 0 0 .667.495l1.89.333 4.2.742c.24.043.48-.04.712-.188.32-.207.45-1.183.45-1.183a1.13 1.13 0 0 0-.198-.822c-.173-.242-.654-1.518-.553-2.89.1-1.375.766-2.602 1.368-4.48.293-.912 1.876-1.376 2.382-1.812.507-.434.656-1.13.718-1.453.06-.322.106-.54.007-.812-.1-.27-.29-.473-.517-.58 0 0-4.537-1.925-7.168-2.078-.46-.02-.928-.046-1.398-.046-2.693.013-5.804.373-6.845 3.68-.607 1.916 1.07 3.863 2.9 4.24 0 0-2.364 2.525-4.463 1.657-.226-.053-.5-.06-.83.115-.33.17-1.005.536-.966.877-.028.166.02.33.114.447L10.89 49.8zm7.627-11.045c.43.056.898.166 1.398.364l1.312.52-.65 2.182s-1.292.044-2.062 0c-.77-.044-2.794-.285-2.713-1.66.067-1.092 1.18-1.584 2.715-1.407z"/></svg>