<svg xmlns="http://www.w3.org/2000/svg" width="100" height="100" viewBox="0 0 100 100"><g fill="#ADADAD"><path d="M35.603 48.355h-11.14l-3.136 17.78h-7.755l3.133-17.78H5.56l.974-5.332H36.59zM53.164 53.738l9.59 12.4h-9.268l-6.504-10.01h-2.856l-1.736 10.01h-7.765l4.066-23.115h7.776L44.974 51.3h2.84l9.327-8.277h8.746zM95.947 48.355H84.8l-3.143 17.78h-7.77l3.146-17.78H65.886l.98-5.332h30.06zM94.163 17.178c-2.28-.615-5.488-1.2-9.617-1.64-7.233-.78-17.078-1.218-27.694-1.218H56.528c-7.282 0-14.28.213-20.396.603 22.23 1.72 51.552 7.87 60.972 27.674l2.752-14.587a8.212 8.212 0 0 0 .143-1.633c.08-3.594-1.648-7.962-5.837-9.2"/><path d="M6.04 83.563c2.27.636 5.498 1.215 9.602 1.652 7.26.773 17.094 1.21 27.71 1.21h.323c7.884 0 15.438-.25 21.89-.698-22.045-1.453-52.29-7.148-62.633-26.7L.35 72.735a8.518 8.518 0 0 0-.14 1.645c-.064 3.59 1.637 7.97 5.83 9.183"/></g></svg>