<?xml version="1.0" encoding="utf-8"?>
<!-- Generator: Adobe Illustrator 15.0.2, SVG Export Plug-In . SVG Version: 6.00 Build 0)  -->
<!DOCTYPE svg PUBLIC "-//W3C//DTD SVG 1.1//EN" "http://www.w3.org/Graphics/SVG/1.1/DTD/svg11.dtd">
<svg version="1.1" id="Layer_1" xmlns="http://www.w3.org/2000/svg" xmlns:xlink="http://www.w3.org/1999/xlink" x="0px" y="0px"
	 width="100px" height="100px" viewBox="0 0 100 100" enable-background="new 0 0 100 100" xml:space="preserve">
<g>
	<path fill="#ADADAD" d="M96.027,42.086c-1.604,0-2.864-1.266-2.864-2.888c0-1.622,1.26-2.889,2.864-2.889
		c1.6,0,2.85,1.268,2.85,2.889C98.877,40.82,97.627,42.086,96.027,42.086L96.027,42.086z M99.6,39.229v-0.061
		c-0.018-1.98-1.58-3.528-3.572-3.528c-2.004,0-3.568,1.564-3.568,3.559c0,1.997,1.564,3.559,3.568,3.559
		C98.02,42.757,99.582,41.211,99.6,39.229L99.6,39.229z"/>
	<path fill="#ADADAD" d="M96.84,38.228c0,0.461-0.29,0.648-0.999,0.648h-0.422v-1.185c0.134-0.032,0.327-0.052,0.533-0.052
		C96.541,37.64,96.84,37.84,96.84,38.228L96.84,38.228z M96.947,39.587c-0.072-0.135-0.153-0.237-0.233-0.314
		c0.522-0.168,0.818-0.547,0.818-1.057c0-0.749-0.595-1.195-1.593-1.195c-0.438,0-0.855,0.08-1.147,0.222
		c-0.034,0.016-0.056,0.051-0.056,0.088v3.772c0,0.054,0.043,0.098,0.098,0.098h0.484c0.056,0,0.101-0.044,0.101-0.098v-1.62h0.323
		c0.298,0,0.439,0.079,0.56,0.307l0.709,1.358c0.019,0.031,0.052,0.053,0.091,0.053h0.559h0.005c0.056,0,0.099-0.044,0.099-0.098
		c0-0.029-0.013-0.053-0.031-0.071L96.947,39.587L96.947,39.587z"/>
	<path fill="#ADADAD" d="M5.804,23.67c2.909-2.669,8.401-3.11,12.197-2.787c1.114,0.096,2.744-1.892,3.175-2.733
		c4.281-8.315,19.637-6.003,21.353,3.233c0.311,1.69,0.181,3.58-0.299,5.229c-1.017,3.501,2.269,5.811,5.362,4.482
		c2.878-1.234,4.533-4.268,4.612-7.238c0.038-1.5-0.588-3.054-0.507-4.637c0.085-1.615,0.531-3.541,1.992-4.428
		c2.533-1.537,5.887-1.783,8.777-1.587c4.696,0.315,8.457,3.623,10.512,7.618c0.063,0.02,0.129,0.042,0.191,0.062
		c5.893-0.14,12.618,1.664,16.032,6.735c0.876,1.297,1.776,4.368,0.483,5.733c-2.723,2.873-9.873,2.297-13.351,2.151H28.624
		c-7.005,0-16.467,1.644-22.132-2.955C3.981,30.507,3.226,26.034,5.804,23.67L5.804,23.67z M19.893,39.151h53.089h0.188
		c6.421,0.274,12.62-0.354,17.476-4.851c2.595-2.404,4.06-5.788,2.662-9.174c-2.23-5.414-9.179-7.285-14.459-7.789
		c-0.73-0.071-1.465-0.101-2.199-0.105c-0.447-0.003-1.221-1.817-1.561-2.297c-2.02-2.852-5.107-4.531-8.475-5.246
		c-0.93-0.196-1.866-0.296-2.803-0.306c-9.043-0.096-17.87,8.148-15.349,17.406c0.019,0.072,0.045,0.141,0.063,0.209
		c-0.005,0.241-0.012,0.482-0.018,0.722c-0.025,0.102-0.041,0.185-0.059,0.266c-1.667-0.041-3.179-2.37-2.696-3.865
		c0.362-1.131,0.517-2.343,0.582-3.522c0.287-5.365-3.165-8.949-8.125-10.455c-7.256-2.206-14.285,1.284-18.487,7.026
		C11.765,17.087,1.625,21.628,0.58,30.226C-0.591,39.858,13.982,39.151,19.893,39.151L19.893,39.151z"/>
	<path fill="#ADADAD" d="M89.203,72.334c-3.414,5.073-10.141,6.874-16.032,6.734c-0.063,0.021-0.127,0.043-0.192,0.063
		c-2.054,3.991-5.813,7.301-10.511,7.618c-2.893,0.194-6.241-0.051-8.778-1.588c-1.459-0.888-1.907-2.813-1.991-4.431
		c-0.081-1.58,0.545-3.135,0.507-4.633c-0.079-2.971-1.734-6.005-4.612-7.242c-3.092-1.326-6.379,0.983-5.362,4.482
		c0.479,1.648,0.609,3.54,0.299,5.23c-1.714,9.236-17.072,11.549-21.353,3.231c-0.431-0.841-2.062-2.829-3.175-2.731
		c-3.795,0.324-9.288-0.118-12.196-2.787c-2.579-2.364-1.824-6.838,0.688-8.875c5.664-4.602,15.127-2.958,22.131-2.958h47.712
		c3.478-0.146,10.628-0.72,13.351,2.153C90.979,67.967,90.079,71.037,89.203,72.334L89.203,72.334z M93.309,74.828
		c1.396-3.389-0.067-6.773-2.662-9.176c-4.854-4.5-11.055-5.125-17.476-4.85h-0.188h-53.09c-5.911,0-20.483-0.711-19.312,8.924
		c1.045,8.597,11.185,13.139,19.144,13.057c4.201,5.738,11.231,9.23,18.487,7.025c4.959-1.508,8.413-5.094,8.124-10.457
		c-0.064-1.182-0.218-2.392-0.581-3.522c-0.481-1.492,1.028-3.824,2.696-3.862c0.018,0.078,0.035,0.164,0.057,0.264
		c0.007,0.24,0.014,0.483,0.019,0.726c-0.019,0.067-0.044,0.135-0.061,0.208c-2.784,10.215,8.252,19.195,18.149,17.1
		c3.366-0.716,6.454-2.395,8.475-5.244c0.341-0.479,1.112-2.295,1.562-2.297c0.733-0.008,1.468-0.033,2.199-0.106
		C84.13,82.109,91.077,80.241,93.309,74.828L93.309,74.828z"/>
	<path fill="#ADADAD" d="M87.875,82.948c-1.71,0.839-2.758,1.252-5.339,1.541c2.21,1.696,7.582,4.573,11.887,6.065
		c1.287-0.484,3.854-2.467,4.886-3.721C97.1,86.318,90.791,84.389,87.875,82.948L87.875,82.948z"/>
	<path fill="#ADADAD" d="M6.865,50.59c-0.434-0.228-0.804-0.319-1.644-0.319H3.819v3.377c0.358,0.125,0.981,0.228,1.517,0.228
		c1.529,0,2.382-0.624,2.382-1.771C7.718,51.418,7.424,50.896,6.865,50.59L6.865,50.59z M5.297,46.106
		c-0.574,0-1.146,0.102-1.478,0.229v3.121h1.352c0.878,0,1.247-0.089,1.655-0.382c0.37-0.268,0.612-0.778,0.612-1.35
		C7.438,46.718,6.673,46.106,5.297,46.106L5.297,46.106z M5.336,54.743c-0.917,0-1.988-0.218-2.56-0.485v-8.534
		c0.611-0.28,1.554-0.484,2.521-0.484c2.102,0,3.197,0.982,3.197,2.407c0,1.197-0.841,1.949-1.566,2.127V49.8
		c0.777,0.191,1.885,0.88,1.885,2.356C8.813,53.762,7.552,54.743,5.336,54.743L5.336,54.743z"/>
	<path fill="#ADADAD" d="M6.865,50.59c-0.434-0.228-0.804-0.319-1.644-0.319H3.819v3.377c0.358,0.125,0.981,0.228,1.517,0.228
		c1.529,0,2.382-0.624,2.382-1.771C7.718,51.418,7.424,50.896,6.865,50.59L6.865,50.59z M5.297,46.106
		c-0.574,0-1.146,0.102-1.478,0.229v3.121h1.352c0.878,0,1.247-0.089,1.655-0.382c0.37-0.268,0.612-0.778,0.612-1.35
		C7.438,46.718,6.673,46.106,5.297,46.106L5.297,46.106z M5.336,54.743c-0.917,0-1.988-0.218-2.56-0.485v-8.534
		c0.611-0.28,1.554-0.484,2.521-0.484c2.102,0,3.197,0.982,3.197,2.407c0,1.197-0.841,1.949-1.566,2.127V49.8
		c0.777,0.191,1.885,0.88,1.885,2.356C8.813,53.762,7.552,54.743,5.336,54.743L5.336,54.743z"/>
	<polygon fill="#ADADAD" points="10.227,54.602 10.227,45.381 15.004,45.381 15.004,46.324 11.31,46.324 11.31,49.405 
		14.712,49.405 14.712,50.322 11.31,50.322 11.31,53.659 15.004,53.659 15.004,54.602 	"/>
	<polygon fill="#ADADAD" points="10.227,54.602 10.227,45.381 15.004,45.381 15.004,46.324 11.31,46.324 11.31,49.405 
		14.712,49.405 14.712,50.322 11.31,50.322 11.31,53.659 15.004,53.659 15.004,54.602 	"/>
	<polygon fill="#ADADAD" points="21.667,54.602 21.667,50.322 17.756,50.322 17.756,54.602 16.648,54.602 16.648,45.381 
		17.756,45.381 17.756,49.405 21.667,49.405 21.667,45.381 22.774,45.381 22.774,54.602 	"/>
	<polygon fill="#ADADAD" points="21.667,54.602 21.667,50.322 17.756,50.322 17.756,54.602 16.648,54.602 16.648,45.381 
		17.756,45.381 17.756,49.405 21.667,49.405 21.667,45.381 22.774,45.381 22.774,54.602 	"/>
	<polygon fill="#ADADAD" points="24.534,54.602 24.534,45.381 29.31,45.381 29.31,46.324 25.617,46.324 25.617,49.405 
		29.017,49.405 29.017,50.322 25.617,50.322 25.617,53.659 29.31,53.659 29.31,54.602 	"/>
	<polygon fill="#ADADAD" points="24.534,54.602 24.534,45.381 29.31,45.381 29.31,46.324 25.617,46.324 25.617,49.405 
		29.017,49.405 29.017,50.322 25.617,50.322 25.617,53.659 29.31,53.659 29.31,54.602 	"/>
	<polygon fill="#ADADAD" points="33.247,46.323 33.247,54.602 32.151,54.602 32.151,46.323 29.859,46.323 29.859,45.38 
		35.539,45.38 35.539,46.323 	"/>
	<polygon fill="#ADADAD" points="33.247,46.323 33.247,54.602 32.151,54.602 32.151,46.323 29.859,46.323 29.859,45.38 
		35.539,45.38 35.539,46.323 	"/>
	<path fill="#ADADAD" d="M39.667,47.342c-0.166-0.497-0.28-1.058-0.28-1.058h-0.025c0,0-0.116,0.561-0.281,1.058l-1.286,3.731h3.159
		L39.667,47.342L39.667,47.342z M42.15,54.602l-0.942-2.687h-3.669l-0.928,2.687H35.45l3.3-9.221h1.261l3.287,9.221H42.15
		L42.15,54.602z"/>
	<path fill="#ADADAD" d="M39.667,47.342c-0.166-0.497-0.28-1.058-0.28-1.058h-0.025c0,0-0.116,0.561-0.281,1.058l-1.286,3.731h3.159
		L39.667,47.342L39.667,47.342z M42.15,54.602l-0.942-2.687h-3.669l-0.928,2.687H35.45l3.3-9.221h1.261l3.287,9.221H42.15
		L42.15,54.602z"/>
	<path fill="#ADADAD" d="M51.336,54.742c-1.96,0-3.605-1.518-3.605-4.75c0-3.235,1.645-4.751,3.605-4.751
		c0.814,0,1.555,0.204,1.975,0.484l-0.369,0.892c-0.307-0.216-0.867-0.408-1.502-0.408c-1.417,0-2.575,1.186-2.575,3.771
		c0,2.584,1.159,3.784,2.575,3.784c0.635,0,1.195-0.191,1.502-0.408l0.369,0.904C52.891,54.539,52.164,54.742,51.336,54.742
		L51.336,54.742z"/>
	<path fill="#ADADAD" d="M51.336,54.742c-1.96,0-3.605-1.518-3.605-4.75c0-3.235,1.645-4.751,3.605-4.751
		c0.814,0,1.555,0.204,1.975,0.484l-0.369,0.892c-0.307-0.216-0.867-0.408-1.502-0.408c-1.417,0-2.575,1.186-2.575,3.771
		c0,2.584,1.159,3.784,2.575,3.784c0.635,0,1.195-0.191,1.502-0.408l0.369,0.904C52.891,54.539,52.164,54.742,51.336,54.742
		L51.336,54.742z"/>
	<path fill="#ADADAD" d="M60.432,54.602v-6.648c0-0.533,0.026-1.12,0.026-1.12h-0.026c0,0-0.242,0.548-0.535,1.007l-4.229,6.762
		h-1.032v-9.221h1.007v6.482c0,0.548-0.024,1.16-0.024,1.16h0.024c0,0,0.254-0.549,0.547-1.008l4.152-6.636h1.082v9.222H60.432
		L60.432,54.602z"/>
	<path fill="#ADADAD" d="M60.432,54.602v-6.648c0-0.533,0.026-1.12,0.026-1.12h-0.026c0,0-0.242,0.548-0.535,1.007l-4.229,6.762
		h-1.032v-9.221h1.007v6.482c0,0.548-0.024,1.16-0.024,1.16h0.024c0,0,0.254-0.549,0.547-1.008l4.152-6.636h1.082v9.222H60.432
		L60.432,54.602z"/>
	<path fill="#ADADAD" d="M66.508,54.742c-1.961,0-3.604-1.518-3.604-4.75c0-3.235,1.644-4.751,3.604-4.751
		c0.815,0,1.553,0.204,1.975,0.484l-0.369,0.892c-0.307-0.216-0.865-0.408-1.504-0.408c-1.414,0-2.571,1.186-2.571,3.771
		c0,2.584,1.157,3.784,2.571,3.784c0.639,0,1.197-0.191,1.504-0.408l0.369,0.904C68.061,54.539,67.335,54.742,66.508,54.742
		L66.508,54.742z"/>
	<path fill="#ADADAD" d="M66.508,54.742c-1.961,0-3.604-1.518-3.604-4.75c0-3.235,1.644-4.751,3.604-4.751
		c0.815,0,1.553,0.204,1.975,0.484l-0.369,0.892c-0.307-0.216-0.865-0.408-1.504-0.408c-1.414,0-2.571,1.186-2.571,3.771
		c0,2.584,1.157,3.784,2.571,3.784c0.639,0,1.197-0.191,1.504-0.408l0.369,0.904C68.061,54.539,67.335,54.742,66.508,54.742
		L66.508,54.742z"/>
	<polygon fill="#ADADAD" points="72.609,46.323 72.609,54.602 71.516,54.602 71.516,46.323 69.223,46.323 69.223,45.38 
		74.902,45.38 74.902,46.323 	"/>
	<polygon fill="#ADADAD" points="72.609,46.323 72.609,54.602 71.516,54.602 71.516,46.323 69.223,46.323 69.223,45.38 
		74.902,45.38 74.902,46.323 	"/>
	<polygon fill="#ADADAD" points="76.074,54.602 76.074,45.381 80.852,45.381 80.852,46.324 77.158,46.324 77.158,49.405 
		80.559,49.405 80.559,50.322 77.158,50.322 77.158,53.659 80.852,53.659 80.852,54.602 	"/>
	<polygon fill="#ADADAD" points="76.074,54.602 76.074,45.381 80.852,45.381 80.852,46.324 77.158,46.324 77.158,49.405 
		80.559,49.405 80.559,50.322 77.158,50.322 77.158,53.659 80.852,53.659 80.852,54.602 	"/>
	<path fill="#ADADAD" d="M90.84,54.602l-0.867-6.915c-0.063-0.523-0.115-1.121-0.115-1.121h-0.025c0,0-0.127,0.598-0.277,1.121
		l-2.128,6.915h-0.815l-2.127-6.915c-0.153-0.523-0.28-1.121-0.28-1.121H84.18c0,0-0.039,0.598-0.104,1.121l-0.877,6.915h-1.032
		l1.222-9.221h1.313l2.039,6.623c0.151,0.51,0.266,1.107,0.266,1.107h0.027c0,0,0.112-0.598,0.265-1.107l2.04-6.623h1.312
		l1.224,9.221H90.84L90.84,54.602z"/>
	<path fill="#ADADAD" d="M90.84,54.602l-0.867-6.915c-0.063-0.523-0.115-1.121-0.115-1.121h-0.025c0,0-0.127,0.598-0.277,1.121
		l-2.128,6.915h-0.815l-2.127-6.915c-0.153-0.523-0.28-1.121-0.28-1.121H84.18c0,0-0.039,0.598-0.104,1.121l-0.877,6.915h-1.032
		l1.222-9.221h1.313l2.039,6.623c0.151,0.51,0.266,1.107,0.266,1.107h0.027c0,0,0.112-0.598,0.265-1.107l2.04-6.623h1.312
		l1.224,9.221H90.84L90.84,54.602z"/>
</g>
</svg>
