<svg xmlns="http://www.w3.org/2000/svg" width="100" height="100" viewBox="0 0 100 100"><g fill="#ADADAD"><path d="M96.027 42.086c-1.604 0-2.864-1.266-2.864-2.888 0-1.622 1.26-2.89 2.864-2.89 1.6 0 2.85 1.27 2.85 2.89 0 1.622-1.25 2.888-2.85 2.888zM99.6 39.23v-.062c-.018-1.98-1.58-3.528-3.572-3.528-2.004 0-3.568 1.564-3.568 3.56s1.564 3.558 3.568 3.558c1.992 0 3.554-1.547 3.572-3.53z"/><path d="M96.84 38.228c0 .46-.29.648-1 .648h-.42V37.69c.133-.03.326-.05.532-.05.59 0 .888.2.888.588zm.107 1.36a1.243 1.243 0 0 0-.233-.315c.522-.168.818-.547.818-1.057 0-.75-.595-1.195-1.593-1.195-.44 0-.856.08-1.148.223a.098.098 0 0 0-.056.088v3.773c0 .054.043.098.098.098h.484a.1.1 0 0 0 .1-.097v-1.62h.324c.298 0 .44.08.56.307l.71 1.358c.018.03.05.053.09.053H97.666a.098.098 0 0 0 .068-.168l-.787-1.445zM5.804 23.67c2.91-2.67 8.4-3.11 12.197-2.787 1.115.096 2.745-1.892 3.176-2.733 4.28-8.315 19.637-6.003 21.353 3.233.31 1.69.18 3.58-.3 5.23-1.017 3.5 2.27 5.81 5.362 4.48 2.878-1.233 4.533-4.267 4.612-7.237.038-1.5-.588-3.054-.507-4.637.085-1.616.53-3.542 1.992-4.43 2.532-1.536 5.886-1.782 8.776-1.586 4.696.315 8.457 3.623 10.512 7.618l.19.062c5.894-.14 12.62 1.664 16.033 6.735.877 1.296 1.777 4.367.484 5.732-2.723 2.873-9.873 2.297-13.35 2.15h-47.71c-7.005 0-16.467 1.645-22.132-2.954-2.51-2.04-3.266-6.514-.688-8.878zm14.09 15.48H73.17c6.42.275 12.62-.353 17.476-4.85 2.595-2.404 4.06-5.788 2.662-9.174-2.23-5.414-9.18-7.285-14.46-7.79-.73-.07-1.464-.1-2.198-.104-.447-.003-1.22-1.817-1.56-2.297-2.02-2.852-5.108-4.53-8.476-5.246a14.31 14.31 0 0 0-2.803-.307C54.77 9.287 45.94 17.53 48.463 26.79c.02.07.045.14.063.208l-.018.722c-.025.102-.04.185-.06.266-1.666-.04-3.178-2.37-2.695-3.865.362-1.13.517-2.342.582-3.52.287-5.366-3.165-8.95-8.125-10.456-7.257-2.206-14.286 1.284-18.488 7.026C11.765 17.087 1.625 21.628.58 30.226c-1.17 9.632 13.402 8.925 19.313 8.925zM89.203 72.334c-3.414 5.073-10.14 6.874-16.032 6.734-.062.02-.126.043-.19.063-2.055 3.992-5.814 7.302-10.512 7.62-2.893.193-6.24-.052-8.778-1.59-1.46-.887-1.907-2.812-1.99-4.43-.082-1.58.544-3.135.506-4.633-.08-2.97-1.734-6.005-4.612-7.242-3.092-1.326-6.38.983-5.362 4.482.48 1.648.61 3.54.3 5.23-1.715 9.236-17.073 11.55-21.354 3.23-.43-.84-2.062-2.828-3.175-2.73-3.795.324-9.288-.118-12.196-2.787-2.58-2.364-1.824-6.838.688-8.875 5.664-4.602 15.127-2.958 22.13-2.958H76.34c3.478-.146 10.628-.72 13.35 2.153 1.29 1.367.39 4.437-.485 5.734zm4.106 2.494c1.395-3.39-.068-6.773-2.663-9.176-4.854-4.5-11.055-5.125-17.476-4.85H19.894c-5.91 0-20.483-.71-19.312 8.924 1.046 8.597 11.186 13.14 19.145 13.057 4.2 5.738 11.23 9.23 18.487 7.025 4.96-1.508 8.413-5.094 8.124-10.457-.064-1.18-.218-2.39-.58-3.52-.482-1.493 1.027-3.825 2.695-3.863.02.078.036.164.058.264l.02.727c-.02.067-.045.135-.062.208-2.784 10.215 8.252 19.195 18.15 17.1 3.365-.716 6.453-2.395 8.474-5.244.34-.478 1.112-2.294 1.562-2.296a24.86 24.86 0 0 0 2.2-.106c5.278-.51 12.225-2.377 14.457-7.79zM87.875 82.948c-1.71.84-2.758 1.252-5.34 1.54 2.21 1.697 7.583 4.574 11.888 6.066 1.287-.484 3.854-2.467 4.886-3.72-2.21-.516-8.52-2.445-11.435-3.886zM6.865 50.59c-.434-.228-.804-.32-1.644-.32h-1.4v3.378c.357.125.98.228 1.516.228 1.53 0 2.382-.624 2.382-1.77 0-.688-.294-1.21-.853-1.516zm-1.568-4.484c-.574 0-1.146.102-1.478.23v3.12h1.35c.88 0 1.248-.09 1.656-.382.37-.268.612-.778.612-1.35 0-1.006-.765-1.618-2.14-1.618zm.04 8.637c-.918 0-1.99-.218-2.56-.485v-8.534c.61-.28 1.553-.484 2.52-.484 2.102 0 3.197.982 3.197 2.407 0 1.197-.84 1.95-1.566 2.127v.026c.777.19 1.885.88 1.885 2.356 0 1.606-1.26 2.587-3.477 2.587z"/><path d="M6.865 50.59c-.434-.228-.804-.32-1.644-.32h-1.4v3.378c.357.125.98.228 1.516.228 1.53 0 2.382-.624 2.382-1.77 0-.688-.294-1.21-.853-1.516zm-1.568-4.484c-.574 0-1.146.102-1.478.23v3.12h1.35c.88 0 1.248-.09 1.656-.382.37-.268.612-.778.612-1.35 0-1.006-.765-1.618-2.14-1.618zm.04 8.637c-.918 0-1.99-.218-2.56-.485v-8.534c.61-.28 1.553-.484 2.52-.484 2.102 0 3.197.982 3.197 2.407 0 1.197-.84 1.95-1.566 2.127v.026c.777.19 1.885.88 1.885 2.356 0 1.606-1.26 2.587-3.477 2.587zM10.227 54.602v-9.22h4.777v.942H11.31v3.08h3.402v.918H11.31v3.337h3.694v.942z"/><path d="M10.227 54.602v-9.22h4.777v.942H11.31v3.08h3.402v.918H11.31v3.337h3.694v.942zM21.667 54.602v-4.28h-3.91v4.28h-1.11v-9.22h1.11v4.023h3.91V45.38h1.107v9.222z"/><path d="M21.667 54.602v-4.28h-3.91v4.28h-1.11v-9.22h1.11v4.023h3.91V45.38h1.107v9.222zM24.534 54.602v-9.22h4.776v.942h-3.693v3.08h3.4v.918h-3.4v3.337h3.693v.942z"/><path d="M24.534 54.602v-9.22h4.776v.942h-3.693v3.08h3.4v.918h-3.4v3.337h3.693v.942zM33.247 46.323v8.28H32.15v-8.28h-2.29v-.943h5.68v.943z"/><path d="M33.247 46.323v8.28H32.15v-8.28h-2.29v-.943h5.68v.943zM39.667 47.342c-.166-.497-.28-1.058-.28-1.058h-.025s-.116.56-.28 1.058l-1.287 3.73h3.16l-1.288-3.73zm2.483 7.26l-.942-2.687h-3.67l-.927 2.687h-1.16l3.3-9.22h1.26L43.3 54.6H42.15z"/><path d="M39.667 47.342c-.166-.497-.28-1.058-.28-1.058h-.025s-.116.56-.28 1.058l-1.287 3.73h3.16l-1.288-3.73zm2.483 7.26l-.942-2.687h-3.67l-.927 2.687h-1.16l3.3-9.22h1.26L43.3 54.6H42.15zM51.336 54.742c-1.96 0-3.605-1.518-3.605-4.75 0-3.235 1.646-4.75 3.606-4.75.814 0 1.555.203 1.975.483l-.368.892c-.307-.216-.867-.408-1.502-.408-1.417 0-2.575 1.185-2.575 3.77 0 2.584 1.16 3.784 2.575 3.784.635 0 1.195-.19 1.502-.408l.37.904c-.42.28-1.148.482-1.976.482z"/><path d="M51.336 54.742c-1.96 0-3.605-1.518-3.605-4.75 0-3.235 1.646-4.75 3.606-4.75.814 0 1.555.203 1.975.483l-.368.892c-.307-.216-.867-.408-1.502-.408-1.417 0-2.575 1.185-2.575 3.77 0 2.584 1.16 3.784 2.575 3.784.635 0 1.195-.19 1.502-.408l.37.904c-.42.28-1.148.482-1.976.482zM60.432 54.602v-6.648c0-.533.026-1.12.026-1.12h-.026s-.242.548-.535 1.007l-4.23 6.763h-1.03v-9.22h1.006v6.48c0 .55-.024 1.16-.024 1.16h.023s.254-.548.547-1.007l4.152-6.636h1.082v9.222h-.992z"/><path d="M60.432 54.602v-6.648c0-.533.026-1.12.026-1.12h-.026s-.242.548-.535 1.007l-4.23 6.763h-1.03v-9.22h1.006v6.48c0 .55-.024 1.16-.024 1.16h.023s.254-.548.547-1.007l4.152-6.636h1.082v9.222h-.992zM66.508 54.742c-1.96 0-3.604-1.518-3.604-4.75 0-3.235 1.644-4.75 3.604-4.75.815 0 1.553.203 1.975.483l-.37.892c-.306-.216-.864-.408-1.503-.408-1.414 0-2.57 1.185-2.57 3.77 0 2.584 1.156 3.784 2.57 3.784.64 0 1.197-.19 1.504-.408l.37.904c-.423.28-1.15.482-1.976.482z"/><path d="M66.508 54.742c-1.96 0-3.604-1.518-3.604-4.75 0-3.235 1.644-4.75 3.604-4.75.815 0 1.553.203 1.975.483l-.37.892c-.306-.216-.864-.408-1.503-.408-1.414 0-2.57 1.185-2.57 3.77 0 2.584 1.156 3.784 2.57 3.784.64 0 1.197-.19 1.504-.408l.37.904c-.423.28-1.15.482-1.976.482zM72.61 46.323v8.28h-1.094v-8.28h-2.293v-.943h5.68v.943z"/><path d="M72.61 46.323v8.28h-1.094v-8.28h-2.293v-.943h5.68v.943zM76.074 54.602v-9.22h4.778v.942h-3.694v3.08h3.4v.918h-3.4v3.337h3.694v.942z"/><path d="M76.074 54.602v-9.22h4.778v.942h-3.694v3.08h3.4v.918h-3.4v3.337h3.694v.942zM90.84 54.602l-.867-6.915c-.063-.523-.115-1.12-.115-1.12h-.025s-.127.597-.277 1.12l-2.128 6.915h-.815l-2.127-6.915c-.153-.523-.28-1.12-.28-1.12h-.026s-.04.597-.104 1.12l-.877 6.915h-1.033l1.222-9.22H84.7l2.04 6.622c.15.51.265 1.107.265 1.107h.027s.112-.597.265-1.106l2.04-6.623h1.31l1.225 9.222H90.84z"/><path d="M90.84 54.602l-.867-6.915c-.063-.523-.115-1.12-.115-1.12h-.025s-.127.597-.277 1.12l-2.128 6.915h-.815l-2.127-6.915c-.153-.523-.28-1.12-.28-1.12h-.026s-.04.597-.104 1.12l-.877 6.915h-1.033l1.222-9.22H84.7l2.04 6.622c.15.51.265 1.107.265 1.107h.027s.112-.597.265-1.106l2.04-6.623h1.31l1.225 9.222H90.84z"/></g></svg>