<svg id="Слой_1" xmlns="http://www.w3.org/2000/svg" viewBox="-222 251.3 150 94"><style>.st0{fill:#FFF}.st1,.st2{fill:none;stroke:#FFF}.st2{stroke-linecap:square}</style><title>Group</title><g id="Page-1"><g id="Desktop-HD"><g id="Group"><path id="Rectangle-14" class="st0" d="M-146 254.3h2v2h-2z"/><path id="Rectangle-7" class="st0" d="M-159 318.3h1v1h-1z"/><path id="Rectangle-1" class="st1" d="M-209 251.3h128c1.7 0 3 1.3 3 3v80c0 1.7-1.3 3-3 3h-128c-1.7 0-3-1.3-3-3v-80c0-1.7 1.3-3 3-3z"/><path id="Rectangle-1_1_" class="st1" d="M-203 258.3h116c1.7 0 3 1.3 3 3v67c0 1.7-1.3 3-3 3h-116c-1.7 0-3-1.3-3-3v-67c0-1.7 1.3-3 3-3z"/><path id="Rectangle-1_2_" class="st1" d="M-176 264.3h65c1.7 0 3 1.3 3 3v55c0 1.7-1.3 3-3 3h-65c-1.7 0-3-1.3-3-3v-55c0-1.7 1.3-3 3-3z"/><path id="Rectangle-5" class="st0" d="M-181 267.3c0-1.7 1.3-3 3-3h14v61h-14c-1.7 0-3-1.3-3-3v-55zm4 2h1v1h-1v-1zm4 0h1v1h-1v-1zm4 0h1v1h-1v-1z"/><path id="Rectangle-4" class="st1" d="M-219 336.3h144c1.7 0 3 1.3 3 3v3c0 1.7-1.3 3-3 3h-144c-1.7 0-3-1.3-3-3v-3c0-1.7 1.3-3 3-3z"/><path id="Rectangle-6" class="st0" d="M-156 269.3h25c1.7 0 3 1.1 3 2.5s-1.3 2.5-3 2.5h-25c-1.7 0-3-1.1-3-2.5s1.3-2.5 3-2.5z"/><path id="Line" class="st2" d="M-158.5 279.8h43"/><path id="Line_1_" class="st2" d="M-158.5 284.8h36"/><path id="Line_2_" class="st2" d="M-158.5 289.8h31"/><path id="Line_3_" class="st2" d="M-158.5 294.8h37"/><path id="Line_4_" class="st2" d="M-158.5 299.8h23"/><path id="Line_5_" class="st2" d="M-158.5 304.8h34"/><path id="Rectangle-7_1_" class="st0" d="M-154 318.3h1v1h-1z"/><path id="Rectangle-7_2_" class="st0" d="M-149 318.3h1v1h-1z"/><path id="Rectangle-13" class="st0" d="M-156 340.3h18c1.1 0 2 .9 2 2s-.9 2-2 2h-18c-1.1 0-2-.9-2-2s.9-2 2-2z"/></g></g></g></svg>