<svg id="Слой_1" xmlns="http://www.w3.org/2000/svg" viewBox="-241 237.3 113 122"><style>.st0{fill:none;stroke:#FFF}.st1{fill:#FFF}</style><title>Rectangle 15 + C + Rectangle 16</title><g id="Page-1"><g id="Desktop-HD"><g id="Rectangle-15-_x2B_-C-_x2B_-Rectangle-16"><path id="Rectangle-15" class="st0" d="M-241 239.3c0-1.1.9-2 2-2h56.3c0 .1 12 11.5 12 11.5.8.8 2.1 2 2.9 2.7 0 0 11.9 11 11.9 11.2v90.6c0 1.1-.9 2-2 2h-81c-1.1 0-2-.9-2-2v-114z"/><path id="C" class="st1" d="M-212.6 261.5h-5.2c-.3 1.8-1.2 2.7-2.8 2.7-2 0-3.3-1.8-3.3-4.6 0-2.1.8-4.6 3.3-4.6 1.5 0 2.5.9 2.8 2.4h5.1c-.2-3.8-3.6-6.7-7.8-6.7-5.2 0-8.7 3.9-8.7 8.9 0 5.1 3.3 9 8.6 9 4.3.1 7.7-2.3 8-7.1zm-16.9 17.8h20.5v-1h-21v1h.5zm0 6h11.5v-1h-12v1h.5z"/><path id="Rectangle-16" class="st1" d="M-190 325.3c0-1.1.9-2 2-2h58c1.1 0 2 .9 2 2v32c0 1.1-.9 2-2 2h-58c-1.1 0-2-.9-2-2v-32zm17 11.1h-2.9c-.2 1-.7 1.6-1.6 1.6-1.2 0-1.9-1-1.9-2.6 0-1.2.5-2.6 1.9-2.6.9 0 1.4.5 1.6 1.4h2.9c-.1-2.2-2-3.9-4.4-3.9-3 0-5 2.2-5 5.1 0 2.9 1.9 5.1 4.9 5.1 2.3 0 4.3-1.4 4.5-4.1zm-9.7 10.2H-171v-.6H-183v.6h.3zm0 3.4h6.6v-.6H-183v.6h.3z"/></g></g></g></svg>