<?xml version="1.0" encoding="utf-8"?>
<!-- Generator: Adobe Illustrator 20.1.0, SVG Export Plug-In . SVG Version: 6.00 Build 0)  -->
<svg version="1.1" id="Layer_1" xmlns="http://www.w3.org/2000/svg" xmlns:xlink="http://www.w3.org/1999/xlink" x="0px" y="0px"
	 viewBox="0 0 85.2 25.7" style="enable-background:new 0 0 85.2 25.7;" xml:space="preserve">
<style type="text/css">
	.st0{fill:#29475D;}
	.st1{fill:#27AAE1;}
	.st2{fill:#FFFFFF;}
</style>
<g>
	<g>
		<path class="st0" d="M17.8,2.7v12.5c0,0.4-0.1,0.8-0.4,1.1s-0.6,0.4-1.1,0.4c-0.4,0-0.8-0.1-1-0.4c-0.3-0.3-0.4-0.6-0.4-1.1V2.7
			c0-0.4,0.1-0.8,0.4-1.1c0.3-0.3,0.6-0.4,1-0.4C17.3,1.3,17.8,1.8,17.8,2.7z"/>
		<path class="st0" d="M24.2,5.7c1.6,0,2.9,0.5,3.9,1.6c1.1,1.1,1.6,2.4,1.6,3.9c0,1.6-0.5,2.9-1.6,3.9c-1.1,1.1-2.4,1.6-3.9,1.6
			c-1.6,0-2.9-0.5-3.9-1.6c-1.1-1.1-1.6-2.4-1.6-3.9c0-1.6,0.5-2.9,1.6-3.9C21.3,6.2,22.6,5.7,24.2,5.7z M24.2,8.6
			c-0.7,0-1.3,0.3-1.8,0.8s-0.8,1.1-0.8,1.8s0.3,1.3,0.8,1.9c0.5,0.5,1.1,0.8,1.8,0.8s1.3-0.3,1.9-0.8c0.5-0.5,0.8-1.1,0.8-1.9
			c0-0.7-0.3-1.3-0.8-1.8C25.5,8.9,24.9,8.6,24.2,8.6z"/>
		<path class="st0" d="M33.4,7.2V12c0,0.5,0.2,0.9,0.5,1.2s0.8,0.5,1.2,0.5c0.5,0,0.9-0.2,1.2-0.5s0.5-0.8,0.5-1.2V7.1
			c0-0.4,0.1-0.8,0.4-1.1s0.6-0.4,1.1-0.4c0.4,0,0.8,0.1,1.1,0.4s0.4,0.6,0.4,1.1V12c0,1.3-0.4,2.4-1.3,3.3c-0.9,0.9-2,1.4-3.3,1.4
			s-2.4-0.4-3.3-1.3s-1.3-2-1.3-3.3V7.2c0-0.4,0.1-0.8,0.4-1.1c0.3-0.3,0.6-0.4,1-0.4s0.8,0.1,1.1,0.4C33.3,6.4,33.4,6.8,33.4,7.2z"
			/>
		<path class="st0" d="M46.2,8.6c-0.7,0-1.3,0.3-1.8,0.8s-0.8,1.1-0.8,1.9c0,0.7,0.3,1.3,0.8,1.8s1.1,0.8,1.8,0.8s1.3-0.3,1.9-0.8
			c0.5-0.5,0.8-1.1,0.8-1.8V2.7c0-0.4,0.1-0.8,0.4-1c0.3-0.3,0.6-0.4,1-0.4s0.8,0.1,1.1,0.4s0.4,0.6,0.4,1.1v8.5
			c0,1.5-0.5,2.9-1.6,3.9c-1.1,1.1-2.4,1.6-3.9,1.6s-2.9-0.5-3.9-1.6c-1.1-1.1-1.6-2.4-1.6-3.9c0-1.6,0.5-2.9,1.6-3.9
			c1.1-1.1,2.4-1.6,3.9-1.6c0.4,0,0.8,0.1,1.1,0.4s0.4,0.6,0.4,1.1c0,0.4-0.1,0.8-0.4,1C47,8.4,46.6,8.6,46.2,8.6z"/>
	</g>
	<path class="st1" d="M66.5,5.2c0-0.5-0.3-1.1-0.6-1.4c-0.4-0.4-0.9-0.5-1.4-0.5C63.7,3.4,63,3.9,63,4.9v10.3c0,0.5-0.1,0.8-0.4,1.1
		c-0.3,0.3-0.7,0.4-1.1,0.4c-0.5,0-0.8-0.1-1.1-0.4S60,15.6,60,15.2v-10c0-0.5-0.2-1-0.6-1.3c-0.4-0.4-0.8-0.6-1.3-0.6
		s-1,0.2-1.3,0.5c-0.4,0.4-0.5,0.8-0.5,1.3v10c0,0.5-0.1,0.8-0.4,1.1c-0.3,0.3-0.7,0.4-1.1,0.4c-0.5,0-0.8-0.1-1.1-0.4
		s-0.4-0.7-0.4-1.1v-10c0-1.4,0.5-2.6,1.5-3.6S57,0,58.4,0c1.2,0,2.3,0.4,3.3,1.2C62.6,0.4,63.8,0,65.1,0c1,0,2.3,0.6,3.2,1.7
		c0.8,1,1.2,2.1,1.2,3.5"/>
	<path class="st1" d="M73.7,0.5c0.4,0.4,0.6,0.8,0.6,1.4c0,0.5-0.2,1-0.6,1.4s-0.8,0.6-1.4,0.6c-0.5,0-1-0.2-1.4-0.6
		c-0.3-0.4-0.5-0.9-0.5-1.4s0.2-1,0.6-1.4S71.8,0,72.3,0C72.8,0,73.3,0.1,73.7,0.5z M73.8,6.5c0-1-0.5-1.6-1.5-1.6
		c-0.5,0-0.8,0.1-1.1,0.4S70.8,6,70.8,6.4v8.7c0,0.5,0.1,0.8,0.4,1.1c0.3,0.3,0.7,0.4,1.1,0.4c0.5,0,0.8-0.1,1.1-0.4
		s0.4-0.7,0.4-1.1V6.5L73.8,6.5z"/>
	<path class="st1" d="M78.3,1.8v13.4c0,0.5-0.1,0.8-0.4,1.1s-0.7,0.4-1.1,0.4c-0.5,0-0.8-0.1-1.1-0.4s-0.4-0.7-0.4-1.1V1.8
		c0-0.5,0.1-0.8,0.4-1.1s0.7-0.4,1.1-0.4C77.8,0.2,78.3,0.7,78.3,1.8z"/>
	<path class="st1" d="M82.7,1.8v13.4c0,0.5-0.1,0.8-0.4,1.1s-0.7,0.4-1.1,0.4c-0.5,0-0.8-0.1-1.1-0.4s-0.4-0.7-0.4-1.1V1.8
		c0-0.5,0.1-0.8,0.4-1.1s0.7-0.4,1.1-0.4C82.2,0.2,82.7,0.7,82.7,1.8z"/>
	<path class="st1" d="M64.4,0.2c1.4,0,2.6,0.5,3.6,1.5s1.5,2.2,1.5,3.6v10c0,0.5-0.1,0.8-0.4,1.1s-0.7,0.4-1.1,0.4
		c-0.5,0-0.8-0.1-1.1-0.4s-0.4-0.7-0.4-1.1v-10c0-0.5-0.2-1-0.5-1.3c-0.6-0.8-1-0.8-1.6-0.7"/>
	<g>
		<path class="st0" d="M11.3,13.5c-0.6,0.3-1.3,0.4-2,0.4c-1.4,0-2.6-0.5-3.5-1.4c-0.9-1-1.4-2.1-1.4-3.5s0.5-2.6,1.4-3.5
			c0.9-1,1.6-1.2,2.9-1.4c0.9-0.1,2.2,0.1,2.6,0.3c2.2,1,3.2-1.2,2.3-2c-1-0.7-2.3-1.3-4.2-1.3c-2.2,0-4.1,0.8-5.6,2.3
			C2.2,4.9,1.4,6.8,1.4,9s0.8,4.1,2.3,5.6s3.4,2.3,5.6,2.3c1.3,0,2.5-0.3,3.6-0.8C13.9,15.2,13.8,13.1,11.3,13.5z"/>
	</g>
</g>
<g>
	<path class="st2" d="M2.7,19.7h0.6v4l2.4-4h0.8v4.8H5.9v-4.1l-2.4,4.1H2.7V19.7z"/>
	<path class="st2" d="M7.5,21H8v1.4h1.8V21h0.6v3.5H9.8v-1.6H8v1.6H7.5V21z"/>
	<path class="st2" d="M12,21.5h-1.2V21h3v0.5h-1.2v3H12V21.5z"/>
	<path class="st2" d="M15.8,24.6c-0.3,0-0.5,0-0.7-0.1c-0.2-0.1-0.4-0.2-0.5-0.4c-0.1-0.2-0.2-0.4-0.3-0.6c-0.1-0.2-0.1-0.5-0.1-0.7
		c0-0.3,0-0.5,0.1-0.7c0.1-0.2,0.2-0.4,0.3-0.6c0.1-0.2,0.3-0.3,0.5-0.4c0.2-0.1,0.4-0.1,0.7-0.1c0.3,0,0.6,0.1,0.8,0.2
		c0.2,0.1,0.4,0.3,0.5,0.5s0.2,0.4,0.3,0.6c0,0.2,0.1,0.5,0.1,0.7h-2.6c0,0.2,0,0.3,0.1,0.4c0,0.1,0.1,0.3,0.2,0.4
		c0.1,0.1,0.2,0.2,0.3,0.3s0.3,0.1,0.5,0.1c0.2,0,0.4-0.1,0.6-0.2c0.2-0.1,0.3-0.3,0.3-0.5h0.6c-0.1,0.4-0.2,0.7-0.5,0.9
		C16.5,24.5,16.2,24.6,15.8,24.6z M16.7,22.4c0-0.1,0-0.3-0.1-0.4c-0.1-0.1-0.1-0.2-0.2-0.3s-0.2-0.2-0.3-0.2
		c-0.1-0.1-0.2-0.1-0.4-0.1c-0.1,0-0.3,0-0.4,0.1c-0.1,0.1-0.2,0.1-0.3,0.2c-0.1,0.1-0.2,0.2-0.2,0.3c0,0.1-0.1,0.2-0.1,0.4H16.7z"
		/>
	<path class="st2" d="M17.9,21h0.6v0.5h0c0.1-0.2,0.2-0.3,0.4-0.4c0.2-0.1,0.4-0.1,0.7-0.1c0.3,0,0.5,0,0.7,0.1
		c0.2,0.1,0.4,0.2,0.5,0.4c0.1,0.2,0.2,0.4,0.3,0.6s0.1,0.5,0.1,0.7c0,0.2,0,0.5-0.1,0.7c-0.1,0.2-0.2,0.4-0.3,0.6
		c-0.1,0.2-0.3,0.3-0.5,0.4c-0.2,0.1-0.4,0.1-0.7,0.1c-0.1,0-0.2,0-0.3,0s-0.2,0-0.3-0.1s-0.2-0.1-0.3-0.2c-0.1-0.1-0.2-0.2-0.2-0.3
		h0v1.8h-0.6V21z M19.6,24.1c0.2,0,0.4,0,0.5-0.1c0.1-0.1,0.2-0.2,0.3-0.3c0.1-0.1,0.1-0.3,0.2-0.4c0-0.2,0.1-0.3,0.1-0.5
		c0-0.2,0-0.3-0.1-0.5c0-0.2-0.1-0.3-0.2-0.4s-0.2-0.2-0.3-0.3c-0.1-0.1-0.3-0.1-0.5-0.1c-0.2,0-0.4,0-0.5,0.1
		c-0.1,0.1-0.2,0.2-0.3,0.3c-0.1,0.1-0.1,0.3-0.2,0.4c0,0.2-0.1,0.3-0.1,0.5c0,0.2,0,0.3,0.1,0.5c0,0.2,0.1,0.3,0.2,0.4
		s0.2,0.2,0.3,0.3C19.2,24,19.4,24.1,19.6,24.1z"/>
	<path class="st2" d="M22.8,24.6c-0.2,0-0.3,0-0.4,0c-0.1,0-0.3-0.1-0.4-0.2c-0.1-0.1-0.2-0.2-0.2-0.3c-0.1-0.1-0.1-0.3-0.1-0.4
		c0-0.2,0-0.4,0.1-0.5s0.2-0.2,0.3-0.3s0.2-0.1,0.4-0.2s0.3-0.1,0.4-0.1c0.2,0,0.3-0.1,0.4-0.1c0.1,0,0.3,0,0.4-0.1
		c0.1,0,0.2-0.1,0.3-0.1S24,22.1,24,22c0-0.1,0-0.2-0.1-0.3c0-0.1-0.1-0.1-0.2-0.2c-0.1,0-0.2-0.1-0.2-0.1c-0.1,0-0.2,0-0.3,0
		c-0.2,0-0.4,0-0.6,0.1c-0.2,0.1-0.2,0.3-0.3,0.5h-0.6c0-0.2,0.1-0.4,0.1-0.5c0.1-0.1,0.2-0.3,0.3-0.4c0.1-0.1,0.3-0.2,0.5-0.2
		c0.2,0,0.4-0.1,0.6-0.1c0.2,0,0.3,0,0.5,0s0.3,0.1,0.4,0.1c0.1,0.1,0.2,0.2,0.3,0.3c0.1,0.1,0.1,0.3,0.1,0.5v1.8c0,0.1,0,0.2,0,0.3
		s0.1,0.1,0.2,0.1c0,0,0.1,0,0.2,0v0.4c-0.1,0.1-0.2,0.1-0.4,0.1c-0.1,0-0.3,0-0.4-0.1C24.1,24.4,24,24.2,24,24
		c-0.2,0.2-0.3,0.3-0.5,0.4C23.3,24.5,23.1,24.6,22.8,24.6z M23,24.1c0.2,0,0.3,0,0.5-0.1c0.1-0.1,0.2-0.1,0.3-0.2s0.1-0.2,0.2-0.3
		c0-0.1,0.1-0.2,0.1-0.3v-0.6c-0.1,0.1-0.2,0.1-0.3,0.1c-0.1,0-0.2,0-0.4,0.1c-0.1,0-0.3,0-0.4,0.1s-0.2,0-0.3,0.1
		c-0.1,0-0.2,0.1-0.3,0.2c-0.1,0.1-0.1,0.2-0.1,0.3c0,0.1,0,0.2,0.1,0.2c0,0.1,0.1,0.1,0.1,0.2s0.1,0.1,0.2,0.1
		C22.8,24.1,22.9,24.1,23,24.1z"/>
	<path class="st2" d="M25.5,21H26v1.7l1.6-1.7h0.8l-1.5,1.5l1.7,2h-0.7l-1.4-1.6L26,23.2v1.3h-0.6V21z"/>
	<path class="st2" d="M29.8,21.5h-1.2V21h3v0.5h-1.2v3h-0.6V21.5z"/>
	<path class="st2" d="M32.1,21h0.6v2.8l1.6-2.8H35v3.5h-0.6v-2.8l-1.6,2.8h-0.7V21z"/>
	<path class="st2" d="M35.9,21h1.6c0.2,0,0.3,0,0.4,0s0.3,0.1,0.4,0.1s0.2,0.1,0.3,0.3c0.1,0.1,0.1,0.3,0.1,0.4c0,0.2,0,0.3-0.1,0.5
		c-0.1,0.1-0.2,0.2-0.4,0.3v0c0.2,0,0.4,0.1,0.5,0.3s0.2,0.3,0.2,0.6c0,0.1,0,0.3-0.1,0.4c-0.1,0.1-0.1,0.2-0.2,0.3
		c-0.1,0.1-0.2,0.2-0.3,0.2c-0.1,0.1-0.3,0.1-0.4,0.1h-1.9V21z M37.4,22.5c0.2,0,0.4,0,0.5-0.1c0.1-0.1,0.1-0.2,0.1-0.4
		c0-0.1,0-0.3-0.1-0.3s-0.3-0.1-0.5-0.1h-1v0.9H37.4z M37.6,24c0.2,0,0.3-0.1,0.4-0.2c0.1-0.1,0.1-0.2,0.1-0.4
		c0-0.2-0.1-0.3-0.2-0.4s-0.3-0.1-0.5-0.1h-1.1V24H37.6z"/>
	<path class="st2" d="M39.5,21h0.6v1.4h1.8V21h0.6v3.5h-0.6v-1.6h-1.8v1.6h-0.6V21z"/>
	<path class="st2" d="M44.7,24.6c-0.3,0-0.5,0-0.7-0.1c-0.2-0.1-0.4-0.2-0.5-0.4c-0.1-0.2-0.2-0.4-0.3-0.6C43.1,23.3,43,23,43,22.8
		c0-0.3,0-0.5,0.1-0.7c0.1-0.2,0.2-0.4,0.3-0.6c0.1-0.2,0.3-0.3,0.5-0.4c0.2-0.1,0.5-0.1,0.7-0.1c0.3,0,0.5,0,0.7,0.1
		c0.2,0.1,0.4,0.2,0.5,0.4c0.1,0.2,0.2,0.4,0.3,0.6c0.1,0.2,0.1,0.5,0.1,0.7c0,0.3,0,0.5-0.1,0.7c-0.1,0.2-0.2,0.4-0.3,0.6
		c-0.1,0.2-0.3,0.3-0.5,0.4C45.2,24.5,45,24.6,44.7,24.6z M44.7,24.1c0.1,0,0.3,0,0.4-0.1c0.1-0.1,0.2-0.1,0.3-0.3s0.2-0.2,0.2-0.4
		s0.1-0.3,0.1-0.6s0-0.4-0.1-0.6c-0.1-0.2-0.1-0.3-0.2-0.4s-0.2-0.2-0.3-0.3c-0.1-0.1-0.3-0.1-0.4-0.1c-0.1,0-0.3,0-0.4,0.1
		c-0.1,0.1-0.2,0.1-0.3,0.3c-0.1,0.1-0.2,0.2-0.2,0.4c-0.1,0.2-0.1,0.3-0.1,0.6s0,0.4,0.1,0.6c0.1,0.2,0.1,0.3,0.2,0.4
		c0.1,0.1,0.2,0.2,0.3,0.3C44.4,24.1,44.6,24.1,44.7,24.1z"/>
	<path class="st2" d="M48.5,24.6c-0.3,0-0.5,0-0.7-0.1c-0.2-0.1-0.4-0.2-0.5-0.4c-0.1-0.2-0.2-0.4-0.3-0.6c-0.1-0.2-0.1-0.5-0.1-0.7
		c0-0.3,0-0.5,0.1-0.7c0.1-0.2,0.2-0.4,0.3-0.6c0.1-0.2,0.3-0.3,0.5-0.4c0.2-0.1,0.4-0.1,0.7-0.1c0.3,0,0.6,0.1,0.8,0.2
		s0.4,0.3,0.5,0.5S50,22,50,22.3c0,0.2,0.1,0.5,0.1,0.7h-2.6c0,0.2,0,0.3,0.1,0.4c0,0.1,0.1,0.3,0.2,0.4c0.1,0.1,0.2,0.2,0.3,0.3
		c0.1,0.1,0.3,0.1,0.5,0.1c0.2,0,0.4-0.1,0.6-0.2c0.2-0.1,0.3-0.3,0.3-0.5H50c-0.1,0.4-0.2,0.7-0.5,0.9
		C49.3,24.5,48.9,24.6,48.5,24.6z M49.5,22.4c0-0.1,0-0.3-0.1-0.4c-0.1-0.1-0.1-0.2-0.2-0.3s-0.2-0.2-0.3-0.2
		c-0.1-0.1-0.2-0.1-0.4-0.1c-0.1,0-0.3,0-0.4,0.1c-0.1,0.1-0.2,0.1-0.3,0.2c-0.1,0.1-0.2,0.2-0.2,0.3c0,0.1-0.1,0.2-0.1,0.4H49.5z"
		/>
	<path class="st2" d="M53.5,24.6c-0.2,0-0.3,0-0.4,0c-0.1,0-0.3-0.1-0.4-0.2c-0.1-0.1-0.2-0.2-0.2-0.3c-0.1-0.1-0.1-0.3-0.1-0.4
		c0-0.2,0-0.4,0.1-0.5c0.1-0.1,0.2-0.2,0.3-0.3s0.2-0.1,0.4-0.2s0.3-0.1,0.4-0.1c0.2,0,0.3-0.1,0.4-0.1s0.3,0,0.4-0.1
		c0.1,0,0.2-0.1,0.3-0.1c0.1-0.1,0.1-0.1,0.1-0.2c0-0.1,0-0.2-0.1-0.3c0-0.1-0.1-0.1-0.2-0.2c-0.1,0-0.2-0.1-0.2-0.1
		c-0.1,0-0.2,0-0.3,0c-0.2,0-0.4,0-0.6,0.1c-0.2,0.1-0.2,0.3-0.3,0.5h-0.6c0-0.2,0.1-0.4,0.1-0.5s0.2-0.3,0.3-0.4
		c0.1-0.1,0.3-0.2,0.5-0.2s0.4-0.1,0.6-0.1c0.2,0,0.3,0,0.5,0s0.3,0.1,0.4,0.1c0.1,0.1,0.2,0.2,0.3,0.3c0.1,0.1,0.1,0.3,0.1,0.5v1.8
		c0,0.1,0,0.2,0,0.3s0.1,0.1,0.2,0.1c0,0,0.1,0,0.2,0v0.4c-0.1,0.1-0.2,0.1-0.4,0.1c-0.1,0-0.3,0-0.4-0.1c-0.1-0.1-0.1-0.2-0.1-0.4
		c-0.2,0.2-0.3,0.3-0.5,0.4C54,24.5,53.7,24.6,53.5,24.6z M53.6,24.1c0.2,0,0.3,0,0.5-0.1c0.1-0.1,0.2-0.1,0.3-0.2s0.1-0.2,0.2-0.3
		c0-0.1,0.1-0.2,0.1-0.3v-0.6c-0.1,0.1-0.2,0.1-0.3,0.1c-0.1,0-0.2,0-0.4,0.1c-0.1,0-0.3,0-0.4,0.1c-0.1,0-0.2,0-0.3,0.1
		s-0.2,0.1-0.3,0.2c-0.1,0.1-0.1,0.2-0.1,0.3c0,0.1,0,0.2,0.1,0.2s0.1,0.1,0.1,0.2c0.1,0,0.1,0.1,0.2,0.1
		C53.4,24.1,53.5,24.1,53.6,24.1z"/>
	<path class="st2" d="M56.1,21h2.4v0.5h-1.8v3h-0.6V21z"/>
	<path class="st2" d="M60.4,24.6c-0.3,0-0.5,0-0.7-0.1c-0.2-0.1-0.4-0.2-0.5-0.4c-0.1-0.2-0.2-0.4-0.3-0.6c-0.1-0.2-0.1-0.5-0.1-0.7
		c0-0.3,0-0.5,0.1-0.7c0.1-0.2,0.2-0.4,0.3-0.6c0.1-0.2,0.3-0.3,0.5-0.4c0.2-0.1,0.4-0.1,0.7-0.1c0.3,0,0.6,0.1,0.8,0.2
		s0.4,0.3,0.5,0.5s0.2,0.4,0.3,0.6c0,0.2,0.1,0.5,0.1,0.7h-2.6c0,0.2,0,0.3,0.1,0.4c0,0.1,0.1,0.3,0.2,0.4c0.1,0.1,0.2,0.2,0.3,0.3
		c0.1,0.1,0.3,0.1,0.5,0.1c0.2,0,0.4-0.1,0.6-0.2c0.2-0.1,0.3-0.3,0.3-0.5h0.6c-0.1,0.4-0.2,0.7-0.5,0.9
		C61.2,24.5,60.8,24.6,60.4,24.6z M61.4,22.4c0-0.1,0-0.3-0.1-0.4c-0.1-0.1-0.1-0.2-0.2-0.3s-0.2-0.2-0.3-0.2
		c-0.1-0.1-0.2-0.1-0.4-0.1c-0.1,0-0.3,0-0.4,0.1c-0.1,0.1-0.2,0.1-0.3,0.2c-0.1,0.1-0.2,0.2-0.2,0.3c0,0.1-0.1,0.2-0.1,0.4H61.4z"
		/>
	<path class="st2" d="M62.6,21h0.6v1.4h1.8V21h0.6v3.5h-0.6v-1.6h-1.8v1.6h-0.6V21z"/>
	<path class="st2" d="M67.1,21.5h-1.2V21h3v0.5h-1.2v3h-0.6V21.5z"/>
	<path class="st2" d="M70.8,24.6c-0.3,0-0.5,0-0.7-0.1s-0.4-0.2-0.5-0.4s-0.2-0.3-0.3-0.6c-0.1-0.2-0.1-0.5-0.1-0.7
		c0-0.3,0-0.5,0.1-0.7c0.1-0.2,0.2-0.4,0.3-0.6c0.1-0.2,0.3-0.3,0.5-0.4s0.4-0.1,0.7-0.1c0.2,0,0.4,0,0.6,0.1s0.3,0.1,0.5,0.2
		c0.1,0.1,0.2,0.2,0.3,0.4c0.1,0.1,0.1,0.3,0.2,0.5h-0.6c0-0.2-0.1-0.4-0.3-0.5c-0.1-0.1-0.3-0.2-0.6-0.2c-0.2,0-0.4,0-0.5,0.1
		c-0.1,0.1-0.2,0.2-0.3,0.3c-0.1,0.1-0.1,0.3-0.2,0.4c0,0.2-0.1,0.3-0.1,0.5c0,0.2,0,0.3,0.1,0.5c0,0.2,0.1,0.3,0.2,0.4
		c0.1,0.1,0.2,0.2,0.3,0.3s0.3,0.1,0.5,0.1c0.3,0,0.5-0.1,0.7-0.2s0.3-0.4,0.3-0.6h0.6c-0.1,0.4-0.2,0.8-0.5,1
		C71.6,24.5,71.3,24.6,70.8,24.6z"/>
	<path class="st2" d="M73.8,21.5h-1.2V21h3v0.5h-1.2v3h-0.6V21.5z"/>
	<path class="st2" d="M76.1,21h1.6c0.2,0,0.3,0,0.4,0s0.3,0.1,0.4,0.1c0.1,0.1,0.2,0.1,0.3,0.3c0.1,0.1,0.1,0.3,0.1,0.4
		c0,0.2,0,0.3-0.1,0.5c-0.1,0.1-0.2,0.2-0.4,0.3v0c0.2,0,0.4,0.1,0.5,0.3s0.2,0.3,0.2,0.6c0,0.1,0,0.3-0.1,0.4
		c-0.1,0.1-0.1,0.2-0.2,0.3c-0.1,0.1-0.2,0.2-0.3,0.2c-0.1,0.1-0.3,0.1-0.4,0.1h-1.9V21z M77.6,22.5c0.2,0,0.4,0,0.5-0.1
		c0.1-0.1,0.1-0.2,0.1-0.4c0-0.1,0-0.3-0.1-0.3c-0.1-0.1-0.3-0.1-0.5-0.1h-1v0.9H77.6z M77.9,24c0.2,0,0.3-0.1,0.4-0.2
		s0.1-0.2,0.1-0.4c0-0.2-0.1-0.3-0.2-0.4c-0.1-0.1-0.3-0.1-0.5-0.1h-1.1V24H77.9z"/>
	<path class="st2" d="M81.2,24.6c-0.3,0-0.5,0-0.7-0.1c-0.2-0.1-0.4-0.2-0.5-0.4c-0.1-0.2-0.2-0.4-0.3-0.6c-0.1-0.2-0.1-0.5-0.1-0.7
		c0-0.3,0-0.5,0.1-0.7s0.2-0.4,0.3-0.6c0.1-0.2,0.3-0.3,0.5-0.4c0.2-0.1,0.5-0.1,0.7-0.1c0.3,0,0.5,0,0.7,0.1s0.4,0.2,0.5,0.4
		c0.1,0.2,0.2,0.4,0.3,0.6s0.1,0.5,0.1,0.7c0,0.3,0,0.5-0.1,0.7c-0.1,0.2-0.2,0.4-0.3,0.6c-0.1,0.2-0.3,0.3-0.5,0.4
		C81.7,24.5,81.5,24.6,81.2,24.6z M81.2,24.1c0.1,0,0.3,0,0.4-0.1c0.1-0.1,0.2-0.1,0.3-0.3c0.1-0.1,0.2-0.2,0.2-0.4
		c0.1-0.2,0.1-0.3,0.1-0.6s0-0.4-0.1-0.6c-0.1-0.2-0.1-0.3-0.2-0.4c-0.1-0.1-0.2-0.2-0.3-0.3c-0.1-0.1-0.3-0.1-0.4-0.1
		s-0.3,0-0.4,0.1c-0.1,0.1-0.2,0.1-0.3,0.3c-0.1,0.1-0.2,0.2-0.2,0.4c-0.1,0.2-0.1,0.3-0.1,0.6s0,0.4,0.1,0.6s0.1,0.3,0.2,0.4
		c0.1,0.1,0.2,0.2,0.3,0.3C80.9,24.1,81.1,24.1,81.2,24.1z"/>
</g>
</svg>
