<svg id="Layer_1" xmlns="http://www.w3.org/2000/svg" viewBox="0 0 85.2 25.7"><style>.st0{fill:#29475d}.st1{fill:#27aae1}.st2{fill:#FFF}</style><path class="st0" d="M17.8 2.7v12.5c0 .4-.1.8-.4 1.1s-.6.4-1.1.4c-.4 0-.8-.1-1-.4-.3-.3-.4-.6-.4-1.1V2.7c0-.4.1-.8.4-1.1.3-.3.6-.4 1-.4 1 .1 1.5.6 1.5 1.5zM24.2 5.7c1.6 0 2.9.5 3.9 1.6 1.1 1.1 1.6 2.4 1.6 3.9 0 1.6-.5 2.9-1.6 3.9-1.1 1.1-2.4 1.6-3.9 1.6-1.6 0-2.9-.5-3.9-1.6-1.1-1.1-1.6-2.4-1.6-3.9 0-1.6.5-2.9 1.6-3.9 1-1.1 2.3-1.6 3.9-1.6zm0 2.9c-.7 0-1.3.3-1.8.8s-.8 1.1-.8 1.8.3 1.3.8 1.9c.5.5 1.1.8 1.8.8s1.3-.3 1.9-.8c.5-.5.8-1.1.8-1.9 0-.7-.3-1.3-.8-1.8-.6-.5-1.2-.8-1.9-.8zM33.4 7.2V12c0 .5.2.9.5 1.2s.8.5 1.2.5c.5 0 .9-.2 1.2-.5s.5-.8.5-1.2V7.1c0-.4.1-.8.4-1.1s.6-.4 1.1-.4c.4 0 .8.1 1.1.4s.4.6.4 1.1V12c0 1.3-.4 2.4-1.3 3.3-.9.9-2 1.4-3.3 1.4s-2.4-.4-3.3-1.3-1.3-2-1.3-3.3V7.2c0-.4.1-.8.4-1.1.3-.3.6-.4 1-.4s.8.1 1.1.4c.2.3.3.7.3 1.1zM46.2 8.6c-.7 0-1.3.3-1.8.8s-.8 1.1-.8 1.9c0 .7.3 1.3.8 1.8s1.1.8 1.8.8 1.3-.3 1.9-.8c.5-.5.8-1.1.8-1.8V2.7c0-.4.1-.8.4-1 .3-.3.6-.4 1-.4s.8.1 1.1.4.4.6.4 1.1v8.5c0 1.5-.5 2.9-1.6 3.9-1.1 1.1-2.4 1.6-3.9 1.6s-2.9-.5-3.9-1.6c-1.1-1.1-1.6-2.4-1.6-3.9 0-1.6.5-2.9 1.6-3.9 1.1-1.1 2.4-1.6 3.9-1.6.4 0 .8.1 1.1.4s.4.6.4 1.1c0 .4-.1.8-.4 1-.4.1-.8.3-1.2.3z"/><path class="st1" d="M66.5 5.2c0-.5-.3-1.1-.6-1.4-.4-.4-.9-.5-1.4-.5-.8.1-1.5.6-1.5 1.6v10.3c0 .5-.1.8-.4 1.1-.3.3-.7.4-1.1.4-.5 0-.8-.1-1.1-.4s-.4-.7-.4-1.1v-10c0-.5-.2-1-.6-1.3-.4-.4-.8-.6-1.3-.6s-1 .2-1.3.5c-.4.4-.5.8-.5 1.3v10c0 .5-.1.8-.4 1.1-.3.3-.7.4-1.1.4-.5 0-.8-.1-1.1-.4s-.4-.7-.4-1.1v-10c0-1.4.5-2.6 1.5-3.6S57 0 58.4 0c1.2 0 2.3.4 3.3 1.2.9-.8 2.1-1.2 3.4-1.2 1 0 2.3.6 3.2 1.7.8 1 1.2 2.1 1.2 3.5M73.7.5c.4.4.6.8.6 1.4 0 .5-.2 1-.6 1.4s-.8.6-1.4.6c-.5 0-1-.2-1.4-.6-.3-.4-.5-.9-.5-1.4s.2-1 .6-1.4.8-.5 1.3-.5 1 .1 1.4.5zm.1 6c0-1-.5-1.6-1.5-1.6-.5 0-.8.1-1.1.4s-.4.7-.4 1.1v8.7c0 .5.1.8.4 1.1.3.3.7.4 1.1.4.5 0 .8-.1 1.1-.4s.4-.7.4-1.1V6.5zM78.3 1.8v13.4c0 .5-.1.8-.4 1.1s-.7.4-1.1.4c-.5 0-.8-.1-1.1-.4s-.4-.7-.4-1.1V1.8c0-.5.1-.8.4-1.1s.7-.4 1.1-.4c1-.1 1.5.4 1.5 1.5zM82.7 1.8v13.4c0 .5-.1.8-.4 1.1s-.7.4-1.1.4c-.5 0-.8-.1-1.1-.4s-.4-.7-.4-1.1V1.8c0-.5.1-.8.4-1.1s.7-.4 1.1-.4c1-.1 1.5.4 1.5 1.5z"/><path class="st1" d="M64.4.2c1.4 0 2.6.5 3.6 1.5s1.5 2.2 1.5 3.6v10c0 .5-.1.8-.4 1.1s-.7.4-1.1.4c-.5 0-.8-.1-1.1-.4s-.4-.7-.4-1.1v-10c0-.5-.2-1-.5-1.3-.6-.8-1-.8-1.6-.7"/><g><path class="st0" d="M11.3 13.5c-.6.3-1.3.4-2 .4-1.4 0-2.6-.5-3.5-1.4-.9-1-1.4-2.1-1.4-3.5s.5-2.6 1.4-3.5c.9-1 1.6-1.2 2.9-1.4.9-.1 2.2.1 2.6.3 2.2 1 3.2-1.2 2.3-2-1-.7-2.3-1.3-4.2-1.3-2.2 0-4.1.8-5.6 2.3C2.2 4.9 1.4 6.8 1.4 9s.8 4.1 2.3 5.6 3.4 2.3 5.6 2.3c1.3 0 2.5-.3 3.6-.8 1-.9.9-3-1.6-2.6z"/></g><g><path class="st2" d="M2.7 19.7h.6v4l2.4-4h.8v4.8h-.6v-4.1l-2.4 4.1h-.8v-4.8zM7.5 21H8v1.4h1.8V21h.6v3.5h-.6v-1.6H8v1.6h-.5V21zM12 21.5h-1.2V21h3v.5h-1.2v3H12v-3zM15.8 24.6c-.3 0-.5 0-.7-.1-.2-.1-.4-.2-.5-.4l-.3-.6c-.1-.2-.1-.5-.1-.7 0-.3 0-.5.1-.7l.3-.6c.1-.2.3-.3.5-.4.2-.1.4-.1.7-.1.3 0 .6.1.8.2.2.1.4.3.5.5l.3.6c0 .2.1.5.1.7h-2.6c0 .2 0 .3.1.4 0 .1.1.3.2.4l.3.3c.1.1.3.1.5.1s.4-.1.6-.2c.2-.1.3-.3.3-.5h.6c-.1.4-.2.7-.5.9-.5.1-.8.2-1.2.2zm.9-2.2c0-.1 0-.3-.1-.4-.1-.1-.1-.2-.2-.3s-.2-.2-.3-.2c-.1-.1-.2-.1-.4-.1-.1 0-.3 0-.4.1-.1.1-.2.1-.3.2-.1.1-.2.2-.2.3 0 .1-.1.2-.1.4h2zM17.9 21h.6v.5c.1-.2.2-.3.4-.4.2-.1.4-.1.7-.1.3 0 .5 0 .7.1.2.1.4.2.5.4l.3.6c.1.2.1.5.1.7 0 .2 0 .5-.1.7l-.3.6c-.1.2-.3.3-.5.4-.2.1-.4.1-.7.1h-.3c-.1 0-.2 0-.3-.1s-.2-.1-.3-.2c-.1-.1-.2-.2-.2-.3v1.8h-.6V21zm1.7 3.1c.2 0 .4 0 .5-.1l.3-.3c.1-.1.1-.3.2-.4 0-.2.1-.3.1-.5s0-.3-.1-.5c0-.2-.1-.3-.2-.4l-.3-.3c-.1-.1-.3-.1-.5-.1s-.4 0-.5.1l-.3.3c-.1.1-.1.3-.2.4 0 .2-.1.3-.1.5s0 .3.1.5c0 .2.1.3.2.4l.3.3c.1 0 .3.1.5.1zM22.8 24.6h-.4c-.1 0-.3-.1-.4-.2-.1-.1-.2-.2-.2-.3-.1-.1-.1-.3-.1-.4 0-.2 0-.4.1-.5l.3-.3c.1-.1.2-.1.4-.2s.3-.1.4-.1c.2 0 .3-.1.4-.1.1 0 .3 0 .4-.1.1 0 .2-.1.3-.1s0-.2 0-.3c0-.1 0-.2-.1-.3 0-.1-.1-.1-.2-.2-.1 0-.2-.1-.2-.1h-.3c-.2 0-.4 0-.6.1-.2.1-.2.3-.3.5h-.6c0-.2.1-.4.1-.5.1-.1.2-.3.3-.4.1-.1.3-.2.5-.2s.4-.1.6-.1h.5c.2 0 .3.1.4.1l.3.3c.1.1.1.3.1.5v2.1c0 .1.1.1.2.1h.2v.4c-.1.1-.2.1-.4.1-.1 0-.3 0-.4-.1 0 .1-.1-.1-.1-.3-.2.2-.3.3-.5.4-.2.1-.4.2-.7.2zm.2-.5c.2 0 .3 0 .5-.1.1-.1.2-.1.3-.2s.1-.2.2-.3c0-.1.1-.2.1-.3v-.6c-.1.1-.2.1-.3.1-.1 0-.2 0-.4.1-.1 0-.3 0-.4.1s-.2 0-.3.1c-.1 0-.2.1-.3.2-.1.1-.1.2-.1.3 0 .1 0 .2.1.2 0 .1.1.1.1.2s.1.1.2.1c.1.1.2.1.3.1zM25.5 21h.5v1.7l1.6-1.7h.8l-1.5 1.5 1.7 2h-.7l-1.4-1.6-.5.3v1.3h-.6V21zM29.8 21.5h-1.2V21h3v.5h-1.2v3h-.6v-3zM32.1 21h.6v2.8l1.6-2.8h.7v3.5h-.6v-2.8l-1.6 2.8h-.7V21zM35.9 21h2c.1 0 .3.1.4.1s.2.1.3.3c.1.1.1.3.1.4 0 .2 0 .3-.1.5-.1.1-.2.2-.4.3.2 0 .4.1.5.3s.2.3.2.6c0 .1 0 .3-.1.4-.1.1-.1.2-.2.3-.1.1-.2.2-.3.2-.1.1-.3.1-.4.1H36V21zm1.5 1.5c.2 0 .4 0 .5-.1.1-.1.1-.2.1-.4 0-.1 0-.3-.1-.3s-.3-.1-.5-.1h-1v.9h1zm.2 1.5c.2 0 .3-.1.4-.2.1-.1.1-.2.1-.4s-.1-.3-.2-.4-.3-.1-.5-.1h-1.1V24h1.3zM39.5 21h.6v1.4h1.8V21h.6v3.5h-.6v-1.6h-1.8v1.6h-.6V21zM44.7 24.6c-.3 0-.5 0-.7-.1-.2-.1-.4-.2-.5-.4l-.3-.6c-.1-.2-.2-.5-.2-.7 0-.3 0-.5.1-.7l.3-.6c.1-.2.3-.3.5-.4.2-.1.5-.1.7-.1.3 0 .5 0 .7.1.2.1.4.2.5.4l.3.6c.1.2.1.5.1.7 0 .3 0 .5-.1.7l-.3.6c-.1.2-.3.3-.5.4-.1 0-.3.1-.6.1zm0-.5c.1 0 .3 0 .4-.1.1-.1.2-.1.3-.3s.2-.2.2-.4.1-.3.1-.6 0-.4-.1-.6c-.1-.2-.1-.3-.2-.4l-.3-.3c-.1-.1-.3-.1-.4-.1-.1 0-.3 0-.4.1-.1.1-.2.1-.3.3-.1.1-.2.2-.2.4-.1.2-.1.3-.1.6s0 .4.1.6c.1.2.1.3.2.4l.3.3c.1.1.3.1.4.1zM48.5 24.6c-.3 0-.5 0-.7-.1-.2-.1-.4-.2-.5-.4l-.3-.6c-.1-.2-.1-.5-.1-.7 0-.3 0-.5.1-.7l.3-.6c.1-.2.3-.3.5-.4.2-.1.4-.1.7-.1.3 0 .6.1.8.2s.4.3.5.5.2.3.2.6c0 .2.1.5.1.7h-2.6c0 .2 0 .3.1.4 0 .1.1.3.2.4l.3.3c.1.1.3.1.5.1s.4-.1.6-.2c.2-.1.3-.3.3-.5h.5c-.1.4-.2.7-.5.9-.2.1-.6.2-1 .2zm1-2.2c0-.1 0-.3-.1-.4-.1-.1-.1-.2-.2-.3s-.2-.2-.3-.2c-.1-.1-.2-.1-.4-.1-.1 0-.3 0-.4.1-.1.1-.2.1-.3.2-.1.1-.2.2-.2.3 0 .1-.1.2-.1.4h2zM53.5 24.6h-.4c-.1 0-.3-.1-.4-.2-.1-.1-.2-.2-.2-.3-.1-.1-.1-.3-.1-.4 0-.2 0-.4.1-.5l.3-.3c.1-.1.2-.1.4-.2s.3-.1.4-.1c.2 0 .3-.1.4-.1s.3 0 .4-.1c.1 0 .2-.1.3-.1.1-.1.1-.1.1-.2s0-.2-.1-.3c0-.1-.1-.1-.2-.2-.1 0-.2-.1-.2-.1H54c-.2 0-.4 0-.6.1-.2.1-.2.3-.3.5h-.6c0-.2.1-.4.1-.5s.2-.3.3-.4c.1-.1.3-.2.5-.2s.4-.1.6-.1h.5c.2 0 .3.1.4.1l.3.3c.1.1.1.3.1.5v2.1c0 .1.1.1.2.1h.2v.4c-.1.1-.2.1-.4.1-.1 0-.3 0-.4-.1-.1-.1-.1-.2-.1-.4-.2.2-.3.3-.5.4-.3.1-.6.2-.8.2zm.1-.5c.2 0 .3 0 .5-.1.1-.1.2-.1.3-.2s.1-.2.2-.3c0-.1.1-.2.1-.3v-.6c-.1.1-.2.1-.3.1-.1 0-.2 0-.4.1-.1 0-.3 0-.4.1-.1 0-.2 0-.3.1s-.2.1-.3.2c-.1.1-.1.2-.1.3 0 .1 0 .2.1.2s.1.1.1.2c.1 0 .1.1.2.1.1.1.2.1.3.1zM56.1 21h2.4v.5h-1.8v3h-.6V21zM60.4 24.6c-.3 0-.5 0-.7-.1-.2-.1-.4-.2-.5-.4l-.3-.6c-.1-.2-.1-.5-.1-.7 0-.3 0-.5.1-.7l.3-.6c.1-.2.3-.3.5-.4.2-.1.4-.1.7-.1.3 0 .6.1.8.2s.4.3.5.5l.3.6c0 .2.1.5.1.7h-2.6c0 .2 0 .3.1.4 0 .1.1.3.2.4l.3.3c.1.1.3.1.5.1s.4-.1.6-.2c.2-.1.3-.3.3-.5h.6c-.1.4-.2.7-.5.9-.4.1-.8.2-1.2.2zm1-2.2c0-.1 0-.3-.1-.4-.1-.1-.1-.2-.2-.3s-.2-.2-.3-.2c-.1-.1-.2-.1-.4-.1-.1 0-.3 0-.4.1-.1.1-.2.1-.3.2-.1.1-.2.2-.2.3 0 .1-.1.2-.1.4h2zM62.6 21h.6v1.4H65V21h.6v3.5H65v-1.6h-1.8v1.6h-.6V21zM67.1 21.5h-1.2V21h3v.5h-1.2v3h-.6v-3zM70.8 24.6c-.3 0-.5 0-.7-.1s-.4-.2-.5-.4-.2-.3-.3-.6c-.1-.2-.1-.5-.1-.7 0-.3 0-.5.1-.7l.3-.6c.1-.2.3-.3.5-.4s.4-.1.7-.1c.2 0 .4 0 .6.1s.3.1.5.2c.1.1.2.2.3.4.1.1.1.3.2.5h-.6c0-.2-.1-.4-.3-.5-.1-.1-.3-.2-.6-.2-.2 0-.4 0-.5.1l-.3.3c-.1.1-.1.3-.2.4 0 .2-.1.3-.1.5s0 .3.1.5c0 .2.1.3.2.4l.3.3c.1.1.3.1.5.1.3 0 .5-.1.7-.2s.3-.4.3-.6h.6c-.1.4-.2.8-.5 1-.4.2-.7.3-1.2.3zM73.8 21.5h-1.2V21h3v.5h-1.2v3h-.6v-3zM76.1 21h2c.1 0 .3.1.4.1.1.1.2.1.3.3.1.1.1.3.1.4 0 .2 0 .3-.1.5-.1.1-.2.2-.4.3.2 0 .4.1.5.3s.2.3.2.6c0 .1 0 .3-.1.4-.1.1-.1.2-.2.3-.1.1-.2.2-.3.2-.1.1-.3.1-.4.1h-1.9V21zm1.5 1.5c.2 0 .4 0 .5-.1.1-.1.1-.2.1-.4 0-.1 0-.3-.1-.3-.1-.1-.3-.1-.5-.1h-1v.9h1zm.3 1.5c.2 0 .3-.1.4-.2s.1-.2.1-.4-.1-.3-.2-.4c-.1-.1-.3-.1-.5-.1h-1.1V24h1.3zM81.2 24.6c-.3 0-.5 0-.7-.1-.2-.1-.4-.2-.5-.4l-.3-.6c-.1-.2-.1-.5-.1-.7 0-.3 0-.5.1-.7l.3-.6c.1-.2.3-.3.5-.4.2-.1.5-.1.7-.1.3 0 .5 0 .7.1s.4.2.5.4l.3.6c.1.2.1.5.1.7 0 .3 0 .5-.1.7l-.3.6c-.1.2-.3.3-.5.4-.2 0-.4.1-.7.1zm0-.5c.1 0 .3 0 .4-.1.1-.1.2-.1.3-.3.1-.1.2-.2.2-.4.1-.2.1-.3.1-.6s0-.4-.1-.6c-.1-.2-.1-.3-.2-.4l-.3-.3c-.1-.1-.3-.1-.4-.1s-.3 0-.4.1c-.1.1-.2.1-.3.3-.1.1-.2.2-.2.4-.1.2-.1.3-.1.6s0 .4.1.6.1.3.2.4l.3.3c.1.1.3.1.4.1z"/></g></svg>