<svg id="Layer_1" xmlns="http://www.w3.org/2000/svg" viewBox="-254 289.6 85.2 16.7"><style>.st0{fill:#29475d}.st1{fill:#27aae1}</style><path class="st0" d="M-236.6 292.3v12.5c0 .4-.1.8-.4 1.1-.3.3-.6.4-1.1.4-.4 0-.8-.1-1-.4-.3-.3-.4-.6-.4-1.1v-12.5c0-.4.1-.8.4-1.1.3-.3.6-.4 1-.4 1 .1 1.5.6 1.5 1.5zM-230.2 295.3c1.6 0 2.9.5 3.9 1.6 1.1 1.1 1.6 2.4 1.6 3.9 0 1.6-.5 2.9-1.6 3.9-1.1 1.1-2.4 1.6-3.9 1.6-1.6 0-2.9-.5-3.9-1.6-1.1-1.1-1.6-2.4-1.6-3.9 0-1.6.5-2.9 1.6-3.9 1-1.1 2.3-1.6 3.9-1.6zm0 2.9c-.7 0-1.3.3-1.8.8s-.8 1.1-.8 1.8.3 1.3.8 1.9c.5.5 1.1.8 1.8.8s1.3-.3 1.9-.8c.5-.5.8-1.1.8-1.9 0-.7-.3-1.3-.8-1.8-.6-.5-1.2-.8-1.9-.8zM-221 296.8v4.8c0 .5.2.9.5 1.2.3.3.8.5 1.2.5.5 0 .9-.2 1.2-.5.3-.3.5-.8.5-1.2v-4.9c0-.4.1-.8.4-1.1s.6-.4 1.1-.4c.4 0 .8.1 1.1.4s.4.6.4 1.1v4.9c0 1.3-.4 2.4-1.3 3.3-.9.9-2 1.4-3.3 1.4s-2.4-.4-3.3-1.3-1.3-2-1.3-3.3v-4.9c0-.4.1-.8.4-1.1.3-.3.6-.4 1-.4s.8.1 1.1.4c.2.3.3.7.3 1.1zM-208.2 298.2c-.7 0-1.3.3-1.8.8s-.8 1.1-.8 1.9c0 .7.3 1.3.8 1.8s1.1.8 1.8.8 1.3-.3 1.9-.8c.5-.5.8-1.1.8-1.8v-8.6c0-.4.1-.8.4-1 .3-.3.6-.4 1-.4s.8.1 1.1.4c.3.3.4.6.4 1.1v8.5c0 1.5-.5 2.9-1.6 3.9-1.1 1.1-2.4 1.6-3.9 1.6s-2.9-.5-3.9-1.6c-1.1-1.1-1.6-2.4-1.6-3.9 0-1.6.5-2.9 1.6-3.9 1.1-1.1 2.4-1.6 3.9-1.6.4 0 .8.1 1.1.4.3.3.4.6.4 1.1 0 .4-.1.8-.4 1-.4.1-.8.3-1.2.3z"/><path class="st1" d="M-187.9 294.8c0-.5-.3-1.1-.6-1.4-.4-.4-.9-.5-1.4-.5-.8.1-1.5.6-1.5 1.6v10.3c0 .5-.1.8-.4 1.1-.3.3-.7.4-1.1.4-.5 0-.8-.1-1.1-.4-.3-.3-.4-.7-.4-1.1v-10c0-.5-.2-1-.6-1.3-.4-.4-.8-.6-1.3-.6s-1 .2-1.3.5c-.4.4-.5.8-.5 1.3v10c0 .5-.1.8-.4 1.1-.3.3-.7.4-1.1.4-.5 0-.8-.1-1.1-.4-.3-.3-.4-.7-.4-1.1v-10c0-1.4.5-2.6 1.5-3.6s2.2-1.5 3.6-1.5c1.2 0 2.3.4 3.3 1.2.9-.8 2.1-1.2 3.4-1.2 1 0 2.3.6 3.2 1.7.8 1 1.2 2.1 1.2 3.5M-180.7 290.1c.4.4.6.8.6 1.4 0 .5-.2 1-.6 1.4-.4.4-.8.6-1.4.6-.5 0-1-.2-1.4-.6-.3-.4-.5-.9-.5-1.4s.2-1 .6-1.4c.4-.4.8-.5 1.3-.5s1 .1 1.4.5zm.1 6c0-1-.5-1.6-1.5-1.6-.5 0-.8.1-1.1.4-.3.3-.4.7-.4 1.1v8.7c0 .5.1.8.4 1.1.3.3.7.4 1.1.4.5 0 .8-.1 1.1-.4.3-.3.4-.7.4-1.1v-8.6zM-176.1 291.4v13.4c0 .5-.1.8-.4 1.1-.3.3-.7.4-1.1.4-.5 0-.8-.1-1.1-.4-.3-.3-.4-.7-.4-1.1v-13.4c0-.5.1-.8.4-1.1.3-.3.7-.4 1.1-.4 1-.1 1.5.4 1.5 1.5zM-171.7 291.4v13.4c0 .5-.1.8-.4 1.1-.3.3-.7.4-1.1.4-.5 0-.8-.1-1.1-.4-.3-.3-.4-.7-.4-1.1v-13.4c0-.5.1-.8.4-1.1.3-.3.7-.4 1.1-.4 1-.1 1.5.4 1.5 1.5z"/><path class="st1" d="M-190 289.8c1.4 0 2.6.5 3.6 1.5s1.5 2.2 1.5 3.6v10c0 .5-.1.8-.4 1.1-.3.3-.7.4-1.1.4-.5 0-.8-.1-1.1-.4-.3-.3-.4-.7-.4-1.1v-10c0-.5-.2-1-.5-1.3-.6-.8-1-.8-1.6-.7"/><g><path class="st0" d="M-243.1 303.1c-.6.3-1.3.4-2 .4-1.4 0-2.6-.5-3.5-1.4-.9-1-1.4-2.1-1.4-3.5s.5-2.6 1.4-3.5c.9-1 1.6-1.2 2.9-1.4.9-.1 2.2.1 2.6.3 2.2 1 3.2-1.2 2.3-2-1-.7-2.3-1.3-4.2-1.3-2.2 0-4.1.8-5.6 2.3-1.6 1.5-2.4 3.4-2.4 5.6s.8 4.1 2.3 5.6 3.4 2.3 5.6 2.3c1.3 0 2.5-.3 3.6-.8 1-.9.9-3-1.6-2.6z"/></g></svg>