<svg id="Слой_1" xmlns="http://www.w3.org/2000/svg" viewBox="-233 237.3 128 122" enable-background="new -233 237.3 128 122"><style>.st0{fill:none;stroke:#FFF}.st1{fill:#FFF}.st2{fill:none}.st3{filter:url(#Adobe_OpacityMaskFilter)}.st4{mask:url(#mask-2);fill:#FFF}</style><title>Group</title><g id="Page-1"><g id="Desktop-HD"><g id="Group" transform="translate(-1 1)"><circle id="Oval-1" class="st0" cx="-148.5" cy="280.8" r="43.5"/><path id="Path-13" class="st0" d="M-148.2 246.9s-33.8 1.4-33.8 32.7"/><path id="Rectangle-17" class="st1" d="M-230.9 346.2l31.8-31.8c1.2-1.2 3.1-1.2 4.2 0l6.7 6.7c1.2 1.2 1.2 3.1 0 4.2l-31.8 31.8c-1.2 1.2-3.1 1.2-4.2 0l-6.7-6.7c-1.2-1.1-1.2-3 0-4.2z"/><path id="Rectangle-17_1_" class="st1" d="M-180.136 310.837l-23.9 23.9-3.96-3.96 23.9-23.9z"/><g id="Rectangle-7" transform="translate(41)"><g id="Mask"><circle id="path-1_1_" class="st2" cx="-189.5" cy="280.8" r="43.5"/></g><defs><filter id="Adobe_OpacityMaskFilter" filterUnits="userSpaceOnUse" x="-199" y="269.3" width="74" height="61"><feColorMatrix values="1 0 0 0 0 0 1 0 0 0 0 0 1 0 0 0 0 0 1 0"/></filter></defs><mask maskUnits="userSpaceOnUse" x="-199" y="269.3" width="74" height="61" id="mask-2"><g class="st3"><circle id="path-1" class="st1" cx="-189.5" cy="280.8" r="43.5"/></g></mask><path class="st4" d="M-177 323.3h1v1h-1v-1m0-46.5c0-1.4 1.1-2.5 2.5-2.5h26c1.4 0 2.5 1.1 2.5 2.5s-1.1 2.5-2.5 2.5h-26c-1.4 0-2.5-1.1-2.5-2.5m.5 8.5h43v-1h-43v1m0 5h36v-1h-36v1m0 5h31v-1h-31v1m0 5h37v-1h-37v1m0 5h23v-1h-23v1m0 5h34v-1h-34v1m4.5 13h1v1h-1v-1m5 0h1v1h-1v-1m-32-51c0-1.7 1.3-3 3-3h14v61h-14c-1.7 0-3-1.3-3-3v-55m4 2h1v1h-1v-1m4 0h1v1h-1v-1m4 0h1v1h-1v-1zm5-4l1-1v61l-1-1h54c1.1 0 2-.9 2-2v-55c0-1.1-.9-2-2-2h-54zm54-1c1.7 0 3 1.3 3 3v55c0 1.7-1.4 3-3 3h-54v-61"/></g></g></g></g></svg>