<?xml version="1.0" encoding="utf-8"?>
<!-- Generator: Adobe Illustrator 19.1.0, SVG Export Plug-In . SVG Version: 6.00 Build 0)  -->
<svg version="1.1" id="Слой_1" xmlns="http://www.w3.org/2000/svg" xmlns:xlink="http://www.w3.org/1999/xlink" x="0px" y="0px"
	 viewBox="0 0 595.3 595.3" style="enable-background:new 0 0 595.3 595.3;" xml:space="preserve">
<style type="text/css">
	.st0{fill:#FFFFFF;}
</style>
<g id="_x31_c_x5F_bitrix_x5F_logo" transform="translate(62.000000, 0.000000)" sketch:type="MSLayerGroup">
	<g id="svg2" sketch:type="MSShapeGroup">
		<g id="layer1" transform="translate(0.118933, 0.035166)">
			<path id="path821" class="st0" d="M188.4,536.8c-41.8-8.7-80.8-28-111.5-55.2C-1.7,411.8-26,302,15.5,204.4
				c10.2-24,26.8-48.3,47.3-69.4L81,116.3l1.3,109.1c1.2,104.4,1.5,109.7,6.4,122.8c9.9,26.3,20.5,43.1,38.7,61.2
				c47.1,46.9,116.2,58.6,174.9,29.6c55.2-27.2,90-86.5,86-146.3c-2.7-40.2-16.2-69.6-45.4-99c-22.1-22.2-48-36.7-76.3-42.6
				c-28.7-6-27.4-6.9-27.4,17.4v21l15.8,2.9c61,11.2,101.4,71.2,88.7,131.7c-4.1,19.3-13.1,36.4-27.7,52.1
				c-22.1,23.9-53.2,35.3-80.4,35.2c-44.9-0.1-82.4-25.6-100.6-63.3c0,0-4.8-10.8-6.3-17.5c-9-39.2-3.2-121.7-3.2-121.7l-0.7-120.7
				l7.1-3.7c3.9-2,7.7-3.7,8.4-3.7c0.7,0,1.5,55.4,1.9,123.2c0,0-8.7,88.8,2,122.8c1.5,4.9,4.5,13.3,4.5,13.3
				c9.4,19.1,24.4,35.9,43.9,45.1c14.8,7,22.3,10.2,44.2,10.2c14.3,0,27-4.5,41.6-11.2c17.2-7.9,36.9-28.9,44.2-48.1
				c20.1-52.8-7.9-109.6-61.8-125.4c-22-6.5-21.6-6.8-21.6,17.1V249l10.6,2.8c38.1,10.2,49.8,61.3,19.8,87.5
				c-10.6,9.3-20.1,13.4-36.8,13.4c-17.8,0-34.9-10.8-43.7-27.3c-5.3-9.9-5.7-19.4-5.7-23.7c0-39.9-0.9-111.5-0.9-111.5l-0.7-122.9
				l5.5-1.4c3-0.7,15.2-2.6,27-4.1c40.2-5.1,99.7,8,139.7,30.9c54.5,31.2,95.7,84.7,112.9,146.7c5.9,21.3,6.6,27.5,6.6,61.7
				c0,34.1-0.7,40.5-6.5,61.3c-23.4,84.1-82.8,144.3-167.7,169.8c-17.9,5.4-26.3,6.4-57.8,7.1C216.2,539.9,199.7,539.1,188.4,536.8
				L188.4,536.8z"/>
		</g>
	</g>
</g>
</svg>
