<?xml version="1.0" encoding="utf-8"?>
<!-- Generator: Adobe Illustrator 19.1.0, SVG Export Plug-In . SVG Version: 6.00 Build 0)  -->
<svg version="1.1" id="Layer_1" xmlns="http://www.w3.org/2000/svg" xmlns:xlink="http://www.w3.org/1999/xlink" x="0px" y="0px"
	 viewBox="0 0 85.2 16.7" style="enable-background:new 0 0 85.2 16.7;" xml:space="preserve">
<style type="text/css">
	.st0{fill:#29475D;}
	.st1{fill:#27AAE1;}
</style>
<g>
	<g>
		<path class="st0" d="M17.4,2.7v12.5c0,0.4-0.1,0.8-0.4,1.1c-0.3,0.3-0.6,0.4-1.1,0.4c-0.4,0-0.8-0.1-1-0.4
			c-0.3-0.3-0.4-0.6-0.4-1.1V2.7c0-0.4,0.1-0.8,0.4-1.1c0.3-0.3,0.6-0.4,1-0.4C16.9,1.3,17.4,1.8,17.4,2.7z"/>
		<path class="st0" d="M23.8,5.7c1.6,0,2.9,0.5,3.9,1.6c1.1,1.1,1.6,2.4,1.6,3.9c0,1.6-0.5,2.9-1.6,3.9c-1.1,1.1-2.4,1.6-3.9,1.6
			c-1.6,0-2.9-0.5-3.9-1.6c-1.1-1.1-1.6-2.4-1.6-3.9c0-1.6,0.5-2.9,1.6-3.9C20.9,6.2,22.2,5.7,23.8,5.7z M23.8,8.6
			c-0.7,0-1.3,0.3-1.8,0.8c-0.5,0.5-0.8,1.1-0.8,1.8c0,0.7,0.3,1.3,0.8,1.9c0.5,0.5,1.1,0.8,1.8,0.8c0.7,0,1.3-0.3,1.9-0.8
			c0.5-0.5,0.8-1.1,0.8-1.9c0-0.7-0.3-1.3-0.8-1.8C25.1,8.9,24.5,8.6,23.8,8.6z"/>
		<path class="st0" d="M33,7.2V12c0,0.5,0.2,0.9,0.5,1.2c0.3,0.3,0.8,0.5,1.2,0.5c0.5,0,0.9-0.2,1.2-0.5c0.3-0.3,0.5-0.8,0.5-1.2
			V7.1c0-0.4,0.1-0.8,0.4-1.1c0.3-0.3,0.6-0.4,1.1-0.4c0.4,0,0.8,0.1,1.1,0.4c0.3,0.3,0.4,0.6,0.4,1.1V12c0,1.3-0.4,2.4-1.3,3.3
			c-0.9,0.9-2,1.4-3.3,1.4c-1.3,0-2.4-0.4-3.3-1.3c-0.9-0.9-1.3-2-1.3-3.3V7.2c0-0.4,0.1-0.8,0.4-1.1c0.3-0.3,0.6-0.4,1-0.4
			c0.4,0,0.8,0.1,1.1,0.4C32.9,6.4,33,6.8,33,7.2z"/>
		<path class="st0" d="M45.8,8.6c-0.7,0-1.3,0.3-1.8,0.8c-0.5,0.5-0.8,1.1-0.8,1.9c0,0.7,0.3,1.3,0.8,1.8c0.5,0.5,1.1,0.8,1.8,0.8
			c0.7,0,1.3-0.3,1.9-0.8c0.5-0.5,0.8-1.1,0.8-1.8V2.7c0-0.4,0.1-0.8,0.4-1c0.3-0.3,0.6-0.4,1-0.4c0.4,0,0.8,0.1,1.1,0.4
			c0.3,0.3,0.4,0.6,0.4,1.1v8.5c0,1.5-0.5,2.9-1.6,3.9c-1.1,1.1-2.4,1.6-3.9,1.6c-1.5,0-2.9-0.5-3.9-1.6c-1.1-1.1-1.6-2.4-1.6-3.9
			c0-1.6,0.5-2.9,1.6-3.9c1.1-1.1,2.4-1.6,3.9-1.6c0.4,0,0.8,0.1,1.1,0.4c0.3,0.3,0.4,0.6,0.4,1.1c0,0.4-0.1,0.8-0.4,1
			C46.6,8.4,46.2,8.6,45.8,8.6z"/>
	</g>
	<path class="st1" d="M65.9,5.2c0-0.5-0.2-1-0.5-1.3c-0.4-0.4-0.8-0.6-1.3-0.6c-0.6,0-1.1,0.2-1.5,0.7v11.2c0,0.5-0.1,0.8-0.4,1.1
		c-0.3,0.3-0.7,0.4-1.1,0.4c-0.5,0-0.8-0.1-1.1-0.4c-0.3-0.3-0.4-0.7-0.4-1.1v-10c0-0.5-0.2-1-0.6-1.3c-0.4-0.4-0.8-0.6-1.3-0.6
		c-0.5,0-1,0.2-1.3,0.5c-0.4,0.4-0.5,0.8-0.5,1.3v10c0,0.5-0.1,0.8-0.4,1.1c-0.3,0.3-0.7,0.4-1.1,0.4c-0.5,0-0.8-0.1-1.1-0.4
		c-0.3-0.3-0.4-0.7-0.4-1.1v-10c0-1.4,0.5-2.6,1.5-3.6c1-1,2.2-1.5,3.6-1.5c1.2,0,2.3,0.4,3.3,1.2c0.9-0.8,2-1.2,3.3-1.2
		c1.4,0,2.6,0.5,3.6,1.5c1,1,1.4,2.2,1.4,3.6"/>
	<path class="st1" d="M73.3,0.5c0.4,0.4,0.6,0.8,0.6,1.4c0,0.5-0.2,1-0.6,1.4c-0.4,0.4-0.8,0.6-1.4,0.6c-0.5,0-1-0.2-1.4-0.6
		C70.2,2.9,70,2.4,70,1.9c0-0.5,0.2-1,0.6-1.4c0.4-0.4,0.8-0.6,1.4-0.6C72.4-0.1,72.9,0.1,73.3,0.5z M73.5,6.5c0-1-0.5-1.6-1.6-1.6
		c-0.5,0-0.8,0.1-1.1,0.4c-0.3,0.3-0.4,0.7-0.4,1.1v8.7c0,0.5,0.1,0.8,0.4,1.1c0.3,0.3,0.7,0.4,1.1,0.4c0.5,0,0.8-0.1,1.1-0.4
		c0.3-0.3,0.4-0.7,0.4-1.1V6.5z"/>
	<path class="st1" d="M77.9,1.8v13.4c0,0.5-0.1,0.8-0.4,1.1c-0.3,0.3-0.7,0.4-1.1,0.4c-0.5,0-0.8-0.1-1.1-0.4
		c-0.3-0.3-0.4-0.7-0.4-1.1V1.8c0-0.5,0.1-0.8,0.4-1.1c0.3-0.3,0.7-0.4,1.1-0.4C77.4,0.2,77.9,0.7,77.9,1.8z"/>
	<path class="st1" d="M82.3,1.8v13.4c0,0.5-0.1,0.8-0.4,1.1c-0.3,0.3-0.7,0.4-1.1,0.4c-0.5,0-0.8-0.1-1.1-0.4
		c-0.3-0.3-0.4-0.7-0.4-1.1V1.8c0-0.5,0.1-0.8,0.4-1.1c0.3-0.3,0.7-0.4,1.1-0.4C81.8,0.2,82.3,0.7,82.3,1.8z"/>
	<path class="st1" d="M64,0.2c1.4,0,2.6,0.5,3.6,1.5c1,1,1.5,2.2,1.5,3.6v10c0,0.5-0.1,0.8-0.4,1.1c-0.3,0.3-0.7,0.4-1.1,0.4
		c-0.5,0-0.8-0.1-1.1-0.4c-0.3-0.3-0.4-0.7-0.4-1.1v-10c0-0.5-0.2-1-0.5-1.3C65,3.5,64.6,3.3,64,3.3"/>
	<g>
		<path class="st0" d="M10.9,13.5c-0.6,0.3-1.3,0.4-2,0.4c-1.4,0-2.6-0.5-3.5-1.4C4.5,11.5,4,10.4,4,9c0-1.4,0.5-2.6,1.4-3.5
			C6.3,4.5,7,4.3,8.3,4.1c0.9-0.1,2.2,0.1,2.6,0.3c2.2,1,3.2-1.2,2.3-2c-1-0.7-2.3-1.3-4.2-1.3c-2.2,0-4.1,0.8-5.6,2.3
			C1.8,4.9,1,6.8,1,9c0,2.2,0.8,4.1,2.3,5.6c1.5,1.5,3.4,2.3,5.6,2.3c1.3,0,2.5-0.3,3.6-0.8C13.5,15.2,13.4,13.1,10.9,13.5z"/>
	</g>
</g>
</svg>
