<?xml version="1.0" encoding="utf-8"?>
<!-- Generator: Adobe Illustrator 19.1.0, SVG Export Plug-In . SVG Version: 6.00 Build 0)  -->
<svg version="1.1" id="Слой_1" xmlns="http://www.w3.org/2000/svg" xmlns:xlink="http://www.w3.org/1999/xlink" x="0px" y="0px"
	 viewBox="-222 251.3 150 94" style="enable-background:new -222 251.3 150 94;" xml:space="preserve">
<style type="text/css">
	.st0{fill:#FFFFFF;}
	.st1{fill:none;stroke:#FFFFFF;}
	.st2{fill:none;stroke:#FFFFFF;stroke-linecap:square;}
</style>
<title>Group</title>
<desc>Created with Sketch.</desc>
<g id="Page-1">
	<g id="Desktop-HD" transform="translate(0.000000, -58.000000)">
		<g id="Group" transform="translate(0.000000, 58.000000)">
			<rect id="Rectangle-14" x="-146" y="254.3" class="st0" width="2" height="2"/>
			<rect id="Rectangle-7" x="-159" y="318.3" class="st0" width="1" height="1"/>
			<path id="Rectangle-1" class="st1" d="M-209,251.3h128c1.7,0,3,1.3,3,3v80c0,1.7-1.3,3-3,3h-128c-1.7,0-3-1.3-3-3v-80
				C-212,252.6-210.7,251.3-209,251.3z"/>
			<path id="Rectangle-1_1_" class="st1" d="M-203,258.3h116c1.7,0,3,1.3,3,3v67c0,1.7-1.3,3-3,3h-116c-1.7,0-3-1.3-3-3v-67
				C-206,259.6-204.7,258.3-203,258.3z"/>
			<path id="Rectangle-1_2_" class="st1" d="M-176,264.3h65c1.7,0,3,1.3,3,3v55c0,1.7-1.3,3-3,3h-65c-1.7,0-3-1.3-3-3v-55
				C-179,265.6-177.7,264.3-176,264.3z"/>
			<path id="Rectangle-5" class="st0" d="M-181,267.3c0-1.7,1.3-3,3-3h14v61h-14c-1.7,0-3-1.3-3-3V267.3z M-177,269.3h1v1h-1V269.3z
				 M-173,269.3h1v1h-1V269.3z M-169,269.3h1v1h-1V269.3z"/>
			<path id="Rectangle-4" class="st1" d="M-219,336.3h144c1.7,0,3,1.3,3,3v3c0,1.7-1.3,3-3,3h-144c-1.7,0-3-1.3-3-3v-3
				C-222,337.6-220.7,336.3-219,336.3z"/>
			<path id="Rectangle-6" class="st0" d="M-156,269.3h25c1.7,0,3,1.1,3,2.5l0,0c0,1.4-1.3,2.5-3,2.5h-25c-1.7,0-3-1.1-3-2.5l0,0
				C-159,270.4-157.7,269.3-156,269.3z"/>
			<path id="Line" class="st2" d="M-158.5,279.8h43"/>
			<path id="Line_1_" class="st2" d="M-158.5,284.8h36"/>
			<path id="Line_2_" class="st2" d="M-158.5,289.8h31"/>
			<path id="Line_3_" class="st2" d="M-158.5,294.8h37"/>
			<path id="Line_4_" class="st2" d="M-158.5,299.8h23"/>
			<path id="Line_5_" class="st2" d="M-158.5,304.8h34"/>
			<rect id="Rectangle-7_1_" x="-154" y="318.3" class="st0" width="1" height="1"/>
			<rect id="Rectangle-7_2_" x="-149" y="318.3" class="st0" width="1" height="1"/>
			<path id="Rectangle-13" class="st0" d="M-156,340.3h18c1.1,0,2,0.9,2,2l0,0c0,1.1-0.9,2-2,2h-18c-1.1,0-2-0.9-2-2l0,0
				C-158,341.2-157.1,340.3-156,340.3z"/>
		</g>
	</g>
</g>
</svg>
