<?xml version="1.0" encoding="utf-8"?>
<!-- Generator: Adobe Illustrator 19.1.0, SVG Export Plug-In . SVG Version: 6.00 Build 0)  -->
<svg version="1.1" id="Layer_1" xmlns="http://www.w3.org/2000/svg" xmlns:xlink="http://www.w3.org/1999/xlink" x="0px" y="0px"
	 viewBox="-254 289.6 85.2 16.7" style="enable-background:new -254 289.6 85.2 16.7;" xml:space="preserve">
<style type="text/css">
	.st0{fill:#29475D;}
	.st1{fill:#27AAE1;}
</style>
<g>
	<g>
		<path class="st0" d="M-236.6,292.3v12.5c0,0.4-0.1,0.8-0.4,1.1c-0.3,0.3-0.6,0.4-1.1,0.4c-0.4,0-0.8-0.1-1-0.4
			c-0.3-0.3-0.4-0.6-0.4-1.1v-12.5c0-0.4,0.1-0.8,0.4-1.1c0.3-0.3,0.6-0.4,1-0.4C-237.1,290.9-236.6,291.4-236.6,292.3z"/>
		<path class="st0" d="M-230.2,295.3c1.6,0,2.9,0.5,3.9,1.6c1.1,1.1,1.6,2.4,1.6,3.9c0,1.6-0.5,2.9-1.6,3.9
			c-1.1,1.1-2.4,1.6-3.9,1.6c-1.6,0-2.9-0.5-3.9-1.6c-1.1-1.1-1.6-2.4-1.6-3.9c0-1.6,0.5-2.9,1.6-3.9
			C-233.1,295.8-231.8,295.3-230.2,295.3z M-230.2,298.2c-0.7,0-1.3,0.3-1.8,0.8s-0.8,1.1-0.8,1.8c0,0.7,0.3,1.3,0.8,1.9
			c0.5,0.5,1.1,0.8,1.8,0.8s1.3-0.3,1.9-0.8c0.5-0.5,0.8-1.1,0.8-1.9c0-0.7-0.3-1.3-0.8-1.8C-228.9,298.5-229.5,298.2-230.2,298.2z"
			/>
		<path class="st0" d="M-221,296.8v4.8c0,0.5,0.2,0.9,0.5,1.2c0.3,0.3,0.8,0.5,1.2,0.5c0.5,0,0.9-0.2,1.2-0.5
			c0.3-0.3,0.5-0.8,0.5-1.2v-4.9c0-0.4,0.1-0.8,0.4-1.1s0.6-0.4,1.1-0.4c0.4,0,0.8,0.1,1.1,0.4s0.4,0.6,0.4,1.1v4.9
			c0,1.3-0.4,2.4-1.3,3.3c-0.9,0.9-2,1.4-3.3,1.4s-2.4-0.4-3.3-1.3s-1.3-2-1.3-3.3v-4.9c0-0.4,0.1-0.8,0.4-1.1
			c0.3-0.3,0.6-0.4,1-0.4s0.8,0.1,1.1,0.4C-221.1,296-221,296.4-221,296.8z"/>
		<path class="st0" d="M-208.2,298.2c-0.7,0-1.3,0.3-1.8,0.8s-0.8,1.1-0.8,1.9c0,0.7,0.3,1.3,0.8,1.8s1.1,0.8,1.8,0.8
			s1.3-0.3,1.9-0.8c0.5-0.5,0.8-1.1,0.8-1.8v-8.6c0-0.4,0.1-0.8,0.4-1c0.3-0.3,0.6-0.4,1-0.4c0.4,0,0.8,0.1,1.1,0.4
			c0.3,0.3,0.4,0.6,0.4,1.1v8.5c0,1.5-0.5,2.9-1.6,3.9c-1.1,1.1-2.4,1.6-3.9,1.6s-2.9-0.5-3.9-1.6c-1.1-1.1-1.6-2.4-1.6-3.9
			c0-1.6,0.5-2.9,1.6-3.9c1.1-1.1,2.4-1.6,3.9-1.6c0.4,0,0.8,0.1,1.1,0.4c0.3,0.3,0.4,0.6,0.4,1.1c0,0.4-0.1,0.8-0.4,1
			C-207.4,298-207.8,298.2-208.2,298.2z"/>
	</g>
	<path class="st1" d="M-187.9,294.8c0-0.5-0.3-1.1-0.6-1.4c-0.4-0.4-0.9-0.5-1.4-0.5c-0.8,0.1-1.5,0.6-1.5,1.6v10.3
		c0,0.5-0.1,0.8-0.4,1.1c-0.3,0.3-0.7,0.4-1.1,0.4c-0.5,0-0.8-0.1-1.1-0.4c-0.3-0.3-0.4-0.7-0.4-1.1v-10c0-0.5-0.2-1-0.6-1.3
		c-0.4-0.4-0.8-0.6-1.3-0.6s-1,0.2-1.3,0.5c-0.4,0.4-0.5,0.8-0.5,1.3v10c0,0.5-0.1,0.8-0.4,1.1c-0.3,0.3-0.7,0.4-1.1,0.4
		c-0.5,0-0.8-0.1-1.1-0.4c-0.3-0.3-0.4-0.7-0.4-1.1v-10c0-1.4,0.5-2.6,1.5-3.6s2.2-1.5,3.6-1.5c1.2,0,2.3,0.4,3.3,1.2
		c0.9-0.8,2.1-1.2,3.4-1.2c1,0,2.3,0.6,3.2,1.7c0.8,1,1.2,2.1,1.2,3.5"/>
	<path class="st1" d="M-180.7,290.1c0.4,0.4,0.6,0.8,0.6,1.4c0,0.5-0.2,1-0.6,1.4c-0.4,0.4-0.8,0.6-1.4,0.6c-0.5,0-1-0.2-1.4-0.6
		c-0.3-0.4-0.5-0.9-0.5-1.4s0.2-1,0.6-1.4c0.4-0.4,0.8-0.5,1.3-0.5C-181.6,289.6-181.1,289.7-180.7,290.1z M-180.6,296.1
		c0-1-0.5-1.6-1.5-1.6c-0.5,0-0.8,0.1-1.1,0.4c-0.3,0.3-0.4,0.7-0.4,1.1v8.7c0,0.5,0.1,0.8,0.4,1.1c0.3,0.3,0.7,0.4,1.1,0.4
		c0.5,0,0.8-0.1,1.1-0.4c0.3-0.3,0.4-0.7,0.4-1.1V296.1L-180.6,296.1z"/>
	<path class="st1" d="M-176.1,291.4v13.4c0,0.5-0.1,0.8-0.4,1.1c-0.3,0.3-0.7,0.4-1.1,0.4c-0.5,0-0.8-0.1-1.1-0.4
		c-0.3-0.3-0.4-0.7-0.4-1.1v-13.4c0-0.5,0.1-0.8,0.4-1.1c0.3-0.3,0.7-0.4,1.1-0.4C-176.6,289.8-176.1,290.3-176.1,291.4z"/>
	<path class="st1" d="M-171.7,291.4v13.4c0,0.5-0.1,0.8-0.4,1.1c-0.3,0.3-0.7,0.4-1.1,0.4c-0.5,0-0.8-0.1-1.1-0.4
		c-0.3-0.3-0.4-0.7-0.4-1.1v-13.4c0-0.5,0.1-0.8,0.4-1.1c0.3-0.3,0.7-0.4,1.1-0.4C-172.2,289.8-171.7,290.3-171.7,291.4z"/>
	<path class="st1" d="M-190,289.8c1.4,0,2.6,0.5,3.6,1.5s1.5,2.2,1.5,3.6v10c0,0.5-0.1,0.8-0.4,1.1c-0.3,0.3-0.7,0.4-1.1,0.4
		c-0.5,0-0.8-0.1-1.1-0.4c-0.3-0.3-0.4-0.7-0.4-1.1v-10c0-0.5-0.2-1-0.5-1.3c-0.6-0.8-1-0.8-1.6-0.7"/>
	<g>
		<path class="st0" d="M-243.1,303.1c-0.6,0.3-1.3,0.4-2,0.4c-1.4,0-2.6-0.5-3.5-1.4c-0.9-1-1.4-2.1-1.4-3.5s0.5-2.6,1.4-3.5
			c0.9-1,1.6-1.2,2.9-1.4c0.9-0.1,2.2,0.1,2.6,0.3c2.2,1,3.2-1.2,2.3-2c-1-0.7-2.3-1.3-4.2-1.3c-2.2,0-4.1,0.8-5.6,2.3
			c-1.6,1.5-2.4,3.4-2.4,5.6s0.8,4.1,2.3,5.6s3.4,2.3,5.6,2.3c1.3,0,2.5-0.3,3.6-0.8C-240.5,304.8-240.6,302.7-243.1,303.1z"/>
	</g>
</g>
</svg>
